<svg width="824" height="563" viewBox="0 0 824 563" fill="none" xmlns="http://www.w3.org/2000/svg">
<path d="M190.797 407.251L249.361 408.657C250.65 408.688 251.925 408.385 253.062 407.778C256.64 405.868 258.043 401.454 256.224 397.828L249.977 385.376C249.278 383.982 248.73 382.516 248.344 381.005L240.758 351.315L238.344 339.147C238.033 337.576 237.847 335.982 237.79 334.381L236.915 309.908V250.703L238.356 232.542L241.719 208.932L248.925 176.605L251.712 167.205C253.636 160.715 250.034 153.874 243.594 151.788C242.352 151.385 241.054 151.18 239.748 151.18L200.885 151.18L159.571 156.266L128.996 163.065C127.603 163.375 126.234 163.783 124.9 164.288L95.6612 175.342C93.4386 176.182 91.3238 177.283 89.3611 178.622L75.7256 187.926C73.6628 189.334 71.7838 190.993 70.1322 192.866L64.3999 199.368C62.8408 201.136 61.5271 203.106 60.4945 205.225C59.2974 207.682 58.4915 210.311 58.1061 213.017L55.325 232.543L53.8838 250.704V309.909L55.1956 332.721C55.2817 334.219 55.4801 335.708 55.789 337.176L58.0582 347.961C58.4763 349.948 59.1376 351.876 60.027 353.701C61.3645 356.446 63.1986 358.919 65.4368 360.996L70.5461 365.737C71.9252 367.017 73.4216 368.164 75.0155 369.163L90.2476 378.714C91.624 379.577 93.0682 380.326 94.566 380.956L124.863 393.682C126.222 394.253 127.621 394.722 129.049 395.087L159.571 402.893L190.797 407.251Z" stroke="#1169CC" stroke-width="3"/>
<path d="M640.891 385.094L650.265 357.592C652.019 352.447 653.351 347.167 654.246 341.805L658.665 315.355L660.563 288.386C660.899 283.61 660.891 278.815 660.54 274.04L658.665 248.522L654.389 220.23C653.399 213.682 651.761 207.249 649.5 201.025L640.891 177.331" stroke="#1169CC" stroke-width="3"/>
<path d="M36.185 374.562L30.4285 374.562C23.484 374.562 17.1795 370.506 14.3015 364.186L11.9876 359.105C11.1695 357.308 10.5555 355.426 10.1571 353.492L6.86478 337.514L3.99756 323.385C2.66919 316.839 2 310.176 2 303.497L2 257.463C2 251.998 2.44805 246.541 3.33964 241.149L6.86478 219.83L13.189 194.405L14.6927 190.662C17.3111 184.146 23.6285 179.876 30.6514 179.876L36.185 179.876C37.3439 179.876 38.4525 180.349 39.2537 181.187C40.0098 181.977 40.4318 183.029 40.4318 184.122V192.785C40.4318 193.837 40.0928 194.86 39.4653 195.703L39.1012 196.193C38.4079 197.124 37.315 197.673 36.1536 197.673C34.3991 197.673 32.8895 198.914 32.5493 200.635L28.7563 219.83L24.8645 249.251L24.8645 305.477C24.8645 310.844 25.2966 316.203 26.1568 321.501L28.7563 337.514L32.4427 353.416C32.8478 355.164 34.4047 356.401 36.1987 356.401C37.34 356.401 38.4226 356.907 39.1552 357.782L39.3675 358.036C40.055 358.857 40.4318 359.894 40.4318 360.965V370.315C40.4318 371.409 40.0098 372.461 39.2537 373.251C38.4525 374.089 37.3439 374.562 36.185 374.562Z" stroke="#1169CC" stroke-width="3"/>
<path d="M787.815 372.742L793.572 372.742C800.516 372.742 806.82 368.686 809.698 362.366L812.012 357.284C812.83 355.488 813.444 353.605 813.843 351.672L817.135 335.694L820.002 321.565C821.331 315.019 822 308.356 822 301.677V255.643C822 250.177 821.552 244.721 820.66 239.329L817.135 218.01L810.811 192.584L809.307 188.842C806.689 182.326 800.372 178.056 793.349 178.056L787.815 178.056C786.656 178.056 785.548 178.529 784.746 179.367C783.99 180.157 783.568 181.209 783.568 182.303V190.966C783.568 192.017 783.907 193.04 784.535 193.883L784.899 194.373C785.592 195.304 786.685 195.854 787.846 195.854C789.601 195.854 791.111 197.094 791.451 198.815L795.244 218.01L799.136 247.431V303.657C799.136 309.024 798.703 314.383 797.843 319.681L795.244 335.694L791.557 351.596C791.152 353.344 789.595 354.581 787.801 354.581C786.66 354.581 785.577 355.087 784.845 355.962L784.632 356.216C783.945 357.037 783.568 358.074 783.568 359.145V368.496C783.568 369.589 783.99 370.641 784.746 371.431C785.548 372.269 786.656 372.742 787.815 372.742Z" stroke="#1169CC" stroke-width="3"/>
<path d="M589.066 418.148L468.376 418.148C462.853 418.148 458.376 413.671 458.376 408.148V368.943C458.376 363.421 462.853 358.943 468.376 358.943L546.254 358.943C551.894 358.943 557.386 360.746 561.927 364.09C563.348 365.136 564.66 366.321 565.844 367.628L596.477 401.433C602.301 407.86 597.74 418.148 589.066 418.148Z" stroke="#1169CC" stroke-width="3"/>
<path d="M450.209 351.679V487.887" stroke="#1169CC" stroke-width="3"/>
<path d="M117.178 503.144L85.4466 503.144C82.983 503.144 80.5249 502.914 78.1042 502.457L75.6222 501.987C74.581 501.791 73.5615 501.493 72.5778 501.1L71.7811 500.781C68.0273 499.278 65.0763 496.269 63.647 492.487C62.6053 489.73 62.4328 486.721 63.1527 483.863L64.4913 478.55C65.4164 474.877 66.9882 471.399 69.1331 468.278L88.2876 440.406C90.3045 437.471 92.9508 435.023 96.0336 433.241C98.3402 431.907 100.853 430.968 103.469 430.462L120.175 427.231L205.205 416.334L235.654 412.58C244.728 411.461 253.485 408.539 261.412 403.984L333.952 360.034L348.364 353.859C352.835 352.168 357.471 350.948 362.195 350.217L376.227 348.047L522.267 344.777L537.63 344.777C553.425 344.777 568.996 348.519 583.066 355.696L622.19 375.651L639.233 385.386C642.278 387.126 645.456 388.623 648.736 389.863C656.277 392.714 664.272 394.175 672.334 394.175L685.602 394.175L706.259 394.174L724.277 394.174C726.354 394.174 728.428 394.334 730.48 394.652L741.227 396.319C744.381 396.808 747.234 398.469 749.218 400.969C750.038 402.002 750.692 403.157 751.156 404.392L758.596 424.193C761.14 430.964 765.242 437.041 770.57 441.932L772.697 443.885C774.831 445.844 776.644 448.124 778.072 450.644L778.397 451.217C780.55 455.015 781.682 459.306 781.682 463.672C781.682 466 781.36 468.318 780.725 470.558L780.136 472.634C779.257 475.737 777.674 478.596 775.509 480.987C773.561 483.141 771.186 484.866 768.535 486.054L764.915 487.676C761.38 489.26 757.632 490.32 753.79 490.823L718.552 495.434C713.295 496.122 708.239 493.167 706.259 488.249L705.034 485.778C702.973 481.622 700.549 477.655 697.792 473.924L697.242 473.18C694.294 469.193 690.933 465.528 687.215 462.248L686.302 461.443C682.964 458.498 679.305 455.938 675.395 453.809C671.325 451.593 667.01 449.861 662.537 448.647L660.5 448.094C653.885 446.299 647.061 445.389 640.206 445.389L639.448 445.389C631.506 445.389 623.606 446.527 615.987 448.767L610.18 450.474L602.176 454.105C597.922 456.035 593.934 458.506 590.312 461.455L589.856 461.826C585.501 465.373 581.763 469.616 578.795 474.385L577.656 476.216C576.284 478.419 575.18 480.777 574.365 483.241L573.079 487.129C572.834 487.871 572.709 488.648 572.709 489.429C572.709 493.416 569.522 496.671 565.536 496.754L269.239 502.979C264.943 503.069 261.412 499.611 261.412 495.315C261.412 494.25 261.19 493.196 260.76 492.222L258.252 486.534C257.159 484.054 255.798 481.701 254.194 479.518L252.934 477.803C250.586 474.607 247.908 471.667 244.944 469.031L244.642 468.762C242.375 466.746 239.941 464.924 237.367 463.316C232.609 460.344 227.416 458.132 221.975 456.761L218.954 456C212.066 454.264 204.964 453.532 197.867 453.826L186.145 454.311C177.756 454.659 169.456 456.18 161.489 458.831L153.277 462.899C149.475 464.783 145.884 467.065 142.564 469.707L142.141 470.043C139.672 472.008 137.38 474.187 135.293 476.554L133.12 479.018C130.909 481.527 129.096 484.361 127.747 487.421L125.642 492.197C125.205 493.188 124.979 494.26 124.979 495.344C124.979 499.652 121.486 503.144 117.178 503.144Z" stroke="#1169CC" stroke-width="3"/>
<path d="M270.06 426.899V465.9C270.06 473.166 273.255 480.065 278.798 484.763C283.383 488.651 289.228 490.734 295.239 490.625L365.659 489.341L476.63 487.162L547.041 484.548C551.942 484.366 556.392 481.639 558.778 477.354L564.557 466.286C565.506 464.468 566.639 462.752 567.938 461.165L569.767 458.931C571.402 456.935 573.287 455.157 575.377 453.643L583.759 447.57L595.288 441.395L606.818 436.673L613.741 434.056C614.246 433.865 614.781 433.767 615.321 433.767C617.788 433.767 619.789 431.767 619.789 429.299V420.085C619.789 417.175 618.861 414.341 617.141 411.994L597.216 384.819C595.935 383.071 594.468 381.468 592.841 380.036L568.287 358.427C566.758 357.082 565.064 355.937 563.246 355.021C560.299 353.536 557.078 352.676 553.783 352.494L532.356 351.316L445.405 351.317L379.593 353.42C377.992 353.471 376.398 353.65 374.826 353.956L365.06 355.855C361.956 356.458 358.966 357.549 356.202 359.086L295.214 393.012C293.819 393.788 292.489 394.674 291.235 395.661L281.498 403.331C274.275 409.019 270.06 417.705 270.06 426.899Z" stroke="#1169CC" stroke-width="3"/>
<path d="M428.68 419.964L286.269 419.965C281.697 419.965 278.896 414.952 281.292 411.059C281.803 410.229 282.513 409.54 283.358 409.055L329.479 382.553L359.346 365.481L362.516 363.973C365.971 362.33 369.708 361.363 373.526 361.124L407.036 359.024L428.196 357.998C433.902 357.722 438.68 362.273 438.68 367.986V409.964C438.68 415.487 434.203 419.964 428.68 419.964Z" stroke="#1169CC" stroke-width="3"/>
<path d="M493.339 320.109L496.923 317.669C498.193 316.804 499.561 316.093 500.998 315.549V315.549C503.202 314.716 505.538 314.288 507.894 314.288L586.275 314.288C590.25 314.288 594.204 314.847 598.024 315.948L599.501 316.373C602.358 317.197 605.085 318.419 607.6 320.005L609.5 321.203C610.1 321.581 610.66 322.022 611.169 322.517V322.517C613.139 324.433 614.25 327.065 614.25 329.813V345.476C614.25 348.427 613.209 351.283 611.309 353.541V353.541C610.707 354.257 610.027 354.903 609.281 355.468L607.766 356.613C605.146 358.595 602.212 360.125 599.087 361.138L597.85 361.539C594.151 362.739 590.286 363.349 586.396 363.35L507.462 363.35C506.113 363.35 504.768 363.183 503.46 362.853L502.716 362.665C500.181 362.026 497.882 360.677 496.087 358.776V358.776" stroke="#1169CC" stroke-width="3"/>
<path d="M493.341 264.394L496.925 261.954C498.195 261.089 499.563 260.378 500.999 259.834V259.834C503.203 259.001 505.54 258.574 507.896 258.574L586.277 258.574C590.251 258.574 594.206 259.132 598.025 260.233L599.503 260.658C602.36 261.482 605.086 262.704 607.602 264.29L609.502 265.488C610.102 265.867 610.662 266.307 611.17 266.802V266.802C613.141 268.718 614.252 271.35 614.252 274.098V289.761C614.252 292.712 613.211 295.568 611.311 297.826V297.826C610.709 298.542 610.028 299.188 609.282 299.753L607.768 300.898C605.148 302.881 602.214 304.41 599.089 305.423L597.852 305.824C594.153 307.024 590.287 307.635 586.398 307.635L508.458 307.635C506.448 307.635 504.446 307.386 502.497 306.895V306.895C500.071 306.283 497.754 305.302 495.627 303.985L492.791 302.23" stroke="#1169CC" stroke-width="3"/>
<path d="M493.889 206.602L496.221 204.838C497.59 203.802 499.101 202.967 500.707 202.36V202.36C502.74 201.591 504.895 201.197 507.069 201.197L585.726 201.197C589.701 201.197 593.655 201.755 597.475 202.856L598.952 203.281C601.809 204.105 604.536 205.327 607.051 206.913L608.951 208.111C609.551 208.49 610.111 208.93 610.62 209.425V209.425C612.59 211.341 613.701 213.973 613.701 216.721V232.384C613.701 235.335 612.66 238.191 610.76 240.449V240.449C610.158 241.165 609.478 241.811 608.731 242.376L607.217 243.522C604.597 245.504 601.663 247.033 598.538 248.046L597.301 248.447C593.602 249.647 589.737 250.258 585.847 250.258L507.908 250.258C505.898 250.258 503.895 250.009 501.946 249.518V249.518C499.52 248.906 497.203 247.925 495.076 246.608L492.24 244.853" stroke="#1169CC" stroke-width="3"/>
<path d="M589.068 144.638L468.378 144.639C462.855 144.639 458.378 149.116 458.378 154.639V193.844C458.378 199.367 462.855 203.844 468.378 203.844L546.256 203.843C551.896 203.843 557.388 202.04 561.929 198.696C563.35 197.65 564.662 196.465 565.846 195.158L596.479 161.353C602.303 154.925 597.742 144.638 589.068 144.638Z" stroke="#1169CC" stroke-width="3"/>
<path d="M450.21 211.108V74.9004" stroke="#1169CC" stroke-width="3"/>
<path d="M117.18 59.6481L85.4485 59.6483C82.985 59.6483 80.5268 59.8786 78.1061 60.3362L75.6241 60.8054C74.583 61.0022 73.5634 61.2995 72.5798 61.6933L71.783 62.0122C68.0292 63.5148 65.0783 66.5237 63.649 70.3061C62.6072 73.0628 62.4347 76.0724 63.1547 78.93L64.4932 84.2434C65.4183 87.9156 66.9902 91.3937 69.135 94.5147L88.2896 122.387C90.3065 125.321 92.9528 127.769 96.0356 129.552C98.3422 130.885 100.855 131.824 103.471 132.33L120.177 135.561L205.207 146.458L235.656 150.211C244.729 151.329 253.487 154.252 261.414 158.807L333.954 202.756L348.366 208.931C352.837 210.621 357.472 211.842 362.197 212.572L376.229 214.742L522.269 218.01L537.632 218.01C553.427 218.01 568.998 214.268 583.068 207.091L622.192 187.136L639.235 177.4C642.28 175.66 645.458 174.163 648.738 172.923C656.279 170.072 664.274 168.611 672.336 168.611L685.604 168.611L706.261 168.611L724.279 168.611C726.356 168.611 728.43 168.451 730.482 168.133L741.229 166.466C744.383 165.977 747.236 164.317 749.22 161.816C750.04 160.783 750.694 159.628 751.158 158.393L758.598 138.592C761.142 131.821 765.244 125.744 770.572 120.853L772.699 118.9C774.833 116.941 776.646 114.661 778.074 112.141L778.399 111.568C780.552 107.77 781.684 103.479 781.684 99.1132C781.684 96.7844 781.362 94.4669 780.727 92.2264L780.138 90.1504C779.259 87.0474 777.676 84.189 775.511 81.7976C773.562 79.644 771.188 77.9187 768.537 76.7311L764.917 75.1093C761.382 73.5252 757.634 72.4651 753.792 71.9624L718.554 67.3512C713.297 66.6634 708.241 69.619 706.261 74.5369L705.036 77.0078C702.974 81.164 700.551 85.1305 697.794 88.8614L697.243 89.6056C694.296 93.5932 690.935 97.2577 687.217 100.538L686.304 101.343C682.966 104.288 679.307 106.848 675.397 108.977C671.327 111.193 667.012 112.925 662.539 114.139L660.502 114.692C653.887 116.488 647.063 117.397 640.208 117.397L639.45 117.397C631.508 117.397 623.608 116.26 615.989 114.02L610.182 112.312L602.178 108.682C597.924 106.752 593.936 104.281 590.313 101.332L589.858 100.961C585.503 97.4144 581.765 93.1707 578.797 88.4021L577.658 86.5714C576.286 84.3682 575.182 82.0099 574.367 79.546L573.081 75.6578C572.836 74.9158 572.711 74.1393 572.711 73.3578C572.711 69.3714 569.524 66.1166 565.538 66.0329L269.241 59.8116C264.945 59.7214 261.414 63.1793 261.414 67.4762C261.414 68.5411 261.192 69.5943 260.762 70.5687L258.254 76.2571C257.161 78.7368 255.8 81.0894 254.196 83.2732L252.936 84.9874C250.588 88.1834 247.91 91.1237 244.946 93.7596L244.644 94.0285C242.377 96.0454 239.943 97.8673 237.369 99.4749C232.611 102.447 227.418 104.659 221.977 106.03L218.956 106.791C212.068 108.527 204.966 109.26 197.869 108.966L186.147 108.48C177.758 108.133 169.458 106.611 161.491 103.961L153.279 99.8927C149.477 98.0094 145.886 95.7275 142.566 93.0854L142.143 92.7491C139.674 90.7838 137.382 88.6049 135.295 86.2376L133.122 83.7737C130.911 81.2652 129.098 78.431 127.749 75.3707L125.644 70.5954C125.207 69.6039 124.981 68.5322 124.981 67.4486C124.981 63.1405 121.488 59.6481 117.18 59.6481Z" stroke="#1169CC" stroke-width="3"/>
<path d="M270.061 135.892V96.8906C270.061 89.6246 273.256 82.7263 278.799 78.0277C283.384 74.1402 289.229 72.0564 295.24 72.1659L365.66 73.4484L476.631 75.6271L547.042 78.2396C551.943 78.4214 556.393 81.1491 558.779 85.4336L564.558 96.5017C565.507 98.3198 566.64 100.036 567.939 101.623L569.768 103.856C571.403 105.853 573.288 107.63 575.378 109.144L583.76 115.218L595.289 121.392L606.819 126.114L613.742 128.731C614.247 128.922 614.782 129.02 615.322 129.02C617.789 129.02 619.79 131.02 619.79 133.488V142.702C619.79 145.612 618.862 148.446 617.142 150.793L597.217 177.969C595.936 179.716 594.469 181.32 592.842 182.751L568.288 204.36C566.759 205.705 565.065 206.85 563.247 207.767C560.3 209.252 557.079 210.112 553.784 210.293L532.357 211.472L445.406 211.472L379.594 209.37C377.993 209.319 376.399 209.14 374.827 208.834L365.061 206.935C361.957 206.332 358.967 205.241 356.203 203.704L295.215 169.778C293.82 169.003 292.49 168.117 291.236 167.13L281.499 159.46C274.276 153.772 270.061 145.086 270.061 135.892Z" stroke="#1169CC" stroke-width="3"/>
<path d="M428.276 143.265L285.864 143.266C281.293 143.266 278.492 148.278 280.888 152.171C281.399 153.001 282.109 153.69 282.953 154.175L329.074 180.676L358.941 197.747L362.111 199.255C365.566 200.898 369.303 201.866 373.122 202.105L406.631 204.204L427.791 205.229C433.498 205.506 438.276 200.954 438.276 195.241V153.265C438.276 147.742 433.798 143.265 428.276 143.265Z" stroke="#1169CC" stroke-width="3"/>
<path d="M548.653 344.049L553.266 318.828C554.352 312.892 554.898 306.87 554.898 300.836V264.786C554.898 259.521 554.483 254.264 553.655 249.064L548.653 217.648" stroke="#1169CC" stroke-width="3"/>
<path d="M663.47 393.809L704.784 390.176L723.866 385.737C727.786 384.825 731.595 383.484 735.222 381.739L739.322 379.766C743.474 377.768 747.165 374.929 750.16 371.428V371.428C754.102 366.822 756.709 361.225 757.698 355.243L760.51 338.235L764.834 289.563V261.959L762.766 223.197C762.544 219.021 761.923 214.876 760.911 210.819L758.182 199.864C756.88 194.639 754.084 189.907 750.137 186.244V186.244C747.161 183.482 743.613 181.407 739.747 180.167L729.765 176.965L704.784 171.88L663.47 168.974" stroke="#1169CC" stroke-width="3"/>
<path d="M493.339 225.312L645.028 225.312" stroke="#1169CC" stroke-width="3"/>
<path d="M526.316 363.348V313.871" stroke="#1169CC" stroke-width="3"/>
<path d="M526.316 307.635V258.158" stroke="#1169CC" stroke-width="3"/>
<path d="M526.316 250.258V200.781" stroke="#1169CC" stroke-width="3"/>
<path d="M635.892 357.943L627.949 357.943C625.788 357.943 623.636 357.676 621.54 357.148L618.984 356.503C618.398 356.355 617.833 356.129 617.307 355.83L617.056 355.688C616.297 355.257 615.651 354.654 615.17 353.926C614.572 353.021 614.253 351.96 614.253 350.875V326.724C614.253 325.671 614.609 324.648 615.264 323.823C615.684 323.293 616.215 322.861 616.819 322.556L618.266 321.826C618.887 321.513 619.534 321.254 620.2 321.053L621.232 320.74C623.528 320.045 625.915 319.692 628.314 319.692L635.256 319.692C636.995 319.692 638.719 320.007 640.345 320.623L641.105 320.91C641.886 321.205 642.621 321.611 643.287 322.115L643.904 322.582C644.286 322.871 644.616 323.223 644.88 323.622C645.336 324.313 645.58 325.123 645.58 325.952V350.115C645.58 351.16 645.325 352.19 644.836 353.113C644.6 353.56 644.312 353.977 643.978 354.356L643.77 354.592C642.793 355.701 641.56 356.554 640.177 357.077L639.75 357.238C638.517 357.704 637.21 357.943 635.892 357.943Z" stroke="#1169CC" stroke-width="3"/>
<path d="M635.892 301.814L627.949 301.814C625.788 301.814 623.636 301.547 621.54 301.019L618.984 300.374C618.398 300.226 617.833 300 617.307 299.701L617.056 299.559C616.297 299.128 615.651 298.525 615.17 297.797C614.572 296.892 614.253 295.831 614.253 294.746V270.595C614.253 269.542 614.609 268.519 615.264 267.694C615.684 267.164 616.215 266.732 616.819 266.427L618.266 265.697C618.887 265.384 619.534 265.125 620.2 264.924L621.232 264.611C623.528 263.917 625.915 263.563 628.314 263.563L635.256 263.563C636.995 263.563 638.719 263.879 640.345 264.494L641.105 264.781C641.886 265.076 642.621 265.482 643.287 265.986L643.904 266.453C644.286 266.742 644.616 267.094 644.88 267.493C645.336 268.184 645.58 268.994 645.58 269.823V293.987C645.58 295.032 645.325 296.061 644.836 296.985C644.6 297.431 644.312 297.848 643.978 298.227L643.77 298.463C642.793 299.572 641.56 300.425 640.177 300.948L639.75 301.109C638.517 301.576 637.21 301.814 635.892 301.814Z" stroke="#1169CC" stroke-width="3"/>
<path d="M635.892 244.437L627.949 244.437C625.788 244.437 623.636 244.17 621.54 243.642L618.984 242.997C618.398 242.849 617.833 242.623 617.307 242.324L617.056 242.182C616.297 241.751 615.651 241.148 615.17 240.42C614.572 239.515 614.253 238.454 614.253 237.369V213.218C614.253 212.165 614.609 211.142 615.264 210.317C615.684 209.787 616.215 209.355 616.819 209.05L618.266 208.32C618.887 208.007 619.534 207.748 620.2 207.547L621.232 207.234C623.528 206.54 625.915 206.186 628.314 206.186L635.256 206.186C636.995 206.186 638.719 206.502 640.345 207.117L641.105 207.404C641.886 207.699 642.621 208.105 643.287 208.609L643.904 209.076C644.286 209.365 644.616 209.717 644.88 210.116C645.336 210.807 645.58 211.617 645.58 212.446V236.61C645.58 237.655 645.325 238.684 644.836 239.608C644.6 240.054 644.312 240.471 643.978 240.85L643.77 241.086C642.793 242.195 641.56 243.048 640.177 243.571L639.75 243.732C638.517 244.199 637.21 244.437 635.892 244.437Z" stroke="#1169CC" stroke-width="3"/>
<path d="M481.249 338.817L355.94 338.817M432.335 363.348V313.871M440.029 314.702V363.348" stroke="#1169CC" stroke-width="3"/>
<path d="M431.786 247.764V200.366M440.03 200.366V247.764" stroke="#1169CC" stroke-width="3"/>
<path d="M441.678 246.932L442.777 246.443M442.777 246.443L446.247 244.899C449.383 243.504 452.136 241.37 454.269 238.68L455.005 237.752C455.644 236.946 456.178 236.061 456.593 235.12V235.12C457.268 233.587 457.617 231.931 457.617 230.256V217.34C457.617 214.404 456.754 211.533 455.135 209.084V209.084C454.592 208.263 453.963 207.49 453.27 206.791V206.791C451.797 205.306 450.019 204.122 448.077 203.344L444.235 201.805C442.534 201.124 440.776 200.595 438.981 200.225V200.225C436.756 199.766 434.486 199.553 432.214 199.591L364.98 200.705C362.055 200.753 359.321 202.166 357.59 204.524V204.524V204.524C355.813 206.674 354.842 209.375 354.842 212.164V238.891C354.842 240.604 355.389 242.272 356.402 243.653V243.653C357.182 244.714 358.21 245.568 359.397 246.139L360.747 246.789C362.648 247.704 364.731 248.18 366.842 248.18L428.28 248.18C433.164 248.18 438.031 247.597 442.777 246.443V246.443Z" stroke="#1169CC" stroke-width="3"/>
<path d="M382.871 262.732L358.179 262.109C352.854 261.975 347.774 259.837 343.955 256.123C342.79 254.989 341.759 253.724 340.882 252.355L336.592 245.647C334.84 242.908 333.37 239.998 332.205 236.961L330.825 233.366C329.626 230.241 329.011 226.922 329.011 223.575C329.011 220.324 329.591 217.1 330.724 214.053L332.033 210.531C333.311 207.092 334.979 203.809 337.002 200.748L341.09 194.564C341.829 193.445 342.672 192.398 343.608 191.438C347.628 187.31 353.145 184.982 358.907 184.982L382.871 184.982L395.144 184.982C399.046 184.982 402.939 185.33 406.779 186.022L411.903 186.945C412.333 187.022 412.769 187.061 413.206 187.061C414.913 187.061 416.567 186.467 417.884 185.38L418.87 184.566C420.824 182.954 423.279 182.072 425.812 182.072L450.275 182.072C452.954 182.072 455.617 182.493 458.166 183.319L464.15 185.356C467.456 186.482 470.506 188.251 473.125 190.562L473.271 190.691C474.919 192.145 476.367 193.811 477.579 195.644C479.633 198.752 480.966 202.281 481.48 205.971L481.799 208.265V240.465C481.799 241.723 481.65 242.977 481.356 244.2C480.922 246.007 480.175 247.726 479.15 249.277L478.193 250.724C476.578 253.168 474.56 255.319 472.224 257.086L471.522 257.617C469.95 258.807 468.268 259.843 466.499 260.713L465.956 260.98C460.831 263.5 455.197 264.81 449.486 264.81L425.548 264.81C423.201 264.81 420.943 263.912 419.237 262.299C418.095 261.22 416.696 260.451 415.172 260.067L414.889 259.995C413.35 259.607 411.743 259.58 410.192 259.915L404.049 261.243C402.025 261.68 399.969 261.948 397.901 262.043L382.871 262.732Z" stroke="#1169CC" stroke-width="3"/>
<path d="M341.101 278.531L363.634 278.531V284.768L341.101 284.768" stroke="#1169CC" stroke-width="3"/>
<path d="M645.031 338.402L571.934 338.402L492.792 338.402" stroke="#1169CC" stroke-width="3"/>
<path d="M264.157 357.112V357.112C261.718 357.112 260.197 359.756 261.421 361.865L274.225 383.909C274.457 384.308 274.883 384.553 275.345 384.553V384.553C275.887 384.553 276.373 384.892 276.56 385.401L278.996 392.037" stroke="#1169CC" stroke-width="3"/>
<path d="M291.088 385.801L289.435 383.55C288.833 382.73 287.676 382.561 286.865 383.175L286.692 383.305C286.345 383.568 286.142 383.978 286.142 384.412V384.412C286.142 385.179 285.52 385.801 284.753 385.801L275.699 385.801" stroke="#1169CC" stroke-width="3"/>
<path d="M293.836 383.721V373.353C293.836 372.289 293.337 371.286 292.488 370.644V370.644C292.288 370.492 292.072 370.364 291.843 370.26L291.783 370.232C290.356 369.585 289.439 368.162 289.439 366.595V360.437L283.394 368.753" stroke="#1169CC" stroke-width="3"/>
<path d="M383.422 273.379C386.768 273.379 389.741 274.407 391.844 275.998C393.946 277.588 395.112 279.674 395.112 281.857C395.112 284.04 393.946 286.127 391.844 287.717C389.741 289.308 386.768 290.336 383.422 290.336C380.076 290.336 377.103 289.308 375 287.717C372.898 286.127 371.731 284.04 371.731 281.857C371.731 279.674 372.898 277.588 375 275.998C377.103 274.407 380.076 273.379 383.422 273.379Z" stroke="#1169CC" stroke-width="3"/>
<path d="M293.837 177.499L280.097 246.101M280.097 246.101V246.101C266.493 248.797 256.415 260.321 255.556 274.162L253.633 305.141M280.097 246.101V246.101C287.236 251.503 289.881 261.012 286.554 269.324L269.111 312.9C268.749 313.804 268.123 314.579 267.314 315.122V315.122C265.22 316.531 262.396 316.098 260.82 314.127L253.633 305.141M251.518 339.234L253.633 305.141" stroke="#1169CC" stroke-width="3"/>
<path d="M382.321 278.367C383.846 278.367 385.17 278.837 386.079 279.525C386.988 280.212 387.416 281.051 387.416 281.856C387.416 282.662 386.988 283.501 386.079 284.188C385.17 284.876 383.846 285.346 382.321 285.346C380.796 285.346 379.472 284.876 378.562 284.188C377.653 283.501 377.226 282.662 377.226 281.856C377.226 281.051 377.653 280.212 378.562 279.525C379.472 278.837 380.796 278.367 382.321 278.367Z" fill="#1169CC" stroke="#1169CC" stroke-width="3"/>
<path d="M377.924 281.857L363.635 281.857" stroke="#1169CC" stroke-width="3"/>
<path d="M481.25 240.281V240.281C477.997 241.921 474.406 242.775 470.763 242.775L467.51 242.775L465.824 242.775C463.078 242.775 460.491 241.488 458.837 239.297V239.297C457.689 237.777 457.067 235.924 457.067 234.019V214.403C457.067 212.324 457.826 210.316 459.2 208.756V208.756C459.969 207.884 460.907 207.179 461.957 206.682L462.47 206.439C463.979 205.726 465.627 205.356 467.297 205.356L469.309 205.356C472.813 205.356 476.257 206.265 479.304 207.994L481.25 209.098" stroke="#1169CC" stroke-width="3"/>
<path d="M481.25 356.42V356.42C478.006 358.237 474.351 359.191 470.633 359.191L467.51 359.191L466.41 359.191C463.316 359.191 460.423 357.66 458.684 355.101V355.101C457.631 353.552 457.067 351.722 457.067 349.849V327.385C457.067 325.246 457.791 323.17 459.12 321.494V321.494C459.941 320.459 460.969 319.607 462.139 318.992L462.394 318.858C463.949 318.041 465.68 317.614 467.437 317.614L469.318 317.614C472.804 317.614 476.22 318.601 479.169 320.46L481.25 321.772" stroke="#1169CC" stroke-width="3"/>
<path d="M481.25 356.697V356.697C477.997 358.337 474.406 359.191 470.763 359.191L467.51 359.191L465.824 359.191C463.078 359.191 460.491 357.904 458.837 355.713V355.713C457.689 354.193 457.067 352.34 457.067 350.435V330.819C457.067 328.74 457.826 326.732 459.2 325.172V325.172C459.969 324.3 460.907 323.595 461.957 323.098L462.47 322.855C463.979 322.142 465.627 321.772 467.297 321.772L469.309 321.772C472.813 321.772 476.257 322.681 479.304 324.41L481.25 325.514" stroke="#1169CC" stroke-width="3"/>
<path d="M421.343 263.979V248.179" stroke="#1169CC" stroke-width="3"/>
<path d="M483.448 223.648L329.011 223.648" stroke="#1169CC" stroke-width="3"/>
<path d="M256.913 348.39L253.513 342.256C252.565 340.546 252.067 338.623 252.067 336.667C252.067 334.539 252.657 332.452 253.77 330.638L256.934 325.483C258.446 323.019 260.276 320.764 262.377 318.778L262.692 318.48C264.762 316.523 267.055 314.816 269.525 313.396L279.024 307.935C279.372 307.735 279.736 307.563 280.112 307.421C283.072 306.301 286.417 307.154 288.479 309.554L290.357 311.74C291.56 313.14 292.413 314.807 292.845 316.603L294.4 323.075C295.121 326.075 295.486 329.15 295.486 332.235V344.457C295.486 348.155 294.87 351.827 293.665 355.323L292.833 357.736C292.405 358.977 291.811 360.154 291.068 361.235L287.783 366.015C286.151 368.388 283.171 369.434 280.415 368.599C279.839 368.425 279.29 368.173 278.782 367.851L269.964 362.247C267.204 360.493 264.678 358.396 262.448 356.005C260.299 353.702 258.44 351.145 256.913 348.39Z" stroke="#1169CC" stroke-width="3"/>
<path d="M420.793 298.072V298.072C422.589 296.985 424.654 296.425 426.753 296.455L447.035 296.744C450.781 296.797 454.512 297.242 458.166 298.072V298.072L464.844 300.368C468.414 301.596 471.692 303.548 474.473 306.102L475.241 306.808C477.035 308.456 478.533 310.398 479.672 312.551V312.551C481.425 315.867 482.274 319.587 482.132 323.335L481.071 351.446C480.83 357.813 478.47 363.932 474.38 368.818V368.818C471.669 372.056 468.27 374.661 464.437 376.433V376.433C461.739 377.681 458.862 378.5 455.911 378.862L440.029 380.81L433.783 380.81C431.367 380.81 428.966 380.431 426.668 379.686L424.617 379.021C423.18 378.555 421.846 377.82 420.685 376.854V376.854C418.289 374.86 415.205 373.889 412.099 374.15L412 374.158L403.756 375.405L388.917 377.484L356.554 377.484C353.016 377.484 349.647 375.977 347.289 373.34L344.417 370.129C341.145 366.47 335.451 366.367 332.049 369.906L331.58 370.394C330.29 371.736 328.508 372.495 326.646 372.495V372.495C324.348 372.495 322.203 371.342 320.936 369.424L318.357 365.523C317.405 364.083 316.7 362.495 316.27 360.823L314.726 354.814C313.628 350.542 313.072 346.149 313.072 341.738V341.08C313.072 337.088 313.486 333.106 314.308 329.2L316.312 319.672C316.713 317.764 317.491 315.956 318.601 314.353L320.72 311.293C322.126 309.262 324.439 308.05 326.909 308.05V308.05C328.625 308.05 330.289 308.636 331.626 309.711L331.891 309.924C335.486 312.813 340.728 312.307 343.703 308.784L346.919 304.976C349.504 301.916 353.305 300.151 357.311 300.151L388.917 300.151L403.756 301.814L410.901 303.477V303.477C414.51 304.222 418.191 302.571 420.037 299.38L420.793 298.072ZM420.793 298.072V298.072C420.793 306.78 427.443 314.047 436.116 314.819L439.48 315.118M439.48 315.118L444.168 316.996C447.237 318.225 450.012 320.087 452.313 322.461L453.835 324.031C454.52 324.737 455.091 325.546 455.528 326.427V326.427C456.179 327.74 456.517 329.186 456.517 330.651V345.441C456.517 349.672 454.628 353.682 451.364 356.375V356.375C450.77 356.865 450.137 357.306 449.471 357.694L446.616 359.355C444.431 360.627 442.105 361.639 439.685 362.371V362.371C436.634 363.295 433.463 363.764 430.275 363.764L366.241 363.764C363.837 363.764 361.499 362.979 359.581 361.529V361.529C357.921 360.273 356.65 358.573 355.914 356.625L355.693 356.04C355.13 354.549 354.842 352.969 354.842 351.375V323.525C354.842 322.373 355.123 321.239 355.661 320.22V320.22C356.544 318.552 358.057 317.306 359.863 316.759L361.137 316.373C362.065 316.093 363.028 315.945 363.998 315.934L439.48 315.118Z" stroke="#1169CC" stroke-width="3"/>
<path d="M553.278 131.348L466.07 131.348C465.57 131.348 465.076 131.241 464.621 131.034C463.368 130.466 462.563 129.217 462.563 127.841V90.7387C462.563 85.1711 467.111 80.6756 472.678 80.7394L533.589 81.4375C534.597 81.449 535.598 81.6132 536.558 81.9243L538.226 82.4649C538.713 82.6229 539.187 82.8181 539.645 83.0487L541.188 83.8269C541.897 84.1846 542.561 84.6255 543.166 85.1402L545.572 87.1884C546.288 87.7979 546.915 88.5054 547.434 89.29L553.744 98.8382C554.144 99.4435 554.609 100.003 555.131 100.508L566.487 111.505C567.536 112.521 568.31 113.786 568.736 115.183C569.378 117.287 569.191 119.556 568.214 121.527L567.121 123.732C566.668 124.646 566.078 125.485 565.371 126.221L564.155 127.485C562.777 128.919 561.002 129.909 559.059 130.329L555.391 131.122C554.696 131.272 553.988 131.348 553.278 131.348Z" stroke="#1169CC" stroke-width="3"/>
<path d="M553.754 430.703L466.084 430.703C465.584 430.703 465.09 430.809 464.635 431.015C463.374 431.584 462.563 432.84 462.563 434.223V471.313C462.563 476.88 467.11 481.375 472.678 481.312L533.968 480.613C534.972 480.602 535.968 480.439 536.924 480.131L538.62 479.584C539.105 479.427 539.578 479.233 540.035 479.005L541.597 478.22C542.306 477.865 542.97 477.426 543.575 476.914L546.001 474.86C546.719 474.252 547.347 473.546 547.868 472.762L554.212 463.212C554.614 462.607 555.081 462.048 555.604 461.544L567.026 450.54C568.076 449.528 568.852 448.265 569.279 446.871C569.925 444.766 569.737 442.493 568.755 440.522L567.658 438.32C567.202 437.405 566.609 436.566 565.899 435.831L564.665 434.554C563.287 433.128 561.515 432.143 559.576 431.726L555.856 430.927C555.165 430.778 554.461 430.703 553.754 430.703Z" stroke="#1169CC" stroke-width="3"/>
<path d="M437.993 428.625L287.194 428.625C286.506 428.625 285.83 428.814 285.241 429.17C284.097 429.863 283.405 431.11 283.423 432.448L283.815 461.557C283.897 467.579 286.574 473.273 291.161 477.177C295.011 480.454 299.92 482.222 304.975 482.154L417.238 480.644C419.593 480.613 421.927 480.201 424.15 479.425L425.802 478.847C427.214 478.355 428.524 477.609 429.669 476.647C431.754 474.894 433.199 472.501 433.779 469.841L441.753 433.294C442.046 431.949 441.599 430.549 440.58 429.624C439.872 428.981 438.95 428.625 437.993 428.625Z" stroke="#1169CC" stroke-width="3"/>
<path d="M438.519 133.843L287.213 133.843C286.518 133.843 285.837 133.653 285.244 133.292C284.097 132.595 283.405 131.344 283.423 130.002L283.817 100.607C283.899 94.5679 286.577 88.8563 291.168 84.9321C295.044 81.6197 299.992 79.8309 305.09 79.8998L417.696 81.4205C420.062 81.4525 422.407 81.8681 424.64 82.651L426.287 83.2284C427.709 83.7271 429.028 84.4811 430.18 85.4533C432.269 87.2166 433.716 89.6211 434.296 92.2924L442.303 129.149C442.596 130.498 442.149 131.902 441.128 132.832C440.415 133.483 439.484 133.843 438.519 133.843Z" stroke="#1169CC" stroke-width="3"/>
<path d="M298.359 441.624L308.071 445.799C309.427 446.382 310.438 444.482 309.198 443.683C308.261 443.079 308.578 441.635 309.682 441.48L321.005 439.894C321.21 439.865 321.407 439.795 321.585 439.688L321.747 439.59C322.729 438.995 322.643 437.543 321.597 437.068C321.412 436.984 321.211 436.94 321.007 436.94L302.781 436.94C302.316 436.94 301.852 436.998 301.4 437.112L298.663 437.802C297.764 438.029 297.134 438.837 297.134 439.765C297.134 440.574 297.615 441.305 298.359 441.624Z" stroke="#1169CC" stroke-width="3"/>
<path d="M475.879 441.624L485.592 445.799C486.947 446.382 487.959 444.482 486.718 443.683C485.781 443.079 486.099 441.635 487.203 441.48L498.526 439.894C498.731 439.865 498.928 439.795 499.105 439.688L499.267 439.59C500.25 438.995 500.164 437.543 499.118 437.068C498.933 436.984 498.731 436.94 498.528 436.94L480.302 436.94C479.836 436.94 479.372 436.998 478.921 437.112L476.184 437.802C475.284 438.029 474.654 438.837 474.654 439.765C474.654 440.574 475.136 441.305 475.879 441.624Z" stroke="#1169CC" stroke-width="3"/>
<path d="M548.999 453.66L548.018 454.897C546.807 456.423 544.966 457.313 543.018 457.313L512.05 457.313C508.376 457.313 504.708 457.6 501.079 458.172L480.781 461.371C480.361 461.437 479.936 461.471 479.511 461.471L473.63 461.471C472.374 461.471 471.356 460.453 471.356 459.197C471.356 458.104 472.134 457.166 473.208 456.963L502.956 451.337C505.334 450.887 507.749 450.661 510.169 450.661L547.549 450.661C548.571 450.661 549.399 451.489 549.399 452.511C549.399 452.928 549.258 453.333 548.999 453.66Z" stroke="#1169CC" stroke-width="3"/>
<path d="M547.202 453.986L514.879 453.986C509.324 453.986 503.779 454.449 498.3 455.37L471.907 459.807" stroke="#1169CC" stroke-width="3"/>
<path d="M478.056 118.501L488.143 114.374C489.478 113.828 490.43 115.705 489.2 116.46C488.259 117.037 488.564 118.476 489.659 118.622L501.239 120.167C501.43 120.192 501.614 120.255 501.781 120.351L501.935 120.44C502.925 121.01 502.841 122.465 501.792 122.919C501.618 122.994 501.431 123.033 501.241 123.033L482.577 123.033C482.127 123.033 481.679 122.98 481.241 122.875L478.337 122.178C477.467 121.968 476.853 121.19 476.853 120.294C476.853 119.508 477.328 118.799 478.056 118.501Z" stroke="#1169CC" stroke-width="3"/>
<path d="M549.005 107.338L548.1 106.109C546.844 104.403 544.851 103.395 542.731 103.395L512.185 103.395C508.422 103.395 504.666 103.079 500.956 102.449L480.824 99.0323C480.375 98.9562 479.921 98.918 479.467 98.918L473.821 98.918C472.46 98.918 471.356 100.021 471.356 101.382C471.356 102.554 472.181 103.563 473.329 103.797L502.684 109.776C505.242 110.297 507.846 110.56 510.456 110.56L547.377 110.56C548.494 110.56 549.399 109.654 549.399 108.537C549.399 108.106 549.261 107.686 549.005 107.338Z" stroke="#1169CC" stroke-width="3"/>
<path d="M547.201 107.232L516.416 107.232C510.039 107.232 503.676 106.622 497.415 105.411L472.456 100.58" stroke="#1169CC" stroke-width="3"/>
<path d="M297.788 120.163L307.875 116.036C309.21 115.49 310.162 117.367 308.933 118.122C307.992 118.699 308.297 120.139 309.391 120.285L320.971 121.829C321.162 121.854 321.347 121.917 321.514 122.013L321.667 122.102C322.657 122.672 322.574 124.128 321.525 124.581C321.351 124.656 321.163 124.695 320.973 124.695L302.31 124.695C301.86 124.695 301.411 124.642 300.973 124.537L298.07 123.84C297.199 123.631 296.585 122.852 296.585 121.956C296.585 121.17 297.06 120.461 297.788 120.163Z" stroke="#1169CC" stroke-width="3"/>
<path d="M382.871 460.64L309.501 468.569C307.165 468.821 304.805 468.419 302.685 467.406L296.734 464.562C295.971 464.198 295.485 463.428 295.485 462.582C295.485 461.473 296.313 460.539 297.414 460.404L380.673 450.245L423.93 450.245C424.402 450.245 424.871 450.31 425.324 450.439L427.256 450.987C428.31 451.286 429.038 452.248 429.038 453.344C429.038 454.251 428.536 455.084 427.734 455.509L421.257 458.939C419.148 460.056 416.798 460.639 414.412 460.639L382.871 460.64Z" stroke="#1169CC" stroke-width="3"/>
<path d="M297.684 464.796L383.228 453.986L429.587 453.986" stroke="#1169CC" stroke-width="3"/>
<path d="M384.331 102.428L310.731 94.3304C308.339 94.0673 305.922 94.4861 303.759 95.5385L297.853 98.4113C297.077 98.7885 296.585 99.5751 296.585 100.437C296.585 101.574 297.432 102.533 298.56 102.673L382.123 113.053L425.544 113.053C426.027 113.053 426.507 112.985 426.971 112.851L428.866 112.304C429.944 111.993 430.687 111.005 430.687 109.883C430.687 108.956 430.178 108.104 429.362 107.664L422.929 104.196C420.777 103.035 418.369 102.428 415.924 102.428L384.331 102.428Z" stroke="#1169CC" stroke-width="3"/>
<path d="M298.782 98.0864L383.613 108.896L429.587 108.896" stroke="#1169CC" stroke-width="3"/>
<path d="M645.03 282.273L492.242 282.273" stroke="#1169CC" stroke-width="3"/>
<path d="M604.044 388.768L559.271 389.395C552.343 389.492 545.424 388.869 538.624 387.535L534.012 386.631L531.544 385.939C523.359 383.646 515.639 379.94 508.73 374.989L502.545 369.14C500.812 367.501 499.273 365.669 497.958 363.679C494.588 358.581 492.792 352.606 492.792 346.495V215.553C492.792 212.375 493.272 209.216 494.216 206.182C494.731 204.524 495.383 202.912 496.164 201.361L496.983 199.733C498.579 196.566 500.596 193.629 502.982 191.004C504.612 189.21 506.406 187.571 508.339 186.109L512.578 182.902L513.173 182.565C518.626 179.47 524.359 176.896 530.294 174.875L532.363 174.171C537.473 172.791 542.735 172.055 548.027 171.98L593.856 171.338C597.555 171.287 601.252 171.539 604.91 172.092L611.811 173.628C613.436 173.989 615.029 174.484 616.573 175.107L617.111 175.324C620.663 176.757 623.877 178.914 626.549 181.657L626.84 181.956C629.055 184.23 630.823 186.899 632.054 189.824C633.364 192.939 634.039 196.284 634.039 199.664V355.863V362.239C634.039 365.7 633.213 369.111 631.631 372.188C630.676 374.046 629.459 375.756 628.017 377.266L626.653 378.696C624.263 381.198 621.496 383.31 618.452 384.955L618.235 385.073C616.319 386.108 614.298 386.937 612.206 387.546C609.552 388.318 606.807 388.729 604.044 388.768Z" stroke="#1169CC" stroke-width="3"/>
<path d="M568.635 362.516V314.702" stroke="#1169CC" stroke-width="3"/>
<path d="M562.589 363.348V314.287" stroke="#1169CC" stroke-width="3"/>
<path d="M568.635 306.803V258.989" stroke="#1169CC" stroke-width="3"/>
<path d="M562.589 307.635V258.574" stroke="#1169CC" stroke-width="3"/>
<path d="M568.36 250.258V201.195" stroke="#1169CC" stroke-width="3"/>
<path d="M562.589 251.09V202.029" stroke="#1169CC" stroke-width="3"/>
<path d="M643.93 377.484L655.066 384.104C657.85 385.758 661.027 386.631 664.265 386.631V386.631L678.005 386.631L689.546 385.799L717.153 380.578C720.726 379.902 724.232 378.916 727.633 377.629V377.629C731.544 376.15 735.296 374.282 738.833 372.052L740.109 371.247L740.46 370.953C743.503 368.394 746.107 365.355 748.167 361.955V361.955C750.111 358.745 751.548 355.253 752.425 351.604L753.3 347.964L756.048 328.838L758.246 309.297V248.179L757.147 229.053L754.948 214.085L751.289 201.28C750.8 199.57 750.075 197.935 749.135 196.424V196.424C747.19 193.297 744.384 190.796 741.054 189.222L739.128 188.311C737.952 187.755 736.736 187.287 735.49 186.91L726.369 184.15L712.629 180.824L696.141 178.329L680.203 177.497L663.458 176.774C661.804 176.702 660.148 176.843 658.53 177.193V177.193C657.591 177.396 656.669 177.668 655.77 178.008L654.829 178.364C652.698 179.17 650.657 180.196 648.738 181.424L644.479 184.15" stroke="#1169CC" stroke-width="3"/>
<path d="M195.158 463.722C221.916 463.779 243.56 485.513 243.503 512.266C243.445 539.019 221.708 560.661 194.951 560.604C168.194 560.547 146.55 538.813 146.607 512.06C146.664 485.307 168.401 463.666 195.158 463.722Z" stroke="#1169CC" stroke-width="3"/>
<path d="M195.051 488.64C208.016 488.667 218.503 499.198 218.475 512.16C218.447 525.122 207.915 535.608 194.951 535.58C181.986 535.553 171.499 525.022 171.527 512.06C171.555 499.098 182.087 488.612 195.051 488.64Z" stroke="#1169CC" stroke-width="3"/>
<path d="M639.921 459.585C668.363 459.639 691.071 480.213 691.011 505.189C690.951 530.165 668.145 550.652 639.703 550.598C611.26 550.544 588.553 529.97 588.613 504.994C588.672 480.019 611.478 459.531 639.921 459.585Z" stroke="#1169CC" stroke-width="3"/>
<path d="M639.808 483.038C653.698 483.064 664.634 493.093 664.605 505.088C664.576 517.084 653.593 527.071 639.703 527.044C625.813 527.018 614.877 516.989 614.906 504.994C614.935 492.998 625.918 483.011 639.808 483.038Z" stroke="#1169CC" stroke-width="3"/>
<path d="M637.158 7.72442C663.916 7.78134 685.56 29.5154 685.503 56.2684C685.445 83.0214 663.708 104.663 636.951 104.606C610.194 104.549 588.55 82.8153 588.607 56.0623C588.664 29.3093 610.401 7.6675 637.158 7.72442Z" stroke="#1169CC" stroke-width="3"/>
<path d="M637.051 32.6415C650.016 32.6691 660.503 43.1997 660.475 56.1619C660.447 69.1241 649.915 79.61 636.951 79.5824C623.986 79.5548 613.499 69.0242 613.527 56.062C613.555 43.0998 624.087 32.6139 637.051 32.6415Z" stroke="#1169CC" stroke-width="3"/>
<path d="M195.158 1.72246C221.916 1.77938 243.56 23.5135 243.503 50.2664C243.445 77.0194 221.708 98.6612 194.951 98.6043C168.194 98.5474 146.55 76.8133 146.607 50.0603C146.664 23.3073 168.401 1.66554 195.158 1.72246Z" stroke="#1169CC" stroke-width="3"/>
<path d="M195.051 26.6396C208.016 26.6671 218.503 37.1978 218.475 50.1599C218.447 63.1221 207.915 73.6081 194.951 73.5805C181.986 73.5529 171.499 63.0223 171.527 50.0601C171.555 37.0979 182.087 26.612 195.051 26.6396Z" stroke="#1169CC" stroke-width="3"/>
</svg>
