<svg width="782" height="554" viewBox="0 0 782 554" fill="none" xmlns="http://www.w3.org/2000/svg">
<path d="M180.424 400.609L235.888 402.102C237.173 402.136 238.443 401.829 239.57 401.211C242.953 399.355 244.29 395.175 242.612 391.7L236.619 379.296C235.957 377.926 235.441 376.49 235.079 375.012L227.943 345.898L225.673 333.947C225.384 332.422 225.213 330.876 225.163 329.324L224.383 305.316L224.507 247.301L225.912 229.508L229.152 206.38L236.057 174.718L238.83 165.135C240.617 158.958 237.222 152.468 231.128 150.414C229.9 150 228.613 149.788 227.317 149.785L190.532 149.707L151.325 154.606L122.463 161.171C121.034 161.496 119.631 161.925 118.264 162.455L90.8687 173.085C88.6132 173.96 86.4718 175.104 84.4913 176.494L71.8473 185.364C69.7958 186.803 67.9327 188.494 66.3016 190.396L60.9748 196.609C59.4688 198.365 58.2032 200.314 57.2115 202.405C56.0776 204.795 55.3141 207.344 54.9471 209.963L52.2609 229.139L50.8555 246.932L50.7314 304.946L51.9295 327.326C52.0072 328.779 52.1904 330.223 52.4777 331.649L54.6206 342.283C55.0076 344.204 55.6238 346.071 56.456 347.845C57.7274 350.555 59.4849 353.008 61.6414 355.084L66.3319 359.598C67.6981 360.913 69.1859 362.096 70.7753 363.13L84.9632 372.36C86.3499 373.263 87.8088 374.048 89.3251 374.71L117.751 387.114C119.137 387.719 120.566 388.218 122.027 388.607L150.808 396.274L180.424 400.609Z" stroke="#1169CC" stroke-width="3"/>
<path d="M607.52 379.805L616.484 352.837C618.151 347.824 619.417 342.686 620.272 337.472L624.529 311.504L626.88 278.053L624.669 246.016L620.661 218.212C619.743 211.841 618.211 205.573 616.088 199.496L607.955 176.22" stroke="#1169CC" stroke-width="3"/>
<path d="M183.021 454.351C209.778 454.408 231.422 476.142 231.365 502.895C231.308 529.648 209.571 551.29 182.813 551.233C156.056 551.176 134.412 529.442 134.469 502.689C134.526 475.936 156.263 454.294 183.021 454.351Z" stroke="#1169CC" stroke-width="3"/>
<path d="M182.913 479.268C195.878 479.296 206.365 489.827 206.337 502.789C206.31 515.751 195.778 526.237 182.813 526.209C169.849 526.182 159.362 515.651 159.389 502.689C159.417 489.727 169.949 479.241 182.913 479.268Z" stroke="#1169CC" stroke-width="3"/>
<path d="M604.582 448.357C631.339 448.414 652.984 470.148 652.927 496.901C652.869 523.654 631.132 545.296 604.375 545.239C577.618 545.182 555.973 523.448 556.031 496.695C556.088 469.942 577.825 448.3 604.582 448.357Z" stroke="#1169CC" stroke-width="3"/>
<path d="M604.475 473.274C617.44 473.302 627.927 483.833 627.899 496.795C627.871 509.757 617.339 520.243 604.375 520.215C591.41 520.188 580.923 509.657 580.951 496.695C580.979 483.733 591.51 473.247 604.475 473.274Z" stroke="#1169CC" stroke-width="3"/>
<path d="M604.583 10.8729C631.34 10.9298 652.985 32.6639 652.927 59.4168C652.87 86.1698 631.133 107.812 604.376 107.755C577.619 107.698 555.974 85.9637 556.032 59.2107C556.089 32.4577 577.826 10.8159 604.583 10.8729Z" stroke="#1169CC" stroke-width="3"/>
<path d="M604.476 35.7899C617.441 35.8175 627.928 46.3482 627.9 59.3103C627.872 72.2725 617.34 82.7584 604.376 82.7309C591.411 82.7033 580.924 72.1726 580.952 59.2105C580.98 46.2483 591.511 35.7624 604.476 35.7899Z" stroke="#1169CC" stroke-width="3"/>
<path d="M183.022 1.88457C209.779 1.94149 231.423 23.6756 231.366 50.4286C231.309 77.1815 209.572 98.8233 182.814 98.7664C156.057 98.7095 134.413 76.9754 134.47 50.2224C134.527 23.4695 156.264 1.82765 183.022 1.88457Z" stroke="#1169CC" stroke-width="3"/>
<path d="M182.914 26.8017C195.879 26.8292 206.366 37.3599 206.338 50.3221C206.311 63.2842 195.779 73.7702 182.814 73.7426C169.85 73.715 159.363 63.1844 159.39 50.2222C159.418 37.26 169.95 26.7741 182.914 26.8017Z" stroke="#1169CC" stroke-width="3"/>
<path d="M33.7358 368.264L28.3041 368.253C21.7529 368.239 15.828 364.358 13.1978 358.358L10.8408 352.981C10.0938 351.277 9.53534 349.496 9.17523 347.671L6.0642 331.902L3.35464 317.954C2.12043 311.6 1.50592 305.142 1.51976 298.67L1.61665 253.358C1.62797 248.063 2.05973 242.778 2.90787 237.552L6.31078 216.584L12.3642 191.683L13.9285 187.687C16.3429 181.52 22.2954 177.467 28.9182 177.481L34.1437 177.492C35.2849 177.495 36.3733 177.973 37.147 178.812C37.8471 179.571 38.2347 180.566 38.2325 181.599L38.2141 190.212C38.212 191.204 37.8978 192.17 37.3161 192.974L36.9312 193.506C36.2813 194.404 35.2394 194.935 34.1311 194.932C32.477 194.929 31.0535 196.101 30.7392 197.725L27.0804 216.628L23.3264 245.45L23.2084 300.636C23.1973 305.836 23.5917 311.028 24.3881 316.166L26.8339 331.946L30.3208 347.638C30.6875 349.289 32.1499 350.465 33.8409 350.468C34.9307 350.471 35.9612 350.965 36.6456 351.813L36.8839 352.108C37.5189 352.895 37.8642 353.876 37.862 354.887L37.8421 364.175C37.8399 365.208 37.448 366.201 36.7447 366.957C35.9675 367.793 34.877 368.267 33.7358 368.264Z" stroke="#1169CC" stroke-width="3"/>
<path d="M747.009 368.001L752.441 368.013C758.992 368.027 764.934 364.171 767.589 358.182L769.969 352.816C770.724 351.115 771.29 349.337 771.658 347.513L774.836 331.757L777.605 317.821C778.867 311.473 779.509 305.017 779.523 298.545L779.62 253.233C779.631 247.938 779.222 242.652 778.396 237.422L775.083 216.44L769.136 191.513L767.589 187.51C765.201 181.333 759.266 177.255 752.643 177.241L747.417 177.23C746.276 177.227 745.186 177.701 744.408 178.536C743.705 179.292 743.313 180.286 743.311 181.319L743.292 189.931C743.29 190.924 743.6 191.892 744.179 192.698L744.561 193.231C745.207 194.132 746.247 194.667 747.355 194.67C749.009 194.673 750.428 195.851 750.735 197.476L754.313 216.395L757.944 245.233L757.826 300.419C757.815 305.618 757.398 310.809 756.58 315.944L754.067 331.713L750.513 347.39C750.139 349.04 748.671 350.209 746.98 350.205C745.891 350.203 744.858 350.693 744.17 351.538L743.93 351.832C743.292 352.616 742.943 353.596 742.94 354.607L742.921 363.895C742.918 364.928 743.306 365.923 744.006 366.682C744.78 367.521 745.868 367.999 747.009 368.001Z" stroke="#1169CC" stroke-width="3"/>
<path d="M557.586 412.088L444.27 411.847C438.747 411.836 434.279 407.349 434.291 401.826L434.372 363.812C434.384 358.289 438.871 353.821 444.394 353.833L517.627 353.989C523.062 354 528.344 355.793 532.663 359.091C533.985 360.101 535.202 361.24 536.296 362.493L565.139 395.509C570.795 401.985 566.184 412.107 557.586 412.088Z" stroke="#1169CC" stroke-width="3"/>
<path d="M426.659 346.675L426.374 480.145" stroke="#1169CC" stroke-width="3"/>
<path d="M712.772 402.097L686.394 402.041C685.779 402.039 685.194 402.308 684.794 402.774V402.774C684.109 403.574 684.121 404.757 684.822 405.542L686.11 406.986C686.551 407.479 687.099 407.865 687.713 408.113L719.568 420.975" stroke="#1169CC" stroke-width="3"/>
<path d="M110.098 494.421L80.377 494.358C77.9714 494.353 75.5719 494.116 73.2118 493.65L70.9949 493.212C69.9813 493.012 68.9902 492.711 68.0363 492.315L67.5218 492.101C63.8305 490.565 60.952 487.553 59.5864 483.795C58.6202 481.137 58.4654 478.252 59.1415 475.505L60.435 470.251C61.3266 466.63 62.8429 463.191 64.9157 460.09L83.1681 432.786C85.0433 429.981 87.522 427.63 90.4227 425.906C92.641 424.588 95.0684 423.659 97.5999 423.159L113.382 420.041L194.077 409.535L222.873 405.931C231.545 404.846 239.903 401.992 247.429 397.547L310.284 358.402C314.319 355.889 318.527 353.667 322.878 351.753L330.03 348.606C334.275 346.959 338.685 345.771 343.183 345.062L356.477 342.968L495.041 340.059L507.686 340.086C523.927 340.121 539.916 344.111 554.269 351.711L589.778 370.514L605.974 380.116C608.828 381.809 611.814 383.268 614.902 384.482C622.068 387.297 629.697 388.751 637.396 388.767L649.902 388.794L669.501 388.835L686.552 388.872C688.551 388.876 690.546 389.039 692.519 389.359L702.537 390.986C705.611 391.485 708.378 393.141 710.271 395.615C711.029 396.606 711.63 397.708 712.054 398.881L719.148 418.509C721.512 425.05 725.364 430.953 730.401 435.749L732.361 437.615C734.426 439.583 736.174 441.859 737.541 444.362L737.795 444.828C739.849 448.589 740.921 452.808 740.912 457.094C740.907 459.373 740.597 461.64 739.989 463.836L739.396 465.98C738.575 468.946 737.093 471.687 735.06 473.997C733.18 476.133 730.874 477.851 728.289 479.041L725.008 480.551C721.616 482.112 718.009 483.156 714.308 483.648L681.186 488.053C676.076 488.732 671.165 485.825 669.303 481.018L668.113 478.525C666.188 474.494 663.917 470.638 661.325 467L660.721 466.153C657.972 462.294 654.823 458.735 651.327 455.536L650.363 454.654C647.243 451.8 643.81 449.309 640.128 447.228C636.249 445.036 632.12 443.315 627.832 442.103L626.009 441.588C619.714 439.809 613.206 438.9 606.666 438.886L606.004 438.885C598.473 438.869 590.981 439.965 583.77 442.138L583.338 442.268C579.935 443.294 576.61 444.562 573.388 446.063L570.735 447.299C566.623 449.216 562.778 451.661 559.299 454.574L559.029 454.801C554.817 458.327 551.216 462.524 548.371 467.223L547.338 468.93C546.017 471.111 544.955 473.438 544.172 475.865L542.943 479.676C542.714 480.387 542.596 481.129 542.595 481.875C542.586 485.799 539.444 488.996 535.521 489.073L254.931 494.562C250.7 494.645 247.229 491.233 247.238 487.002C247.24 485.984 247.036 484.976 246.638 484.039L244.272 478.462C243.231 476.009 241.929 473.675 240.389 471.5L239.247 469.887C237.015 466.736 234.459 463.827 231.621 461.209L231.338 460.948C229.221 458.995 226.942 457.225 224.525 455.659C219.996 452.724 215.029 450.53 209.809 449.159L207.087 448.444C200.525 446.721 193.744 445.986 186.966 446.261L171.995 446.87C166.636 447.088 161.337 448.078 156.262 449.81C153.765 450.662 151.332 451.69 148.981 452.886L144.776 455.026C141.123 456.886 137.68 459.133 134.508 461.729L134.187 461.992C131.804 463.943 129.597 466.099 127.593 468.437L125.612 470.747C123.47 473.245 121.72 476.054 120.422 479.078L118.42 483.74C118.011 484.693 117.799 485.718 117.797 486.755C117.788 490.998 114.341 494.43 110.098 494.421Z" stroke="#1169CC" stroke-width="3"/>
<path d="M255.585 420.019L255.502 458.669C255.488 465.527 258.433 472.057 263.583 476.586C268.029 480.495 273.772 482.606 279.69 482.507L346.154 481.398L451.444 479.487L518.064 477.075C522.822 476.903 527.134 474.228 529.402 470.043L534.889 459.246C535.806 457.442 536.903 455.734 538.164 454.151L539.784 452.116C541.394 450.094 543.258 448.289 545.33 446.745L553.165 440.908L564.117 434.881L575.065 430.277L581.623 427.732C582.113 427.542 582.633 427.446 583.158 427.447C585.488 427.452 587.381 425.567 587.386 423.237L587.406 413.962C587.412 411.163 586.548 408.432 584.932 406.146L566.116 379.519C564.869 377.755 563.436 376.132 561.841 374.676L538.634 353.492C537.212 352.194 535.629 351.085 533.923 350.192C531.115 348.723 528.027 347.867 524.864 347.68L504.599 346.486L422.103 346.31L359.86 348.232C358.208 348.283 356.563 348.47 354.942 348.792L346.217 350.525C343.039 351.156 339.984 352.298 337.171 353.906L279.637 386.797C278.235 387.599 276.9 388.512 275.645 389.528L266.704 396.77C259.688 402.452 255.604 410.992 255.585 420.019Z" stroke="#1169CC" stroke-width="3"/>
<path d="M392.775 419.924L418.299 419.978" stroke="#1169CC" stroke-width="3"/>
<path d="M545.006 420.248L570.529 420.302" stroke="#1169CC" stroke-width="3"/>
<path d="M405.578 413.544L271.192 413.258C266.723 413.248 263.967 408.374 266.263 404.539C266.757 403.715 267.449 403.027 268.276 402.539L312.051 376.685L340.423 360.017L343.049 358.734C346.583 357.008 350.421 355.993 354.346 355.747L385.683 353.787L405.207 352.851C410.92 352.577 415.698 357.141 415.686 362.86L415.599 403.565C415.587 409.088 411.1 413.556 405.578 413.544Z" stroke="#1169CC" stroke-width="3"/>
<path d="M81.9014 434.566L107.139 434.62C107.899 434.621 108.62 434.956 109.112 435.535V435.535C109.751 436.286 109.909 437.335 109.52 438.241L108.995 439.464C108.56 440.476 107.788 441.305 106.809 441.809L62.2383 464.777" stroke="#1169CC" stroke-width="3"/>
<path d="M558.16 144.081L444.843 143.84C439.32 143.828 434.833 148.296 434.821 153.818L434.74 191.833C434.728 197.356 439.196 201.842 444.719 201.854L517.953 202.01C523.387 202.022 528.676 200.252 533.01 196.971C534.336 195.967 535.558 194.833 536.658 193.585L565.641 160.692C571.325 154.241 566.757 144.099 558.16 144.081Z" stroke="#1169CC" stroke-width="3"/>
<path d="M426.954 208.936L427.239 75.4668" stroke="#1169CC" stroke-width="3"/>
<path d="M713.3 154.734L686.923 154.678C686.308 154.677 685.724 154.406 685.326 153.938V153.938C684.644 153.136 684.661 151.953 685.365 151.17L686.66 149.732C687.103 149.24 687.653 148.857 688.268 148.612L720.177 135.885" stroke="#1169CC" stroke-width="3"/>
<path d="M111.027 59.845L81.3067 59.7818C78.9011 59.7767 76.5006 60.0037 74.1385 60.4596L71.9198 60.8878C70.9054 61.0837 69.913 61.3801 68.9574 61.7728L68.442 61.9846C64.7441 63.5041 61.8528 66.5045 60.4711 70.256C59.4936 72.9101 59.3264 75.7947 59.9908 78.5439L61.2618 83.8034C62.1379 87.4289 63.6394 90.8738 65.699 93.9835L83.8344 121.365C85.6976 124.178 88.1662 126.539 91.0596 128.275C93.2722 129.603 95.6956 130.543 98.2249 131.054L113.993 134.238L194.643 145.088L223.423 148.814C232.091 149.936 240.436 152.825 247.943 157.302L310.63 196.715C314.654 199.245 318.853 201.485 323.196 203.417L330.334 206.594C334.572 208.26 338.977 209.466 343.472 210.194L356.757 212.345L495.307 215.843L507.952 215.87C524.193 215.905 540.199 211.983 554.584 204.444L590.174 185.792L606.41 176.258C609.272 174.578 612.264 173.131 615.357 171.931C622.535 169.146 630.17 167.725 637.87 167.742L650.375 167.768L669.974 167.81L687.025 167.846C689.024 167.85 691.02 167.696 692.994 167.384L703.019 165.8C706.095 165.314 708.87 163.669 710.773 161.203C711.535 160.216 712.141 159.117 712.57 157.945L719.747 138.348C722.139 131.816 726.017 125.931 731.074 121.155L733.042 119.298C735.116 117.339 736.873 115.071 738.251 112.573L738.507 112.109C740.577 108.356 741.667 104.141 741.676 99.8554C741.681 97.5772 741.381 95.3086 740.782 93.1102L740.198 90.9629C739.39 87.9937 737.919 85.2464 735.897 82.9277C734.026 80.7838 731.727 79.0559 729.147 77.8555L725.873 76.3316C722.487 74.7562 718.885 73.6969 715.186 73.1889L682.083 68.6431C676.976 67.9418 672.053 70.8282 670.171 75.6272L668.969 78.1155C667.027 82.1379 664.74 85.9842 662.132 89.611L661.525 90.4557C658.759 94.3033 655.595 97.8484 652.086 101.032L651.118 101.91C647.986 104.751 644.542 107.228 640.852 109.292C636.962 111.468 632.827 113.171 628.533 114.365L626.708 114.872C620.406 116.625 613.894 117.506 607.353 117.492L606.692 117.491C599.161 117.475 591.673 116.346 584.472 114.143L584.04 114.011C580.642 112.971 577.322 111.688 574.107 110.174L571.459 108.926C567.355 106.992 563.521 104.53 560.055 101.603L559.785 101.375C555.589 97.8309 552.006 93.6183 549.18 88.9074L548.154 87.1965C546.843 85.0099 545.791 82.6781 545.018 80.2482L543.806 76.4313C543.579 75.7198 543.465 74.9776 543.467 74.231C543.475 70.3076 540.347 67.0968 536.424 67.0034L255.86 60.3204C251.63 60.2196 248.144 63.6163 248.135 67.8475C248.132 68.8657 247.924 69.8729 247.522 70.8085L245.132 76.3745C244.081 78.8234 242.769 81.152 241.22 83.3203L240.07 84.9282C237.825 88.0698 235.257 90.9676 232.408 93.574L232.124 93.8339C229.998 95.7781 227.711 97.5379 225.288 99.0942C220.747 102.01 215.77 104.183 210.544 105.531L207.819 106.234C201.25 107.929 194.466 108.636 187.689 108.332L172.721 107.659C167.363 107.419 162.068 106.406 157 104.652C154.507 103.79 152.079 102.751 149.733 101.545L145.537 99.387C141.892 97.5121 138.459 95.2502 135.298 92.6404L134.977 92.3761C132.603 90.4156 130.406 88.2497 128.411 85.9035L126.44 83.5849C124.309 81.0778 122.571 78.2616 121.286 75.2325L119.304 70.5616C118.899 69.6072 118.691 68.5808 118.693 67.5441C118.703 63.3011 115.27 59.8541 111.027 59.845Z" stroke="#1169CC" stroke-width="3"/>
<path d="M256.195 134.865L256.278 96.2161C256.293 89.3581 259.266 82.8401 264.435 78.3334C268.897 74.4434 274.649 72.3565 280.568 72.4805L347.026 73.8725L452.306 76.2319L518.916 78.9267C523.673 79.1192 527.973 81.8122 530.224 86.0075L535.664 96.827C536.573 98.6356 537.664 100.348 538.918 101.937L540.529 103.978C542.13 106.007 543.987 107.82 546.052 109.373L553.862 115.243L564.788 121.317L575.716 125.967L582.263 128.54C582.752 128.732 583.272 128.831 583.797 128.832C586.127 128.837 588.012 130.73 588.007 133.06L587.988 142.334C587.982 145.133 587.105 147.861 585.48 150.14L566.55 176.686C565.296 178.445 563.856 180.063 562.255 181.512L538.957 202.597C537.53 203.889 535.942 204.991 534.232 205.876C531.418 207.334 528.326 208.177 525.162 208.35L504.892 209.458L422.396 209.282L360.162 207.096C358.51 207.038 356.866 206.844 355.246 206.515L346.529 204.745C343.354 204.1 340.304 202.946 337.498 201.326L280.105 168.19C278.707 167.382 277.376 166.463 276.125 165.441L267.215 158.162C260.223 152.45 256.176 143.893 256.195 134.865Z" stroke="#1169CC" stroke-width="3"/>
<path d="M393.384 135.545L418.907 135.599" stroke="#1169CC" stroke-width="3"/>
<path d="M545.613 135.869L571.137 135.923" stroke="#1169CC" stroke-width="3"/>
<path d="M405.776 142.409L271.391 142.123C266.921 142.114 264.145 146.976 266.424 150.82C266.914 151.647 267.603 152.337 268.428 152.83L312.092 178.869L340.393 195.657L343.014 196.951C346.54 198.693 350.374 199.724 354.298 199.986L385.626 202.08L405.146 203.099C410.857 203.397 415.655 198.853 415.667 193.134L415.754 152.43C415.766 146.907 411.299 142.421 405.776 142.409Z" stroke="#1169CC" stroke-width="3"/>
<path d="M82.5748 119.58L107.812 119.634C108.572 119.635 109.295 119.304 109.789 118.727V118.727C110.432 117.978 110.594 116.93 110.209 116.022L109.689 114.797C109.259 113.784 108.49 112.952 107.513 112.443L63.041 89.2852" stroke="#1169CC" stroke-width="3"/>
<path d="M520.096 339.4L524.542 314.605C525.573 308.851 526.099 303.017 526.111 297.17L526.187 261.655C526.198 256.554 525.819 251.46 525.052 246.418L520.361 215.541" stroke="#1169CC" stroke-width="3"/>
<path d="M520.096 339.4L524.758 315.238C525.949 309.065 526.555 302.793 526.568 296.507L526.642 262.237C526.653 256.751 526.214 251.273 525.327 245.859L520.361 215.541" stroke="#1169CC" stroke-width="3"/>
<path d="M330.03 348.605L328.888 341.627C325.456 320.669 323.754 299.464 323.8 278.227V278.227C323.839 259.705 325.208 241.209 327.895 222.883L330.335 206.238" stroke="#1169CC" stroke-width="3"/>
<path d="M628.922 388.393L660.879 385.559C665.704 385.132 670.492 384.354 675.204 383.232L686.151 380.626C689.931 379.727 693.597 378.403 697.081 376.682L700.74 374.873C704.799 372.867 708.392 370.032 711.288 366.552V366.552C714.994 362.099 717.438 356.734 718.366 351.015L721.106 334.133L725.31 286.449L725.367 259.399L723.483 221.333C723.283 217.293 722.71 213.281 721.77 209.347L719.133 198.317C717.943 193.337 715.349 188.802 711.66 185.251V185.251C708.792 182.491 705.344 180.405 701.568 179.145L692.274 176.044L668.584 171.01L629.393 168.08" stroke="#1169CC" stroke-width="3"/>
<path d="M52.061 322.389L82.115 335.266L147.242 358.539L208.739 373.974L234.257 376.876" stroke="#1169CC" stroke-width="3"/>
<path d="M52.2632 227.715L82.372 214.966L147.598 191.97L209.161 176.796L234.69 174.003" stroke="#1169CC" stroke-width="3"/>
</svg>
