<svg width="32" height="32" viewBox="0 0 32 32" fill="none" xmlns="http://www.w3.org/2000/svg">
<path fill-rule="evenodd" clip-rule="evenodd" d="M25.3336 6.32318V10.6685C25.8589 10.6685 26.379 10.772 26.8643 10.973C27.3496 11.174 27.7906 11.4686 28.162 11.8401C28.5334 12.2115 28.8281 12.6525 29.0291 13.1378C29.2301 13.6231 29.3336 14.1432 29.3336 14.6685C29.3336 15.1938 29.2301 15.7139 29.0291 16.1992C28.8281 16.6845 28.5334 17.1255 28.162 17.4969C27.7906 17.8684 27.3496 18.163 26.8643 18.364C26.379 18.565 25.8589 18.6685 25.3336 18.6685V22.6685C25.3336 24.8658 22.8256 26.1205 21.0669 24.8018L18.3202 22.7405C16.852 21.6397 15.1426 20.9047 13.3336 20.5965V24.3885C13.3337 25.2602 13.0188 26.1025 12.4468 26.7602C11.8748 27.418 11.0843 27.8468 10.2211 27.9676C9.35781 28.0884 8.47999 27.8931 7.74941 27.4176C7.01882 26.9422 6.48472 26.2187 6.24557 25.3805L4.15223 18.0525C3.39892 17.1629 2.90868 16.0808 2.73662 14.9279C2.56455 13.7749 2.71748 12.5968 3.17821 11.526C3.63895 10.4552 4.38922 9.53416 5.3447 8.86637C6.30018 8.19858 7.42298 7.81053 8.5869 7.74584L12.6109 7.52184C14.5797 7.41228 16.4944 6.83696 18.1976 5.84318L21.3229 4.01918C23.1016 2.98318 25.3336 4.26451 25.3336 6.32318ZM7.51223 20.1058L8.80957 24.6485C8.872 24.8684 9.01189 25.0583 9.2034 25.1831C9.39491 25.3079 9.6251 25.3591 9.85147 25.3275C10.0778 25.2958 10.2851 25.1832 10.435 25.0107C10.5849 24.8381 10.6672 24.6171 10.6669 24.3885V20.3752L8.5869 20.2592C8.22493 20.2391 7.86537 20.1878 7.51223 20.1058ZM22.6669 6.32318L19.5402 8.14851C17.6407 9.25577 15.5227 9.93555 13.3336 10.1405V17.8992C15.7162 18.2272 17.9842 19.1565 19.9202 20.6072L22.6669 22.6685V6.32318ZM10.6669 10.3005L8.73357 10.4072C7.83416 10.4568 6.98605 10.8419 6.35665 11.4863C5.72725 12.1307 5.3623 12.9876 5.33384 13.8879C5.30537 14.7883 5.61546 15.6666 6.2029 16.3494C6.79033 17.0323 7.61243 17.4701 8.5069 17.5765L8.73357 17.5965L10.6669 17.7032V10.3005ZM25.3336 13.3352V16.0018C25.6734 16.0015 26.0003 15.8713 26.2474 15.638C26.4945 15.4048 26.6432 15.0859 26.6631 14.7467C26.683 14.4074 26.5727 14.0733 26.3545 13.8127C26.1364 13.5521 25.827 13.3846 25.4896 13.3445L25.3336 13.3352Z" fill="black"/>
</svg>
