<svg width="25" height="24" viewBox="0 0 25 24" fill="none" xmlns="http://www.w3.org/2000/svg">
<path d="M18.2697 21.1886C17.1508 22.243 15.9292 22.0765 14.7532 21.5771C13.5087 21.0665 12.367 21.0443 11.0541 21.5771C9.41001 22.2652 8.54231 22.0654 7.56044 21.1886C1.98889 15.6059 2.81092 7.10414 9.136 6.79337C10.6773 6.87107 11.7505 7.61469 12.6525 7.68128C13.9997 7.41491 15.2898 6.64909 16.7284 6.74898C18.4524 6.88216 19.7539 7.5481 20.6102 8.74677C17.048 10.8223 17.8929 15.3839 21.1582 16.6603C20.5074 18.3251 19.6626 19.9788 18.2583 21.1997L18.2697 21.1886ZM12.5383 6.72678C12.367 4.25174 14.4335 2.20955 16.8083 2.00977C17.1394 4.87327 14.1367 7.00425 12.5383 6.72678Z" fill="#070C2B"/>
</svg>
