<svg width="32" height="32" viewBox="0 0 32 32" fill="none" xmlns="http://www.w3.org/2000/svg">
<path fill-rule="evenodd" clip-rule="evenodd" d="M21.2321 5.89064C17.7682 5.31106 14.232 5.31106 10.7681 5.89064C10.4505 5.94381 10.1564 6.09207 9.92479 6.31584C9.69317 6.5396 9.53486 6.82836 9.47077 7.14398C8.29088 13.0025 8.22664 19.031 9.28143 24.9133L9.49877 26.1306L14.3921 21.4813C14.8258 21.0692 15.4012 20.8394 15.9994 20.8394C16.5977 20.8394 17.1731 21.0692 17.6068 21.4813L22.5001 26.1306L22.7188 24.9133C23.7736 19.031 23.7093 13.0025 22.5294 7.14398C22.4653 6.82836 22.307 6.5396 22.0754 6.31584C21.8438 6.09207 21.5497 5.94381 21.2321 5.89064ZM10.4374 3.91998C14.1203 3.30369 17.8799 3.30369 21.5628 3.91998C22.2797 4.04021 22.9434 4.37517 23.4659 4.88059C23.9885 5.386 24.3454 6.03808 24.4894 6.75064C25.7201 12.856 25.7868 19.1373 24.6881 25.268L24.3921 26.9146C24.3359 27.228 24.1959 27.5203 23.9871 27.7606C23.7782 28.0008 23.5082 28.1801 23.2057 28.2793C22.9032 28.3785 22.5795 28.3941 22.2689 28.3242C21.9583 28.2544 21.6723 28.1018 21.4414 27.8826L16.2294 22.932C16.1675 22.8733 16.0854 22.8405 16.0001 22.8405C15.9148 22.8405 15.8327 22.8733 15.7708 22.932L10.5588 27.8826C10.3279 28.1018 10.0419 28.2544 9.73134 28.3242C9.42073 28.3941 9.09702 28.3785 8.79452 28.2793C8.49203 28.1801 8.22202 28.0008 8.01315 27.7606C7.80427 27.5203 7.66431 27.228 7.6081 26.9146L7.3121 25.268C6.21291 19.138 6.27986 12.8558 7.50943 6.75064C7.65359 6.03789 8.01069 5.38568 8.5335 4.88025C9.05631 4.37482 9.72022 4.03997 10.4374 3.91998Z" fill="#070C2B"/>
</svg>
