<svg width="32" height="32" viewBox="0 0 32 32" fill="none" xmlns="http://www.w3.org/2000/svg">
<path fill-rule="evenodd" clip-rule="evenodd" d="M12.3654 7.04277C14.4698 6.18881 16.8077 6.10306 18.9691 6.80058C21.1304 7.49809 22.9771 8.93433 24.1854 10.8574C25.3936 12.7804 25.8862 15.0674 25.5767 17.3174C25.2672 19.5673 24.1754 21.6364 22.4928 23.1618C20.8102 24.6871 18.6443 25.5714 16.3749 25.6594C14.1055 25.7475 11.8776 25.0337 10.0819 23.6432C8.28618 22.2528 7.03738 20.2745 6.55452 18.0553C6.4371 17.5156 5.90443 17.1733 5.36477 17.2908C4.82511 17.4082 4.48282 17.9409 4.60024 18.4805C5.18301 21.1588 6.69018 23.5464 8.8574 25.2246C11.0246 26.9027 13.7135 27.7642 16.4524 27.6579C19.1913 27.5517 21.8054 26.4845 23.8361 24.6435C25.8668 22.8025 27.1845 20.3053 27.558 17.5899C27.9315 14.8745 27.3371 12.1143 25.8788 9.79336C24.4206 7.47245 22.1918 5.73907 19.5833 4.89724C16.9748 4.05541 14.1532 4.1589 11.6134 5.18954C9.63844 5.99095 7.93195 7.31316 6.66673 9.00014C6.66203 8.98753 6.65741 8.9749 6.65287 8.96225L6.3592 7.63675C6.29427 7.38591 6.1345 7.17007 5.91357 7.0347C5.69264 6.89933 5.42778 6.85499 5.17481 6.91104C4.92184 6.96709 4.70049 7.11914 4.55741 7.33516C4.41433 7.55118 4.36068 7.8143 4.40777 8.0691L5.22351 11.751C5.281 12.0097 5.43881 12.235 5.66229 12.3775C5.88577 12.5199 6.15664 12.5678 6.4154 12.5106L10.0974 11.6948C10.2294 11.6704 10.3552 11.6197 10.4672 11.5456C10.5792 11.4715 10.6752 11.3757 10.7493 11.2637C10.8235 11.1517 10.8743 11.026 10.8988 10.894C10.9233 10.7619 10.921 10.6263 10.892 10.4952C10.8629 10.3641 10.8077 10.2402 10.7298 10.1308C10.6518 10.0215 10.5526 9.92899 10.4381 9.85883C10.3236 9.78867 10.1961 9.74229 10.0633 9.72246C9.93047 9.70263 9.79502 9.70976 9.66501 9.74341L8.40277 10.0231C9.436 8.70974 10.7988 7.67849 12.3654 7.04277ZM16.6669 11.6667C16.6669 11.4015 16.5615 11.1471 16.374 10.9596C16.1864 10.7721 15.9321 10.6667 15.6669 10.6667C15.4016 10.6667 15.1473 10.7721 14.9597 10.9596C14.7722 11.1471 14.6669 11.4015 14.6669 11.6667V17.3334C14.6668 17.5029 14.7098 17.6697 14.7919 17.818C14.874 17.9664 14.9925 18.0914 15.1362 18.1814L18.5785 20.2065C18.8034 20.3472 19.075 20.3929 19.3335 20.3334C19.4615 20.3039 19.5825 20.2495 19.6895 20.1733C19.7965 20.0971 19.8874 20.0005 19.9571 19.8892C20.0268 19.7778 20.0739 19.6538 20.0957 19.5243C20.1174 19.3947 20.1135 19.2621 20.084 19.1341C20.0545 19.0061 20.0001 18.8851 19.9239 18.7781C19.8477 18.6711 19.7512 18.5802 19.6398 18.5105L16.6669 16.7787V11.6667Z" fill="#070C2B"/>
</svg>
