<svg width="32" height="32" viewBox="0 0 32 32" fill="none" xmlns="http://www.w3.org/2000/svg">
<path fill-rule="evenodd" clip-rule="evenodd" d="M21.8305 8.07916C21.6646 8.0198 21.4414 8.00097 20.339 8.00097H11.6617C10.5602 8.00097 10.3375 8.01959 10.1696 8.07939C9.97542 8.15003 9.80087 8.26365 9.65835 8.41216C9.53664 8.5389 9.43008 8.73188 8.98163 9.74199L7.3847 13.3343H24.6154L23.018 9.74131C22.5701 8.73255 22.4632 8.53949 22.3413 8.4125L22.3388 8.40991C22.1988 8.26327 22.0251 8.14987 21.8305 8.07916ZM25.3337 16.001V21.3343H6.66699V16.001H25.3337ZM4.46495 13.3343H4.00033C3.26395 13.3343 2.66699 13.9313 2.66699 14.6676C2.66699 15.404 3.26395 16.001 4.00033 16.001V24.001C4.00033 25.0618 4.42175 26.0793 5.1719 26.8294C5.92204 27.5795 6.93946 28.001 8.00033 28.001C9.06119 28.001 10.0786 27.5795 10.8288 26.8294C11.5789 26.0793 12.0003 25.0618 12.0003 24.001H20.0003C20.0003 25.0618 20.4218 26.0793 21.1719 26.8294C21.922 27.5795 22.9395 28.001 24.0003 28.001C25.0612 28.001 26.0786 27.5795 26.8288 26.8294C27.5789 26.0793 28.0003 25.0618 28.0003 24.001V16.001C28.7367 16.001 29.3337 15.404 29.3337 14.6676C29.3337 13.9313 28.7367 13.3343 28.0003 13.3343H27.5338C27.5311 13.3282 27.5283 13.3221 27.5256 13.316L25.455 8.65861C25.4316 8.60598 25.4085 8.55376 25.3856 8.50196C25.0506 7.74471 24.7556 7.07787 24.2672 6.56802C23.8396 6.12034 23.315 5.7806 22.7369 5.57128L22.7343 5.57035C22.0718 5.33199 21.3414 5.333 20.5135 5.33414C20.4558 5.33422 20.3976 5.3343 20.339 5.3343H11.6617C11.6032 5.3343 11.5452 5.33422 11.4877 5.33414C10.6579 5.33302 9.93078 5.33203 9.26752 5.56992L9.26374 5.57128C8.6855 5.78064 8.16222 6.11996 7.73463 6.56543M22.667 24.001C22.667 24.3546 22.8075 24.6937 23.0575 24.9438C23.3076 25.1938 23.6467 25.3343 24.0003 25.3343C24.3539 25.3343 24.6931 25.1938 24.9431 24.9438C25.1932 24.6937 25.3337 24.3546 25.3337 24.001H22.667ZM9.33366 24.001H6.66699C6.66699 24.3546 6.80747 24.6937 7.05752 24.9438C7.30757 25.1938 7.6467 25.3343 8.00033 25.3343C8.35395 25.3343 8.69309 25.1938 8.94313 24.9438C9.19318 24.6937 9.33366 24.3546 9.33366 24.001ZM4.48977 13.2818C4.48142 13.2992 4.47315 13.3168 4.46495 13.3343L4.48977 13.2818ZM4.48977 13.2818L6.54436 8.65994C6.54427 8.66014 6.54444 8.65975 6.54436 8.65994C6.5683 8.60602 6.59223 8.55191 6.61571 8.49882C6.94988 7.74321 7.24568 7.07474 7.73463 6.56543" fill="#1169CC"/>
</svg>
