<svg width="17" height="16" viewBox="0 0 17 16" fill="none" xmlns="http://www.w3.org/2000/svg">
<path d="M3.70398 11.0005H13.296L8.49998 5.51951L3.70398 11.0005ZM2.95098 10.3415L7.74698 4.86151C7.84084 4.7541 7.9566 4.66801 8.08647 4.60903C8.21635 4.55005 8.35734 4.51953 8.49998 4.51953C8.64262 4.51953 8.78362 4.55005 8.91349 4.60903C9.04337 4.66801 9.15912 4.7541 9.25298 4.86151L14.049 10.3415C14.615 10.9885 14.155 12.0005 13.296 12.0005H3.70398C3.51174 12.0007 3.32352 11.9454 3.16187 11.8414C3.00022 11.7373 2.87199 11.5889 2.79253 11.4138C2.71308 11.2388 2.68577 11.0445 2.71387 10.8543C2.74197 10.6642 2.82429 10.4861 2.95098 10.3415Z" fill="#0F761A"/>
</svg>
