<svg width="22" height="22" viewBox="0 0 22 22" fill="none" xmlns="http://www.w3.org/2000/svg">
<path d="M2.75 13.7507V15.4007C2.75 16.4273 2.75 16.9407 2.94983 17.333C3.1256 17.6779 3.40605 17.9584 3.751 18.1342C4.14242 18.334 4.65575 18.334 5.68058 18.334H19.25M2.75 13.7507V4.58398M2.75 13.7507L6.28192 10.8082L6.28558 10.8054C6.9245 10.2728 7.24442 10.0061 7.59183 9.8979C8.0017 9.76974 8.44356 9.78953 8.84033 9.95382C9.17675 10.0941 9.471 10.3883 10.0613 10.9787L10.0668 10.9842C10.6663 11.5837 10.9661 11.8843 11.308 12.0227C11.7126 12.1876 12.1629 12.2026 12.5776 12.0649C12.9287 11.9476 13.2495 11.6671 13.8912 11.1061L19.25 6.41732" stroke="#4B5263" stroke-width="2" stroke-linecap="round" stroke-linejoin="round"/>
</svg>
