<svg width="32" height="32" viewBox="0 0 32 32" fill="none" xmlns="http://www.w3.org/2000/svg">
<path d="M15.9905 27.4331C14.7328 27.4331 13.5895 26.9757 12.7892 26.0611C11.8746 25.2608 11.4172 24.1175 11.4172 22.8598H8.44462C7.87297 22.8598 7.64431 22.8598 7.30132 22.7455C6.95832 22.6312 6.61533 22.4025 6.38667 22.1738C6.15801 21.9452 5.92935 21.6022 5.81501 21.2592C5.70068 20.9162 5.70068 20.5732 5.70068 20.1159C5.70068 19.7729 5.70068 19.6586 5.70068 19.5442C5.70068 19.2012 5.92935 18.8583 6.04368 18.6296C6.15801 18.5153 6.15801 18.4009 6.38667 18.1723L6.84399 17.8293V13.7134C6.84399 12.4557 7.07265 11.3124 7.52998 10.1691C7.9873 9.0258 8.67329 8.11115 9.4736 7.1965C10.2739 6.28186 11.4172 5.7102 12.4462 5.25288C14.7328 4.33823 17.2481 4.33823 19.4204 5.25288C20.5637 5.7102 21.4783 6.39619 22.393 7.1965C23.3076 8.11115 23.9936 9.14013 24.4509 10.1691C24.9083 11.3124 25.1369 12.4557 25.1369 13.7134V17.8293L25.4799 18.1723C25.7086 18.4009 25.8229 18.5153 25.8229 18.6296C26.0516 18.9726 26.1659 19.2012 26.1659 19.5442C26.1659 19.6586 26.1659 19.7729 26.1659 20.1159C26.1659 20.6875 26.1659 20.9162 26.0516 21.3735C25.9372 21.7165 25.7086 22.0595 25.4799 22.2882C25.2513 22.5168 24.9083 22.7455 24.5653 22.8598C24.3366 22.8598 23.9936 22.8598 23.5363 22.8598H20.5637C20.5637 24.1175 20.1064 25.2608 19.1917 26.0611C18.2771 26.8614 17.2481 27.4331 15.9905 27.4331ZM13.7038 22.8598C13.7038 23.4315 13.9325 24.0031 14.3898 24.4605C15.1901 25.2608 16.7908 25.2608 17.5911 24.4605C18.0484 24.0031 18.2771 23.4315 18.2771 22.8598H13.7038ZM15.9905 6.85351C15.0758 6.85351 14.1612 7.08217 13.3609 7.42517C12.5605 7.76816 11.7602 8.22548 11.1886 8.91147C10.6169 9.59745 10.0453 10.2834 9.70226 11.0838C9.35927 11.8841 9.13061 12.7987 9.13061 13.7134V17.9436C9.13061 18.1723 9.13061 18.4009 9.01628 18.6296C8.90195 18.8583 8.78762 19.0869 8.55896 19.2012L8.10163 19.6586C8.10163 19.8872 7.9873 19.8872 7.9873 19.8872C7.9873 19.8872 7.9873 20.0016 7.9873 20.1159C7.9873 20.3446 7.9873 20.4589 7.9873 20.6875C8.10163 20.6875 8.21596 20.6875 8.44462 20.6875H23.5363C23.765 20.6875 23.8793 20.6875 23.9936 20.6875C23.9936 20.5732 23.9936 20.4589 23.9936 20.2302C23.9936 20.1159 23.9936 20.1159 23.9936 20.0016C23.9936 20.0016 23.8793 20.0016 23.8793 19.8872L23.422 19.4299C23.1933 19.2012 23.079 19.0869 22.9646 18.8583C22.8503 18.5153 22.8503 18.1723 22.8503 17.9436V13.7134C22.8503 12.7987 22.6217 11.8841 22.2787 11.0838C21.9357 10.2834 21.4783 9.48312 20.7924 8.91147C20.1064 8.22548 19.4204 7.76816 18.6201 7.42517C17.8198 7.08217 16.9051 6.85351 15.9905 6.85351Z" fill="#070C2B"/>
</svg>
