<svg width="32" height="32" viewBox="0 0 32 32" fill="none" xmlns="http://www.w3.org/2000/svg">
<path fill-rule="evenodd" clip-rule="evenodd" d="M9.72402 9.7239C10.2447 9.2032 11.0889 9.2032 11.6096 9.7239L16.0002 14.1144L20.3907 9.7239C20.9114 9.2032 21.7556 9.2032 22.2763 9.7239C22.797 10.2446 22.797 11.0888 22.2763 11.6095L17.8858 16L22.2763 20.3906C22.797 20.9113 22.797 21.7555 22.2763 22.2762C21.7556 22.7969 20.9114 22.7969 20.3907 22.2762L16.0002 17.8857L11.6096 22.2762C11.0889 22.7969 10.2447 22.7969 9.72402 22.2762C9.20332 21.7555 9.20332 20.9113 9.72402 20.3906L14.1145 16L9.72402 11.6095C9.20332 11.0888 9.20332 10.2446 9.72402 9.7239Z" fill="#070C2B"/>
</svg>
