<svg width="32" height="32" viewBox="0 0 32 32" fill="none" xmlns="http://www.w3.org/2000/svg">
<path fill-rule="evenodd" clip-rule="evenodd" d="M15.9998 5.33329C14.5991 5.33329 13.212 5.60919 11.9179 6.14524C10.6237 6.68129 9.44786 7.46699 8.45736 8.45749C7.46687 9.44798 6.68117 10.6239 6.14512 11.918C5.60907 13.2121 5.33317 14.5992 5.33317 16C5.33317 17.4007 5.60907 18.7878 6.14512 20.0819C6.68117 21.3761 7.46687 22.5519 8.45736 23.5424C9.44786 24.5329 10.6237 25.3186 11.9179 25.8547C13.212 26.3907 14.5991 26.6666 15.9998 26.6666C18.8288 26.6666 21.5419 25.5428 23.5423 23.5424C25.5427 21.542 26.6665 18.8289 26.6665 16C26.6665 13.171 25.5427 10.4579 23.5423 8.45749C21.5419 6.4571 18.8288 5.33329 15.9998 5.33329ZM10.8974 3.68157C12.5151 3.0115 14.2489 2.66663 15.9998 2.66663C19.5361 2.66663 22.9274 4.07138 25.4279 6.57187C27.9284 9.07235 29.3332 12.4637 29.3332 16C29.3332 19.5362 27.9284 22.9276 25.4279 25.428C22.9274 27.9285 19.5361 29.3333 15.9998 29.3333C14.2489 29.3333 12.5151 28.9884 10.8974 28.3184C9.27972 27.6483 7.80986 26.6662 6.57175 25.428C5.33363 24.1899 4.35151 22.7201 3.68144 21.1024C3.01138 19.4847 2.6665 17.7509 2.6665 16C2.6665 14.249 3.01138 12.5152 3.68144 10.8975C4.35151 9.27984 5.33363 7.80998 6.57175 6.57187C7.80986 5.33375 9.27972 4.35163 10.8974 3.68157ZM15.9998 9.93329C16.7362 9.93329 17.3332 10.5302 17.3332 11.2666V16.6C17.3332 17.3363 16.7362 17.9333 15.9998 17.9333C15.2635 17.9333 14.6665 17.3363 14.6665 16.6V11.2666C14.6665 10.5302 15.2635 9.93329 15.9998 9.93329ZM14.5998 20.6C14.5998 19.8636 15.1968 19.2666 15.9332 19.2666H16.0665C16.8029 19.2666 17.3998 19.8636 17.3998 20.6V20.7333C17.3998 21.4697 16.8029 22.0666 16.0665 22.0666H15.9332C15.1968 22.0666 14.5998 21.4697 14.5998 20.7333V20.6Z" fill="black"/>
</svg>
