<svg width="32" height="32" viewBox="0 0 32 32" fill="none" xmlns="http://www.w3.org/2000/svg">
<path d="M22.4 28H9.6C8 28 7.06667 28 6.13333 27.6C5.33333 27.2 4.8 26.6667 4.4 25.8667C4 24.9334 4 24 4 22.4V9.60004C4 8.00004 4 7.06671 4.4 6.13337C4.8 5.33337 5.33333 4.80004 6.13333 4.40004C6.93333 4.00004 7.86667 4.00004 9.33333 4.00004V2.66671C9.33333 1.86671 9.86667 1.33337 10.6667 1.33337C11.4667 1.33337 12 1.86671 12 2.66671V4.00004H20V2.66671C20 1.86671 20.5333 1.33337 21.3333 1.33337C22.1333 1.33337 22.6667 1.86671 22.6667 2.66671V4.00004C24.1333 4.00004 25.0667 4.00004 25.8667 4.40004C26.6667 4.80004 27.2 5.33337 27.6 6.13337C28 7.06671 28 8.00004 28 9.60004V22.4C28 24 28 24.9334 27.6 25.8667C27.2 26.6667 26.6667 27.2 25.8667 27.6C24.9333 28 24 28 22.4 28ZM6.66667 12V22.4C6.66667 23.6 6.66667 24.2667 6.8 24.6667C6.93333 24.9334 7.06667 25.0667 7.33333 25.2C7.73333 25.3334 8.4 25.3334 9.6 25.3334H22.4C23.6 25.3334 24.2667 25.3334 24.6667 25.2C24.9333 25.0667 25.0667 24.9334 25.2 24.6667C25.3333 24.4 25.3333 23.6 25.3333 22.5334V12H6.66667ZM6.66667 9.33337H25.3333C25.3333 8.26671 25.3333 7.60004 25.2 7.33337C25.0667 7.06671 24.9333 6.93337 24.6667 6.80004C24.2667 6.66671 23.6 6.66671 22.4 6.66671H9.6C8.4 6.66671 7.73333 6.66671 7.33333 6.80004C7.2 6.93337 6.93333 7.20004 6.8 7.33337C6.66667 7.60004 6.66667 8.26671 6.66667 9.33337ZM21.3333 22.6667C20.9333 22.6667 20.6667 22.5334 20.4 22.2667C20.1333 22 20 21.7334 20 21.3334C20 20.9334 20.1333 20.6667 20.4 20.4C20.9333 19.8667 21.7333 19.8667 22.2667 20.4C22.5333 20.6667 22.6667 21.0667 22.6667 21.3334C22.6667 21.6 22.5333 22 22.2667 22.2667C22 22.5334 21.7333 22.6667 21.3333 22.6667ZM16 22.6667C15.6 22.6667 15.3333 22.5334 15.0667 22.2667C14.8 22 14.6667 21.7334 14.6667 21.3334C14.6667 20.9334 14.8 20.6667 15.0667 20.4C15.6 19.8667 16.4 19.8667 16.9333 20.4C17.2 20.6667 17.3333 21.0667 17.3333 21.3334C17.3333 21.6 17.2 22 16.9333 22.2667C16.6667 22.5334 16.4 22.6667 16 22.6667ZM10.6667 22.6667C10.2667 22.6667 10 22.5334 9.73333 22.2667C9.46667 22 9.33333 21.7334 9.33333 21.3334C9.33333 20.9334 9.46667 20.6667 9.73333 20.4C10.2667 19.8667 11.0667 19.8667 11.6 20.4C11.8667 20.6667 12 20.9334 12 21.3334C12 21.7334 11.8667 22 11.6 22.2667C11.3333 22.5334 11.0667 22.6667 10.6667 22.6667ZM21.3333 17.3334C20.9333 17.3334 20.6667 17.2 20.4 16.9334C20.1333 16.6667 20 16.4 20 16C20 15.6 20.1333 15.3334 20.4 15.0667C20.9333 14.5334 21.7333 14.5334 22.2667 15.0667C22.5333 15.3334 22.6667 15.7334 22.6667 16C22.6667 16.4 22.5333 16.6667 22.2667 16.9334C22 17.2 21.7333 17.3334 21.3333 17.3334ZM16 17.3334C15.6 17.3334 15.3333 17.2 15.0667 16.9334C14.8 16.6667 14.6667 16.4 14.6667 16C14.6667 15.6 14.8 15.3334 15.0667 15.0667C15.6 14.5334 16.4 14.5334 16.9333 15.0667C17.2 15.3334 17.3333 15.7334 17.3333 16C17.3333 16.2667 17.2 16.6667 16.9333 16.9334C16.6667 17.2 16.4 17.3334 16 17.3334ZM10.6667 17.3334C10.2667 17.3334 10 17.2 9.73333 16.9334C9.46667 16.6667 9.33333 16.4 9.33333 16C9.33333 15.6 9.46667 15.3334 9.73333 15.0667C10.2667 14.5334 11.0667 14.5334 11.6 15.0667C11.8667 15.3334 12 15.6 12 16C12 16.4 11.8667 16.6667 11.6 16.9334C11.3333 17.2 11.0667 17.3334 10.6667 17.3334Z" fill="#070C2B"/>
</svg>
