<svg width="32" height="32" viewBox="0 0 32 32" fill="none" xmlns="http://www.w3.org/2000/svg">
<path fill-rule="evenodd" clip-rule="evenodd" d="M7.51472 7.51472C9.76516 5.26428 12.8174 4 16 4C19.1826 4 22.2348 5.26428 24.4853 7.51472C26.7357 9.76516 28 12.8174 28 16C28 17.5759 27.6896 19.1363 27.0866 20.5922C26.4835 22.0481 25.5996 23.371 24.4853 24.4853C23.371 25.5996 22.0481 26.4835 20.5922 27.0866C19.1363 27.6896 17.5759 28 16 28C14.4241 28 12.8637 27.6896 11.4078 27.0866C9.95189 26.4835 8.62902 25.5996 7.51472 24.4853C6.40042 23.371 5.5165 22.0481 4.91345 20.5922C4.31039 19.1363 4 17.5759 4 16C4 12.8174 5.26428 9.76516 7.51472 7.51472ZM16 6.4C13.4539 6.4 11.0121 7.41143 9.21177 9.21178C7.41143 11.0121 6.4 13.4539 6.4 16C6.4 17.2607 6.64831 18.509 7.13076 19.6738C7.6132 20.8385 8.32033 21.8968 9.21177 22.7882C10.1032 23.6797 11.1615 24.3868 12.3262 24.8692C13.491 25.3517 14.7393 25.6 16 25.6C17.2607 25.6 18.509 25.3517 19.6738 24.8692C20.8385 24.3868 21.8968 23.6797 22.7882 22.7882C23.6797 21.8968 24.3868 20.8385 24.8692 19.6738C25.3517 18.509 25.6 17.2607 25.6 16C25.6 13.4539 24.5886 11.0121 22.7882 9.21178C20.9879 7.41143 18.5461 6.4 16 6.4Z" fill="#070C2B"/>
<path fill-rule="evenodd" clip-rule="evenodd" d="M21.6481 10.3516C22.0018 10.7053 22.099 11.2413 21.892 11.6967L18.892 18.2967C18.7719 18.5609 18.5602 18.7725 18.2961 18.8926L11.6961 21.8926C11.2407 22.0996 10.7047 22.0024 10.351 21.6487C9.99731 21.295 9.90012 20.759 10.1071 20.3036L13.1071 13.7036C13.2272 13.4395 13.4389 13.2278 13.703 13.1077L20.303 10.1077C20.7584 9.90073 21.2944 9.99792 21.6481 10.3516ZM15.1058 15.1064L13.6162 18.3835L16.8933 16.8939L18.3829 13.6168L15.1058 15.1064Z" fill="#070C2B"/>
</svg>
