<svg width="32" height="32" viewBox="0 0 32 32" fill="none" xmlns="http://www.w3.org/2000/svg">
<path fill-rule="evenodd" clip-rule="evenodd" d="M15.9998 5.33329C14.5991 5.33329 13.212 5.60919 11.9179 6.14524C10.6237 6.68129 9.44786 7.46699 8.45736 8.45749C7.46687 9.44798 6.68117 10.6239 6.14512 11.918C5.60907 13.2121 5.33317 14.5992 5.33317 16C5.33317 17.4007 5.60907 18.7878 6.14512 20.0819C6.68117 21.3761 7.46687 22.5519 8.45736 23.5424C9.44786 24.5329 10.6237 25.3186 11.9179 25.8547C13.212 26.3907 14.5991 26.6666 15.9998 26.6666C18.8288 26.6666 21.5419 25.5428 23.5423 23.5424C25.5427 21.542 26.6665 18.8289 26.6665 16C26.6665 13.171 25.5427 10.4579 23.5423 8.45749C21.5419 6.4571 18.8288 5.33329 15.9998 5.33329ZM10.8974 3.68157C12.5151 3.0115 14.2489 2.66663 15.9998 2.66663C19.5361 2.66663 22.9274 4.07138 25.4279 6.57187C27.9284 9.07235 29.3332 12.4637 29.3332 16C29.3332 19.5362 27.9284 22.9276 25.4279 25.428C22.9274 27.9285 19.5361 29.3333 15.9998 29.3333C14.2489 29.3333 12.5151 28.9884 10.8974 28.3184C9.27972 27.6483 7.80986 26.6662 6.57175 25.428C5.33363 24.1899 4.35151 22.7201 3.68144 21.1024C3.01138 19.4847 2.6665 17.7509 2.6665 16C2.6665 14.249 3.01138 12.5152 3.68144 10.8975C4.35151 9.27984 5.33363 7.80998 6.57175 6.57187C7.80986 5.33375 9.27972 4.35163 10.8974 3.68157ZM11.057 11.0571C11.5777 10.5365 12.4219 10.5365 12.9426 11.0571L15.9998 14.1143L19.057 11.0571C19.5777 10.5365 20.4219 10.5365 20.9426 11.0571C21.4633 11.5778 21.4633 12.4221 20.9426 12.9428L17.8855 16L20.9426 19.0571C21.4633 19.5778 21.4633 20.4221 20.9426 20.9428C20.4219 21.4635 19.5777 21.4635 19.057 20.9428L15.9998 17.8856L12.9426 20.9428C12.4219 21.4635 11.5777 21.4635 11.057 20.9428C10.5363 20.4221 10.5363 19.5778 11.057 19.0571L14.1142 16L11.057 12.9428C10.5363 12.4221 10.5363 11.5778 11.057 11.0571Z" fill="black"/>
</svg>
