<svg width="32" height="32" viewBox="0 0 32 32" fill="none" xmlns="http://www.w3.org/2000/svg">
<path d="M26.6669 28C26.2669 28 26.0002 27.8667 25.7335 27.6L22.0002 23.8667C20.0002 24.8 18.0002 25.3333 16.0002 25.3333C10.9335 25.3333 6.66686 22 3.86686 19.3333C3.2002 18.6667 2.66686 18.1333 2.4002 17.2C2.13353 16.5333 2.13353 15.4667 2.4002 14.6667C2.66686 13.8667 3.2002 13.3333 3.86686 12.6667C5.06686 11.4667 6.4002 10.4 7.73353 9.46667L4.4002 6.26667C3.86686 5.73333 3.86686 4.93333 4.4002 4.4C4.93353 3.86667 5.73353 3.86667 6.26686 4.4L27.6002 25.7333C28.1335 26.2667 28.1335 27.0667 27.6002 27.6C27.3335 27.8667 27.0669 28 26.6669 28ZM9.60019 11.4667C8.26686 12.2667 6.93353 13.3333 5.73353 14.5333C5.06686 15.2 5.06686 15.2 4.93353 15.6C4.93353 15.7333 4.93353 16.2667 4.93353 16.4C5.06686 16.6667 5.2002 16.8 5.73353 17.4667C7.73353 19.3333 11.6002 22.6667 16.0002 22.6667C17.3335 22.6667 18.5335 22.4 20.0002 21.8667L17.7335 19.6C17.2002 19.8667 16.5335 20 15.8669 20C14.8002 20 13.8669 19.4667 13.2002 18.8C12.4002 18 12.0002 17.0667 12.0002 16C12.0002 15.3333 12.1335 14.8 12.4002 14.2667L9.60019 11.4667ZM26.0002 20.8C25.6002 20.8 25.2002 20.6667 24.9335 20.4C24.4002 19.8667 24.5335 19.0667 25.0669 18.5333C25.4669 18.1333 25.8669 17.7333 26.2669 17.4667C26.9335 16.8 26.9335 16.8 27.0669 16.4C27.0669 16.2667 27.0669 15.7333 27.0669 15.6C26.9335 15.3333 26.8002 15.2 26.2669 14.5333C24.2669 12.6667 20.4002 9.33333 16.0002 9.33333C15.6002 9.33333 15.2002 9.33333 14.8002 9.46667C14.1335 9.6 13.4669 9.06667 13.3335 8.26667C13.2002 7.6 13.7335 6.93333 14.5335 6.8C14.9335 6.66667 15.4669 6.66667 16.0002 6.66667C21.0669 6.66667 25.3335 10 28.1335 12.6667C28.8002 13.3333 29.3335 13.8667 29.6002 14.8C29.8669 15.4667 29.8669 16.5333 29.6002 17.3333C29.3335 18.2667 28.8002 18.6667 28.1335 19.3333C27.7335 19.7333 27.3335 20.1333 26.8002 20.5333C26.6669 20.8 26.2669 20.8 26.0002 20.8Z" fill="#070C2B"/>
</svg>
