<svg width="32" height="32" viewBox="0 0 32 32" fill="none" xmlns="http://www.w3.org/2000/svg">
<path d="M23.1111 29H16.3333C14.5556 29 13.5556 29 12.6667 28.5556C11.8889 28.1111 11.3333 27.5556 10.8889 26.7778C10.4444 25.8889 10.4444 24.8889 10.4444 23.1111C10.4444 22.4444 10.8889 22 11.5556 22C12.2222 22 12.6667 22.4444 12.6667 23.1111C12.6667 24.6667 12.6667 25.4444 12.8889 25.7778C13.1111 26.1111 13.3333 26.4444 13.6667 26.5556C14.1111 26.7778 14.8889 26.7778 16.3333 26.7778H23.1111C24.5556 26.7778 25.3333 26.7778 25.7778 26.5556C26.1111 26.3333 26.4444 26.1111 26.5556 25.7778C26.7778 25.3333 26.7778 24.5556 26.7778 23.1111V8.88889C26.7778 7.44444 26.7778 6.66667 26.5556 6.22222C26.3333 5.88889 26.1111 5.55556 25.7778 5.44444C25.3333 5.22222 24.5556 5.22222 23.1111 5.22222H16.3333C14.8889 5.22222 14.1111 5.22222 13.6667 5.44444C13.3333 5.66667 13 5.88889 12.8889 6.22222C12.6667 6.66667 12.6667 7.44444 12.6667 8.88889C12.6667 9.55556 12.2222 10 11.5556 10C10.8889 10 10.4444 9.55556 10.4444 8.88889C10.4444 7.11111 10.4444 6.11111 10.8889 5.22222C11.3333 4.44444 11.8889 3.88889 12.6667 3.44444C13.5556 3 14.5556 3 16.3333 3H23.1111C24.8889 3 25.8889 3 26.7778 3.44444C27.5556 3.88889 28.1111 4.44444 28.5556 5.22222C29 6.11111 29 7.11111 29 8.88889V23.1111C29 24.8889 29 25.8889 28.5556 26.7778C28.1111 27.5556 27.5556 28.1111 26.7778 28.5556C25.8889 29 24.8889 29 23.1111 29ZM16 21.5556C15.6667 21.5556 15.4444 21.4444 15.2222 21.2222C14.7778 20.7778 14.7778 20.1111 15.2222 19.6667L17.7778 17.1111H4.11111C3.44444 17.1111 3 16.6667 3 16C3 15.3333 3.44444 14.8889 4.11111 14.8889H17.7778L15.2222 12.3333C14.7778 11.8889 14.7778 11.2222 15.2222 10.7778C15.6667 10.3333 16.3333 10.3333 16.7778 10.7778L21.2222 15.2222C21.3333 15.3333 21.4444 15.4444 21.4444 15.5556C21.4444 15.6667 21.5556 15.7778 21.5556 16C21.5556 16.1111 21.5556 16.3333 21.4444 16.4444C21.4444 16.5556 21.3333 16.6667 21.2222 16.7778L16.7778 21.2222C16.5556 21.4444 16.3333 21.5556 16 21.5556Z" fill="black"/>
</svg>
