<svg width="32" height="32" viewBox="0 0 32 32" fill="none" xmlns="http://www.w3.org/2000/svg">
<path d="M25.4665 29.3333C12.9332 29.3333 2.6665 19.0666 2.6665 6.53329C2.6665 5.46663 3.0665 4.53329 3.73317 3.86663C4.39984 3.19996 5.4665 2.66663 6.53317 2.66663H10.2665C11.0665 2.66663 11.8665 2.93329 12.5332 3.33329C13.1998 3.73329 13.7332 4.39996 13.9998 5.19996L15.4665 8.66663C15.7332 9.33329 15.8665 10.1333 15.7332 10.8C15.5998 11.4666 15.3332 12.1333 14.7998 12.8L13.9998 13.7333C13.7332 14 13.7332 14.2666 13.7332 14.6666C13.7332 14.9333 13.8665 15.3333 14.1332 15.6L16.6665 18.1333C16.9332 18.4 17.1998 18.5333 17.5998 18.5333C17.8665 18.5333 18.2665 18.4 18.5332 18.2666L19.4665 17.4666C19.9998 17.0666 20.6665 16.6666 21.4665 16.5333C22.1332 16.4 22.9332 16.5333 23.5998 16.8L27.0665 18.2666C27.8665 18.5333 28.3998 19.0666 28.9332 19.7333C29.4665 20.4 29.5998 21.2 29.5998 22V25.7333C29.5998 26.8 29.1998 27.7333 28.5332 28.4C27.8665 29.0666 26.5332 29.3333 25.4665 29.3333ZM6.53317 5.33329C6.2665 5.33329 5.8665 5.46663 5.73317 5.73329C5.4665 5.86663 5.33317 6.26663 5.33317 6.53329C5.33317 17.6 14.3998 26.6666 25.4665 26.6666C25.7332 26.6666 26.1332 26.5333 26.2665 26.2666C26.5332 26 26.6665 25.7333 26.6665 25.4666V21.7333C26.6665 21.4666 26.5332 21.2 26.3998 20.9333C26.2665 20.6666 25.9998 20.5333 25.7332 20.4L22.2665 18.9333C21.9998 18.8 21.8665 18.8 21.5998 18.8C21.3332 18.8 21.1998 18.9333 20.9332 19.0666L19.9998 20.1333C19.1998 20.8 18.2665 21.0666 17.1998 21.0666C16.1332 21.0666 15.1998 20.6666 14.5332 19.8666L12.1332 17.3333C11.4665 16.6666 11.0665 15.7333 10.9332 14.6666C10.9332 13.6 11.1998 12.6666 11.8665 11.8666L12.6665 10.9333C12.7998 10.8 12.9332 10.6666 12.9332 10.4C12.9332 10.1333 12.9332 9.86663 12.7998 9.73329L11.4665 6.13329C11.3332 5.86663 11.1998 5.73329 10.9332 5.59996C10.6665 5.46663 10.3998 5.33329 10.1332 5.33329H6.53317Z" fill="#070C2B"/>
</svg>
