<svg width="32" height="32" viewBox="0 0 32 32" fill="none" xmlns="http://www.w3.org/2000/svg">
<path fill-rule="evenodd" clip-rule="evenodd" d="M4 9.33333C4 8.59695 4.59695 8 5.33333 8H21.3333C22.0697 8 22.6667 8.59695 22.6667 9.33333C22.6667 10.0697 22.0697 10.6667 21.3333 10.6667H5.33333C4.59695 10.6667 4 10.0697 4 9.33333ZM24 13.3333C24.7364 13.3333 25.3333 13.9303 25.3333 14.6667V22.1144L27.0572 20.3905C27.5779 19.8698 28.4221 19.8698 28.9428 20.3905C29.4635 20.9112 29.4635 21.7554 28.9428 22.2761L24.9428 26.2761C24.4221 26.7968 23.5779 26.7968 23.0572 26.2761L19.0572 22.2761C18.5365 21.7554 18.5365 20.9112 19.0572 20.3905C19.5779 19.8698 20.4221 19.8698 20.9428 20.3905L22.6667 22.1144V14.6667C22.6667 13.9303 23.2636 13.3333 24 13.3333ZM4 16C4 15.2636 4.59695 14.6667 5.33333 14.6667H17.3333C18.0697 14.6667 18.6667 15.2636 18.6667 16C18.6667 16.7364 18.0697 17.3333 17.3333 17.3333H5.33333C4.59695 17.3333 4 16.7364 4 16ZM4 22.6667C4 21.9303 4.59695 21.3333 5.33333 21.3333H13.3333C14.0697 21.3333 14.6667 21.9303 14.6667 22.6667C14.6667 23.403 14.0697 24 13.3333 24H5.33333C4.59695 24 4 23.403 4 22.6667Z" fill="#070C2B"/>
</svg>
