<svg width="32" height="32" viewBox="0 0 32 32" fill="none" xmlns="http://www.w3.org/2000/svg">
<path fill-rule="evenodd" clip-rule="evenodd" d="M13.3332 5.33329C12.2826 5.33329 11.2423 5.54022 10.2717 5.94226C9.3011 6.34429 8.41918 6.93357 7.67632 7.67644C6.93345 8.41931 6.34417 9.30122 5.94213 10.2718C5.5401 11.2424 5.33317 12.2827 5.33317 13.3333C5.33317 14.3839 5.5401 15.4242 5.94213 16.3948C6.34417 17.3654 6.93345 18.2473 7.67632 18.9901C8.41918 19.733 9.3011 20.3223 10.2717 20.7243C11.2423 21.1264 12.2826 21.3333 13.3332 21.3333C15.4549 21.3333 17.4897 20.4904 18.99 18.9901C20.4903 17.4899 21.3332 15.455 21.3332 13.3333C21.3332 11.2116 20.4903 9.17673 18.99 7.67644C17.4897 6.17615 15.4549 5.33329 13.3332 5.33329ZM9.25121 3.47858C10.5454 2.94253 11.9324 2.66663 13.3332 2.66663C16.1621 2.66663 18.8753 3.79043 20.8756 5.79082C22.876 7.79121 23.9998 10.5043 23.9998 13.3333C23.9998 15.7141 23.2039 18.0129 21.7593 19.8738L28.9426 27.0571C29.4633 27.5778 29.4633 28.4221 28.9426 28.9428C28.4219 29.4635 27.5777 29.4635 27.057 28.9428L19.8737 21.7594C18.0128 23.204 15.714 24 13.3332 24C11.9324 24 10.5454 23.7241 9.25121 23.188C7.95707 22.652 6.78119 21.8663 5.7907 20.8758C4.80021 19.8853 4.01451 18.7094 3.47846 17.4152C2.94241 16.1211 2.6665 14.7341 2.6665 13.3333C2.6665 11.9325 2.94241 10.5455 3.47846 9.25134C4.01451 7.9572 4.80021 6.78131 5.7907 5.79082C6.78119 4.80033 7.95708 4.01463 9.25121 3.47858Z" fill="#070C2B"/>
</svg>
