<svg width="32" height="32" viewBox="0 0 32 32" fill="none" xmlns="http://www.w3.org/2000/svg">
<path d="M16.0002 25.3333C10.9335 25.3333 6.66686 22 3.86686 19.3333C3.2002 18.6666 2.66686 18.1333 2.4002 17.2C2.13353 16.5333 2.13353 15.4666 2.4002 14.6666C2.66686 13.7333 3.2002 13.3333 3.86686 12.5333C6.66686 9.99996 10.9335 6.66663 16.0002 6.66663C21.0669 6.66663 25.3335 9.99996 28.1335 12.6666C28.8002 13.3333 29.3335 13.8666 29.6002 14.8C29.8669 15.4666 29.8669 16.5333 29.6002 17.3333C29.3335 18.2666 28.8002 18.6666 28.1335 19.3333C25.3335 22 21.0669 25.3333 16.0002 25.3333ZM5.73353 17.4666C7.73353 19.3333 11.6002 22.6666 16.0002 22.6666C20.4002 22.6666 24.2669 19.3333 26.2669 17.4666C26.9335 16.8 26.9335 16.8 27.0669 16.4C27.0669 16.2666 27.0669 15.7333 27.0669 15.6C26.9335 15.3333 26.8002 15.2 26.2669 14.5333C24.2669 12.6666 20.4002 9.33329 16.0002 9.33329C11.6002 9.33329 7.73353 12.6666 5.73353 14.5333C5.06686 15.2 5.06686 15.2 4.93353 15.6C4.93353 15.7333 4.93353 16.2666 4.93353 16.4C5.06686 16.6666 5.06686 16.8 5.73353 17.4666Z" fill="#070C2B"/>
<path d="M16 20C14.9333 20 13.8667 19.6 13.2 18.8C12.4 18.1333 12 17.0666 12 16C12 14.9333 12.4 13.8666 13.2 13.2C14.6667 11.7333 17.3333 11.7333 18.8 13.2C19.6 14 20 14.9333 20 16C20 17.0666 19.6 18.1333 18.8 18.8C18 19.4666 17.0667 20 16 20ZM16 14.6666C15.6 14.6666 15.3333 14.8 15.0667 15.0666C14.8 15.3333 14.6667 15.6 14.6667 16C14.6667 16.4 14.8 16.6666 15.0667 16.9333C15.6 17.4666 16.4 17.4666 16.9333 16.9333C17.2 16.6666 17.3333 16.4 17.3333 16C17.3333 15.6 17.2 15.3333 16.9333 15.0666C16.6667 14.8 16.4 14.6666 16 14.6666Z" fill="#070C2B"/>
</svg>
