<svg width="32" height="32" viewBox="0 0 32 32" fill="none" xmlns="http://www.w3.org/2000/svg">
<path fill-rule="evenodd" clip-rule="evenodd" d="M13.3332 4C14.0695 4 14.6665 4.59695 14.6665 5.33333V10.6667C14.6665 11.403 14.0695 12 13.3332 12C12.5968 12 11.9998 11.403 11.9998 10.6667V9.33333H3.99984C3.26346 9.33333 2.6665 8.73638 2.6665 8C2.6665 7.26362 3.26346 6.66667 3.99984 6.66667H11.9998V5.33333C11.9998 4.59695 12.5968 4 13.3332 4ZM17.3332 8C17.3332 7.26362 17.9301 6.66667 18.6665 6.66667H27.9998C28.7362 6.66667 29.3332 7.26362 29.3332 8C29.3332 8.73638 28.7362 9.33333 27.9998 9.33333H18.6665C17.9301 9.33333 17.3332 8.73638 17.3332 8ZM21.3332 12C22.0695 12 22.6665 12.597 22.6665 13.3333V18.6667C22.6665 19.403 22.0695 20 21.3332 20C20.5968 20 19.9998 19.403 19.9998 18.6667V17.3333H3.99984C3.26346 17.3333 2.6665 16.7364 2.6665 16C2.6665 15.2636 3.26346 14.6667 3.99984 14.6667H19.9998V13.3333C19.9998 12.597 20.5968 12 21.3332 12ZM25.3332 16C25.3332 15.2636 25.9301 14.6667 26.6665 14.6667H27.9998C28.7362 14.6667 29.3332 15.2636 29.3332 16C29.3332 16.7364 28.7362 17.3333 27.9998 17.3333H26.6665C25.9301 17.3333 25.3332 16.7364 25.3332 16ZM7.99984 20C8.73622 20 9.33317 20.597 9.33317 21.3333V26.6667C9.33317 27.403 8.73622 28 7.99984 28C7.26346 28 6.6665 27.403 6.6665 26.6667V25.3333H3.99984C3.26346 25.3333 2.6665 24.7364 2.6665 24C2.6665 23.2636 3.26346 22.6667 3.99984 22.6667H6.6665V21.3333C6.6665 20.597 7.26346 20 7.99984 20ZM11.9998 24C11.9998 23.2636 12.5968 22.6667 13.3332 22.6667H27.9998C28.7362 22.6667 29.3332 23.2636 29.3332 24C29.3332 24.7364 28.7362 25.3333 27.9998 25.3333H13.3332C12.5968 25.3333 11.9998 24.7364 11.9998 24Z" fill="#070C2B"/>
</svg>
