<svg width="32" height="32" viewBox="0 0 32 32" fill="none" xmlns="http://www.w3.org/2000/svg">
<path d="M19.8355 29H12.1542C10.509 29 9.60411 29 8.80206 28.6C8.09255 28.25 7.51671 27.69 7.15681 27C6.7455 26.22 6.7455 25.34 6.7455 23.74V9H5.02828C4.46272 9 4 8.55 4 8C4 7.45 4.46272 7 5.02828 7H9.491C9.51157 6.26 9.56298 5.75 9.76864 5.26C9.96401 4.81 10.2314 4.41 10.581 4.07C10.9306 3.73 11.3419 3.46 11.8046 3.28C12.5039 3 13.2545 3 14.6221 3H17.3676C18.7352 3 19.4859 3 20.1851 3.28C20.6478 3.47 21.0591 3.73 21.4087 4.07C21.7584 4.41 22.036 4.81 22.2314 5.26C22.437 5.74 22.4987 6.25 22.509 7H26.9717C27.5373 7 28 7.45 28 8C28 8.55 27.5373 9 26.9717 9H25.2545V23.74C25.2545 25.34 25.2545 26.22 24.8432 27C24.473 27.7 23.9075 28.25 23.1877 28.6C22.3856 29 21.4807 29 19.8355 29ZM8.80206 9V23.73C8.80206 25.02 8.80206 25.73 8.98715 26.09C9.15167 26.4 9.41902 26.66 9.73779 26.82C10.108 27 10.838 27 12.1542 27H19.8355C21.162 27 21.892 27 22.2519 26.82C22.581 26.66 22.838 26.41 23.0026 26.09C23.1877 25.74 23.1877 25.03 23.1877 23.74V9H8.80206ZM11.5476 7H20.4422C20.4319 6.53 20.401 6.22 20.3188 6.03C20.2365 5.83 20.1028 5.64 19.9486 5.49C19.7841 5.33 19.599 5.21 19.3933 5.13C19.0746 5 18.4679 5 17.3676 5H14.6221C13.5219 5 12.9049 5 12.5964 5.13C12.3907 5.21 12.2057 5.34 12.0411 5.49C11.8766 5.65 11.7532 5.83 11.671 6.03C11.5887 6.22 11.5578 6.53 11.5476 7ZM18.7352 23.67C18.1697 23.67 17.7069 23.22 17.7069 22.67V13.34C17.7069 12.79 18.1697 12.34 18.7352 12.34C19.3008 12.34 19.7635 12.79 19.7635 13.34V22.67C19.7635 23.22 19.3008 23.67 18.7352 23.67ZM13.2545 23.67C12.6889 23.67 12.2262 23.22 12.2262 22.67V13.34C12.2262 12.79 12.6889 12.34 13.2545 12.34C13.8201 12.34 14.2828 12.79 14.2828 13.34V22.67C14.2828 23.22 13.8201 23.67 13.2545 23.67Z" fill="black"/>
</svg>
