<svg width="32" height="32" viewBox="0 0 32 32" fill="none" xmlns="http://www.w3.org/2000/svg">
<path d="M16 28C14.44 28 12.88 27.64 11.44 27.04C10 26.44 8.68 25.6 7.48 24.52C6.28 23.44 5.44 22.12 4.84 20.68C4.36 19.12 4 17.56 4 16C4 14.44 4.36 12.88 4.96 11.44C5.56 10 6.4 8.68 7.48 7.48C8.68 6.4 10 5.56 11.44 4.96C12.88 4.36 14.44 4 16 4C19.24 4 22.24 5.2 24.52 7.48C26.8 9.76 28 12.76 28 16C28 19.24 26.8 22.24 24.52 24.52C22.24 26.8 19.24 28 16 28ZM11.68 24.64C11.92 24.76 12.04 24.88 12.28 24.88C14.8 25.96 17.8 25.84 20.2 24.64C19.84 24.28 19.36 24.04 18.88 23.92C18.04 23.44 17.08 23.2 16 23.2C14.44 23.2 13 23.68 11.68 24.64ZM16 6.4C14.68 6.4 13.48 6.64 12.28 7.12C11.2 7.6 10.12 8.32 9.16 9.16C8.32 10.12 7.6 11.2 7.12 12.28C6.64 13.48 6.4 14.68 6.4 16C6.4 17.32 6.64 18.52 7.12 19.72C7.6 20.92 8.32 21.88 9.16 22.84C9.28 22.96 9.4 23.08 9.64 23.2C11.44 21.64 13.6 20.8 16 20.8C17.44 20.8 18.64 21.04 19.96 21.64C20.8 22 21.64 22.6 22.36 23.2C22.48 23.08 22.6 22.96 22.84 22.84C24.64 21.04 25.6 18.64 25.6 16C25.6 13.36 24.64 11.08 22.84 9.16C20.92 7.36 18.52 6.4 16 6.4ZM16 19.6C15.4 19.6 14.8 19.48 14.2 19.24C13.6 19 13.12 18.64 12.64 18.16C12.16 17.68 11.8 17.2 11.56 16.6C11.32 16 11.2 15.4 11.2 14.8C11.2 14.2 11.32 13.6 11.56 13C11.8 12.4 12.16 11.8 12.64 11.44C13.12 10.96 13.6 10.6 14.2 10.36C16 9.64 18.04 10 19.48 11.44C20.32 12.28 20.8 13.48 20.8 14.8C20.8 16.12 20.32 17.32 19.36 18.16C18.4 19 17.32 19.6 16 19.6ZM16 12.4C15.64 12.4 15.4 12.52 15.04 12.64C14.8 12.76 14.44 12.88 14.32 13.12C14.08 13.36 13.96 13.6 13.84 13.84C13.72 14.2 13.6 14.44 13.6 14.8C13.6 15.16 13.72 15.4 13.84 15.76C13.96 16 14.08 16.36 14.32 16.48C14.56 16.72 14.8 16.84 15.04 16.96C15.88 17.32 16.96 17.08 17.68 16.48C18.16 16 18.4 15.4 18.4 14.8C18.4 14.2 18.16 13.6 17.68 13.12C17.2 12.64 16.6 12.4 16 12.4Z" fill="#070C2B"/>
</svg>
