<svg width="32" height="32" viewBox="0 0 32 32" fill="none" xmlns="http://www.w3.org/2000/svg">
<path fill-rule="evenodd" clip-rule="evenodd" d="M16 5.33329C14.5855 5.33329 13.229 5.8952 12.2288 6.89539C11.2286 7.89558 10.6667 9.25214 10.6667 10.6666C10.6667 12.0811 11.2286 13.4377 12.2288 14.4379C13.229 15.4381 14.5855 16 16 16C17.4145 16 18.771 15.4381 19.7712 14.4379C20.7714 13.4377 21.3333 12.0811 21.3333 10.6666C21.3333 9.25214 20.7714 7.89558 19.7712 6.89539C18.771 5.8952 17.4145 5.33329 16 5.33329ZM10.3431 5.00977C11.8434 3.50948 13.8783 2.66663 16 2.66663C18.1217 2.66663 20.1566 3.50948 21.6569 5.00977C23.1571 6.51006 24 8.54489 24 10.6666C24 12.7884 23.1571 14.8232 21.6569 16.3235C20.1566 17.8238 18.1217 18.6666 16 18.6666C13.8783 18.6666 11.8434 17.8238 10.3431 16.3235C8.84286 14.8232 8 12.7884 8 10.6666C8 8.54489 8.84286 6.51006 10.3431 5.00977ZM7.75098 22.1555C9.92471 20.7968 12.8447 20 16 20C19.1553 20 22.0753 20.7968 24.249 22.1555C26.4039 23.5023 28 25.5336 28 28C28 28.7363 27.403 29.3333 26.6667 29.3333C25.9303 29.3333 25.3333 28.7363 25.3333 28C25.3333 26.785 24.5415 25.4829 22.8357 24.4168C21.1487 23.3624 18.7354 22.6666 16 22.6666C13.2646 22.6666 10.8513 23.3624 9.16435 24.4168C7.45855 25.4829 6.66667 26.785 6.66667 28C6.66667 28.7363 6.06971 29.3333 5.33333 29.3333C4.59695 29.3333 4 28.7363 4 28C4 25.5336 5.59612 23.5023 7.75098 22.1555Z" fill="black"/>
</svg>
