<svg width="20" height="20" viewBox="0 0 20 20" fill="none" xmlns="http://www.w3.org/2000/svg">
<path d="M16.6669 11.664C16.5902 11.7182 15.0002 13.3999 15.0002 14.5807C15.0002 15.8257 15.791 16.6207 16.6669 16.664C17.4219 16.7007 18.3335 15.9215 18.3335 14.5807C18.3335 13.3307 16.7435 11.7182 16.6669 11.664ZM2.84521 10.8307C2.84521 11.2757 3.01855 11.694 3.33355 12.009L7.98855 16.664C8.30355 16.979 8.72188 17.1524 9.16688 17.1524C9.61188 17.1524 10.0302 16.979 10.3452 16.664L16.1785 10.8307L15.5894 10.2415L9.16688 3.81904L7.25605 1.9082L6.07771 3.08654L7.98855 4.99737L3.33355 9.65237C3.01855 9.96737 2.84521 10.3857 2.84521 10.8307ZM9.16688 6.1757L13.8219 10.8307L9.16688 15.4857H9.16772L9.16688 16.319V15.4857L4.51188 10.8307L9.16688 6.1757Z" fill="#070C2B"/>
</svg>
