<svg width="32" height="32" viewBox="0 0 32 32" fill="none" xmlns="http://www.w3.org/2000/svg">
<path d="M19.9997 26.6654H11.9997M9.59567 22.6654C8.10501 22.6654 7.35834 22.6654 6.78901 22.3747C6.28712 22.1186 5.87918 21.7102 5.62367 21.208C5.46234 20.892 5.39034 20.5214 5.35834 19.9987M9.59567 22.6654H22.4037M9.59567 22.6654H7.46634C6.71967 22.6654 6.34634 22.6654 6.06101 22.5187C5.81038 22.3918 5.6064 22.1887 5.47834 21.9387C5.33301 21.652 5.33301 21.2787 5.33301 20.532V19.9987H5.35834M5.35834 19.9987C5.33167 19.58 5.33301 19.064 5.33301 18.3987V9.5987C5.33301 8.10536 5.33301 7.3587 5.62367 6.78803C5.87967 6.28536 6.28634 5.8787 6.78901 5.6227C7.35967 5.33203 8.10634 5.33203 9.59967 5.33203H22.3997C23.893 5.33203 24.6397 5.33203 25.209 5.6227C25.7117 5.8787 26.1197 6.28536 26.3757 6.78803C26.6663 7.35736 26.6663 8.10403 26.6663 9.5947V18.4027C26.6663 19.0654 26.6663 19.58 26.6397 19.9987M5.35834 19.9987H26.6397M22.4037 22.6654C23.8943 22.6654 24.6397 22.6654 25.209 22.3747C25.7113 22.1187 26.1197 21.7103 26.3757 21.208C26.537 20.892 26.609 20.5214 26.6397 19.9987M22.4037 22.6654H24.533C25.2797 22.6654 25.653 22.6654 25.9383 22.52C26.1887 22.3926 26.3923 22.1891 26.5197 21.9387C26.6663 21.652 26.6663 21.2787 26.6663 20.532V19.9987H26.641" stroke="#1169CC" stroke-width="2" stroke-linecap="round" stroke-linejoin="round"/>
</svg>
