<svg width="20" height="20" viewBox="0 0 20 20" fill="none" xmlns="http://www.w3.org/2000/svg">
<path fill-rule="evenodd" clip-rule="evenodd" d="M14.5612 6.18425C14.234 6.04877 13.8833 5.97908 13.5292 5.97917H2.94149C2.48125 5.97917 2.10815 5.60607 2.10815 5.14583C2.10815 4.6856 2.48125 4.3125 2.94149 4.3125H13.5288C13.5287 4.3125 13.5289 4.3125 13.5288 4.3125C14.1018 4.31239 14.6694 4.42516 15.1988 4.64438C15.7283 4.86362 16.2094 5.18503 16.6146 5.59025C17.0198 5.99547 17.3412 6.47655 17.5604 7.00602C17.7797 7.53543 17.8924 8.10283 17.8923 8.67583C17.8923 8.67577 17.8923 8.6759 17.8923 8.67583V10.44C17.8923 10.9002 17.5192 11.2733 17.059 11.2733C16.5988 11.2733 16.2257 10.9002 16.2257 10.44V8.67583C16.2257 8.32171 16.156 7.97083 16.0206 7.64364C15.8851 7.31645 15.6865 7.01916 15.4361 6.76876C15.1857 6.51835 14.8884 6.31973 14.5612 6.18425ZM2.94149 8.72417C3.40173 8.72417 3.77482 9.09726 3.77482 9.5575V11.3225C3.77474 11.6766 3.84441 12.0274 3.97985 12.3545C4.11529 12.6817 4.31385 12.979 4.56419 13.2294C4.81453 13.4797 5.11174 13.6784 5.43886 13.8139C5.76597 13.9494 6.11658 14.0192 6.47065 14.0192H17.0582C17.5184 14.0192 17.8915 14.3923 17.8915 14.8525C17.8915 15.3127 17.5184 15.6858 17.0582 15.6858H6.47065C5.89768 15.6858 5.33031 15.573 4.80096 15.3537C4.27161 15.1344 3.79065 14.8129 3.38554 14.4077C2.98043 14.0025 2.65911 13.5215 2.43993 12.9921C2.22078 12.4627 2.10804 11.8954 2.10815 11.3225C2.10815 11.3224 2.10815 11.3226 2.10815 11.3225V9.5575C2.10815 9.09726 2.48125 8.72417 2.94149 8.72417Z" fill="#070C2B"/>
<path fill-rule="evenodd" clip-rule="evenodd" d="M6.1776 1.91019C6.50299 2.23567 6.50291 2.76331 6.17742 3.0887L4.11936 5.14611L6.17751 7.20426C6.50295 7.5297 6.50295 8.05733 6.17751 8.38277C5.85207 8.70821 5.32444 8.70821 4.999 8.38277L2.3515 5.73527C2.1952 5.57897 2.1074 5.36699 2.10742 5.14595C2.10744 4.92491 2.19527 4.71294 2.35159 4.55667L4.99909 1.91C5.32458 1.58461 5.85222 1.5847 6.1776 1.91019ZM13.8222 11.616C14.1476 11.2905 14.6753 11.2904 15.0008 11.6158L17.6483 14.2625C17.8046 14.4188 17.8924 14.6307 17.8924 14.8518C17.8924 15.0728 17.8046 15.2848 17.6483 15.4411L15.0008 18.0886C14.6754 18.414 14.1478 18.414 13.8223 18.0886C13.4969 17.7632 13.4969 17.2355 13.8223 16.9101L15.8805 14.8519L13.8224 12.7945C13.4969 12.4691 13.4969 11.9415 13.8222 11.616Z" fill="#070C2B"/>
</svg>
