<svg width="19" height="18" viewBox="0 0 19 18" fill="none" xmlns="http://www.w3.org/2000/svg">
<path d="M9.87109 6.75H13.9961L9.87109 2.625V6.75ZM4.62109 1.5H10.6211L15.1211 6V15C15.1211 15.3978 14.9631 15.7794 14.6818 16.0607C14.4004 16.342 14.0189 16.5 13.6211 16.5H4.62109C4.22327 16.5 3.84174 16.342 3.56043 16.0607C3.27913 15.7794 3.12109 15.3978 3.12109 15V3C3.12109 2.1675 3.78859 1.5 4.62109 1.5ZM4.62109 15H13.6211V9L10.6211 12L9.12109 10.5L4.62109 15ZM6.12109 6.75C5.72327 6.75 5.34174 6.90804 5.06043 7.18934C4.77913 7.47064 4.62109 7.85218 4.62109 8.25C4.62109 8.64782 4.77913 9.02936 5.06043 9.31066C5.34174 9.59196 5.72327 9.75 6.12109 9.75C6.51892 9.75 6.90045 9.59196 7.18175 9.31066C7.46306 9.02936 7.62109 8.64782 7.62109 8.25C7.62109 7.85218 7.46306 7.47064 7.18175 7.18934C6.90045 6.90804 6.51892 6.75 6.12109 6.75Z" fill="#9FA1AC"/>
</svg>
