<svg width="25" height="24" viewBox="0 0 25 24" fill="none" xmlns="http://www.w3.org/2000/svg">
<path d="M6.5 11V6.2C6.5 5.08 6.5 4.52 6.718 4.092C6.91 3.715 7.215 3.41 7.592 3.218C8.02 3 8.58 3 9.7 3H14.5M14.5 3C14.786 3.002 14.966 3.014 15.139 3.055C15.3431 3.10416 15.5381 3.18515 15.717 3.295C15.918 3.418 16.092 3.592 16.438 3.938L19.563 7.063C19.909 7.409 20.081 7.581 20.204 7.783C20.3139 7.96183 20.3949 8.1569 20.444 8.361C20.486 8.534 20.496 8.715 20.5 9M14.5 3V5.8C14.5 6.92 14.5 7.48 14.718 7.908C14.9097 8.28431 15.2157 8.59026 15.592 8.782C16.019 9 16.579 9 17.697 9H20.5M20.5 9V17.804C20.5 18.922 20.5 19.481 20.282 19.908C20.0901 20.2842 19.7842 20.5901 19.408 20.782C18.98 21 18.42 21 17.303 21H13.5M9.5 14L11.5 16M4.5 21V18.5L12 11L14.5 13.5L7 21H4.5Z" stroke="#4B5563" stroke-width="2" stroke-linecap="round" stroke-linejoin="round"/>
</svg>
