<svg width="44" height="44" viewBox="0 0 44 44" fill="none" xmlns="http://www.w3.org/2000/svg">
<path d="M23.9983 36.666H10.9999L21.9999 25.666L25.4466 29.1127C26.5833 27.316 28.1599 25.8493 30.0666 24.9327L32.9999 21.9993V23.9977C33.6049 23.906 34.2099 23.8327 34.8333 23.8327C35.4566 23.8327 36.0616 23.906 36.6666 23.9977V14.666L25.6666 3.66602H10.9999C8.96492 3.66602 7.33325 5.29768 7.33325 7.33268V36.666C7.33325 37.6385 7.71956 38.5711 8.40719 39.2587C9.09483 39.9464 10.0275 40.3327 10.9999 40.3327H25.3183C24.6766 39.2143 24.2183 37.986 23.9983 36.666ZM23.8333 6.41602L33.9166 16.4993H23.8333V6.41602ZM14.6666 16.4993C15.639 16.4993 16.5717 16.8857 17.2593 17.5733C17.9469 18.2609 18.3333 19.1936 18.3333 20.166C18.3333 21.1385 17.9469 22.0711 17.2593 22.7587C16.5717 23.4464 15.639 23.8327 14.6666 23.8327C12.6316 23.8327 10.9999 22.201 10.9999 20.166C10.9999 18.131 12.6499 16.4993 14.6666 16.4993ZM36.6666 27.4993V32.9993H42.1666V36.666H36.6666V42.166H32.9999V36.666H27.4999V32.9993H32.9999V27.4993H36.6666Z" fill="#E1E6EC"/>
</svg>
