<svg width="24" height="24" viewBox="0 0 24 24" fill="none" xmlns="http://www.w3.org/2000/svg">
<path d="M19 11C19 10.0807 18.8189 9.17049 18.4672 8.32122C18.1154 7.47194 17.5998 6.70026 16.9497 6.05025C16.2997 5.40024 15.5281 4.88463 14.6788 4.53284C13.8295 4.18106 12.9193 4 12 4C11.0807 4 10.1705 4.18106 9.32122 4.53284C8.47194 4.88463 7.70026 5.40024 7.05025 6.05025C6.40024 6.70026 5.88463 7.47194 5.53284 8.32122C5.18106 9.17049 5 10.0807 5 11M16 14.5V16.5C16 16.965 16 17.197 16.038 17.39C16.1151 17.7782 16.3056 18.1347 16.5855 18.4145C16.8653 18.6944 17.2218 18.8849 17.61 18.962C17.803 19 18.035 19 18.5 19C18.965 19 19.197 19 19.39 18.962C19.778 18.8847 20.1343 18.6941 20.4139 18.4143C20.6936 18.1345 20.884 17.778 20.961 17.39C21 17.197 21 16.965 21 16.5V14.5C21 14.035 21 13.803 20.961 13.61C20.884 13.2221 20.6938 12.8657 20.4144 12.5859C20.1349 12.3061 19.7788 12.1155 19.391 12.038C19.196 12 18.964 12 18.5 12C18.036 12 17.803 12 17.61 12.038C17.222 12.115 16.8655 12.3054 16.5857 12.585C16.3059 12.8647 16.1153 13.221 16.038 13.609C16 13.803 16 14.035 16 14.5ZM8 14.5V16.5C8 16.965 8 17.197 7.961 17.39C7.88403 17.7779 7.69381 18.1343 7.41436 18.4141C7.13491 18.6939 6.77879 18.8845 6.391 18.962C6.196 19 5.964 19 5.5 19C5.036 19 4.803 19 4.61 18.962C4.22184 18.8849 3.86529 18.6944 3.58546 18.4145C3.30563 18.1347 3.1151 17.7782 3.038 17.39C3 17.197 3 16.965 3 16.5V14.5C3 14.035 3 13.803 3.038 13.61C3.1151 13.2218 3.30563 12.8653 3.58546 12.5855C3.86529 12.3056 4.22184 12.1151 4.61 12.038C4.803 12 5.035 12 5.5 12C5.965 12 6.197 12 6.39 12.038C6.77784 12.1152 7.13408 12.3057 7.41371 12.5853C7.69333 12.8649 7.88379 13.2212 7.961 13.609C8 13.803 8 14.035 8 14.5Z" stroke="#F3F5F7" stroke-width="2" stroke-linecap="round" stroke-linejoin="round"/>
</svg>
