<svg width="32" height="32" viewBox="0 0 32 32" fill="none" xmlns="http://www.w3.org/2000/svg">
<path fill-rule="evenodd" clip-rule="evenodd" d="M12.6663 5.33268C12.4895 5.33268 12.32 5.40292 12.1949 5.52794C12.0699 5.65297 11.9997 5.82254 11.9997 5.99935C11.9997 6.8834 12.3509 7.73125 12.976 8.35637C13.6011 8.98149 14.449 9.33268 15.333 9.33268H16.6663C17.5504 9.33268 18.3982 8.98149 19.0234 8.35637C19.6485 7.73125 19.9997 6.8834 19.9997 5.99935C19.9997 5.82254 19.9294 5.65297 19.8044 5.52794C19.6794 5.40292 19.5098 5.33268 19.333 5.33268H12.6663ZM10.3093 3.64233C10.9344 3.01721 11.7823 2.66602 12.6663 2.66602H19.333C20.2171 2.66602 21.0649 3.01721 21.69 3.64233C22.3152 4.26745 22.6663 5.11529 22.6663 5.99935C22.6663 7.59065 22.0342 9.11677 20.909 10.242C19.7838 11.3672 18.2576 11.9993 16.6663 11.9993H15.333C13.7417 11.9993 12.2156 11.3672 11.0904 10.242C9.96515 9.11677 9.33301 7.59065 9.33301 5.99935C9.33301 5.11529 9.6842 4.26745 10.3093 3.64233Z" fill="#1169CC"/>
<path fill-rule="evenodd" clip-rule="evenodd" d="M16 11.9987C13.5246 11.9987 11.1507 12.982 9.40034 14.7324C7.65 16.4827 6.66667 18.8567 6.66667 21.332V22.6654C6.66667 23.7262 7.08809 24.7436 7.83824 25.4938C8.58839 26.2439 9.6058 26.6654 10.6667 26.6654H21.3333C22.3942 26.6654 23.4116 26.2439 24.1618 25.4938C24.9119 24.7436 25.3333 23.7262 25.3333 22.6654V21.332C25.3333 18.8567 24.35 16.4827 22.5997 14.7324C20.8493 12.982 18.4754 11.9987 16 11.9987ZM7.51472 12.8467C9.76516 10.5963 12.8174 9.33203 16 9.33203C19.1826 9.33203 22.2348 10.5963 24.4853 12.8467C26.7357 15.0972 28 18.1494 28 21.332V22.6654C28 24.4335 27.2976 26.1292 26.0474 27.3794C24.7971 28.6297 23.1014 29.332 21.3333 29.332H10.6667C8.89856 29.332 7.20286 28.6297 5.95262 27.3794C4.70238 26.1292 4 24.4335 4 22.6654V21.332C4 18.1494 5.26428 15.0972 7.51472 12.8467Z" fill="#1169CC"/>
</svg>
