<svg width="20" height="20" viewBox="0 0 20 20" fill="none" xmlns="http://www.w3.org/2000/svg">
<path d="M11.25 8.75C11.25 9.41304 10.9866 10.0489 10.5178 10.5178C10.0489 10.9866 9.41304 11.25 8.75 11.25C8.08696 11.25 7.45107 10.9866 6.98223 10.5178C6.51339 10.0489 6.25 9.41304 6.25 8.75C6.25 8.08696 6.51339 7.45107 6.98223 6.98223C7.45107 6.51339 8.08696 6.25 8.75 6.25C9.41304 6.25 10.0489 6.51339 10.5178 6.98223C10.9866 7.45107 11.25 8.08696 11.25 8.75ZM10 8.75C10 8.41848 9.8683 8.10054 9.63388 7.86612C9.39946 7.6317 9.08152 7.5 8.75 7.5C8.41848 7.5 8.10054 7.6317 7.86612 7.86612C7.6317 8.10054 7.5 8.41848 7.5 8.75C7.5 9.08152 7.6317 9.39946 7.86612 9.63388C8.10054 9.8683 8.41848 10 8.75 10C9.08152 10 9.39946 9.8683 9.63388 9.63388C9.8683 9.39946 10 9.08152 10 8.75ZM1.25 5.3125C1.25 4.45 1.95 3.75 2.8125 3.75H14.6875C15.55 3.75 16.25 4.45 16.25 5.3125V12.1875C16.25 13.05 15.55 13.75 14.6875 13.75H2.8125C1.95 13.75 1.25 13.05 1.25 12.1875V5.3125ZM2.8125 5C2.72962 5 2.65013 5.03292 2.59153 5.09153C2.53292 5.15013 2.5 5.22962 2.5 5.3125V6.25H3.125C3.29076 6.25 3.44973 6.18415 3.56694 6.06694C3.68415 5.94973 3.75 5.79076 3.75 5.625V5H2.8125ZM2.5 12.1875C2.5 12.36 2.64 12.5 2.8125 12.5H3.75V11.875C3.75 11.7092 3.68415 11.5503 3.56694 11.4331C3.44973 11.3158 3.29076 11.25 3.125 11.25H2.5V12.1875ZM5 11.875V12.5H12.5V11.875C12.5 11.3777 12.6975 10.9008 13.0492 10.5492C13.4008 10.1975 13.8777 10 14.375 10H15V7.5H14.375C13.8777 7.5 13.4008 7.30246 13.0492 6.95083C12.6975 6.59919 12.5 6.12228 12.5 5.625V5H5V5.625C5 6.12228 4.80246 6.59919 4.45083 6.95083C4.09919 7.30246 3.62228 7.5 3.125 7.5H2.5V10H3.125C3.62228 10 4.09919 10.1975 4.45083 10.5492C4.80246 10.9008 5 11.3777 5 11.875ZM13.75 12.5H14.6875C14.7704 12.5 14.8499 12.4671 14.9085 12.4085C14.9671 12.3499 15 12.2704 15 12.1875V11.25H14.375C14.2092 11.25 14.0503 11.3158 13.9331 11.4331C13.8158 11.5503 13.75 11.7092 13.75 11.875V12.5ZM15 6.25V5.3125C15 5.22962 14.9671 5.15013 14.9085 5.09153C14.8499 5.03292 14.7704 5 14.6875 5H13.75V5.625C13.75 5.79076 13.8158 5.94973 13.9331 6.06694C14.0503 6.18415 14.2092 6.25 14.375 6.25H15ZM5.625 16.25C5.22902 16.2502 4.84317 16.1249 4.52273 15.8923C4.2023 15.6597 3.96374 15.3316 3.84125 14.955C4.015 14.985 4.1925 15 4.375 15H14.6875C15.4334 15 16.1488 14.7037 16.6762 14.1762C17.2037 13.6488 17.5 12.9334 17.5 12.1875V6.35625C17.8657 6.48555 18.1823 6.7251 18.4062 7.04189C18.6301 7.35867 18.7502 7.73709 18.75 8.125V12.1875C18.75 12.721 18.6449 13.2493 18.4408 13.7422C18.2366 14.235 17.9374 14.6829 17.5601 15.0601C17.1829 15.4374 16.735 15.7366 16.2422 15.9408C15.7493 16.1449 15.221 16.25 14.6875 16.25H5.625Z" fill="#070C2B"/>
</svg>
