<svg width="20" height="20" viewBox="0 0 20 20" fill="none" xmlns="http://www.w3.org/2000/svg">
<path d="M10 7.04167V10.375M6.11 3.28167L3.28167 6.11L3.27833 6.1125C2.9925 6.39833 2.84833 6.5425 2.745 6.71C2.65417 6.85917 2.58667 7.02167 2.54583 7.19167C2.5 7.38333 2.5 7.5875 2.5 7.995V12.005C2.5 12.4125 2.5 12.6158 2.54583 12.8083C2.58681 12.9784 2.6543 13.1409 2.74583 13.29C2.84917 13.4575 2.99333 13.6025 3.28167 13.89L6.11 16.7192C6.39833 17.0075 6.54167 17.1508 6.71 17.2542C6.85917 17.3458 7.02167 17.4125 7.19167 17.4542C7.38333 17.5 7.58667 17.5 7.99333 17.5H12.0067C12.4125 17.5 12.6167 17.5 12.8083 17.4542C12.9783 17.4125 13.1417 17.3458 13.29 17.2542C13.4583 17.1508 13.6025 17.0075 13.89 16.7192L16.7192 13.8908C17.0075 13.6025 17.1517 13.4575 17.2542 13.29C17.3458 13.14 17.4125 12.9783 17.4542 12.8083C17.5 12.6167 17.5 12.4125 17.5 12.005V7.995C17.5 7.5875 17.5 7.38417 17.4533 7.19167C17.4126 7.02166 17.3454 6.85912 17.2542 6.71C17.1517 6.54167 17.0075 6.39833 16.7192 6.11L13.8917 3.28167C13.6033 2.99333 13.4592 2.84833 13.2917 2.74583C13.1423 2.65421 12.9795 2.58671 12.8092 2.54583C12.6167 2.5 12.4125 2.5 12.0042 2.5H7.995C7.58667 2.5 7.38333 2.5 7.19167 2.54583C7.0217 2.58707 6.85919 2.65455 6.71 2.74583C6.54333 2.8475 6.40167 2.99 6.11833 3.27333L6.11 3.28167ZM10.0417 12.875V12.9583H9.95833V12.875H10.0417Z" stroke="black" stroke-width="2" stroke-linecap="round" stroke-linejoin="round"/>
</svg>
