<svg width="24" height="24" viewBox="0 0 24 24" fill="none" xmlns="http://www.w3.org/2000/svg">
<path d="M15 9L11 13L9 11M20 10.165C20 16.733 15.032 19.678 12.926 20.631L12.923 20.633C12.702 20.733 12.591 20.783 12.339 20.826C12.179 20.854 11.821 20.854 11.662 20.826C11.4571 20.7918 11.2587 20.726 11.074 20.631C8.968 19.678 4 16.733 4 10.165V6.2C4 5.08 4 4.52 4.218 4.092C4.41 3.715 4.715 3.41 5.092 3.218C5.52 3 6.08 3 7.2 3H16.8C17.92 3 18.48 3 18.907 3.218C19.284 3.41 19.59 3.715 19.782 4.092C20 4.519 20 5.079 20 6.197V10.165Z" stroke="#070C2B" stroke-width="2" stroke-linecap="round" stroke-linejoin="round"/>
</svg>
