<svg width="20" height="20" viewBox="0 0 20 20" fill="none" xmlns="http://www.w3.org/2000/svg">
<path d="M12.4997 7.5L9.16634 10.8333L7.49967 9.16667M16.6663 8.47083C16.6663 13.9442 12.5263 16.3983 10.7713 17.1925L10.7688 17.1942C10.5847 17.2775 10.4922 17.3192 10.2822 17.355C10.1488 17.3783 9.85051 17.3783 9.71801 17.355C9.54726 17.3265 9.38196 17.2717 9.22801 17.1925C7.47301 16.3983 3.33301 13.9442 3.33301 8.47083V5.16667C3.33301 4.23333 3.33301 3.76667 3.51467 3.41C3.67467 3.09583 3.92884 2.84167 4.24301 2.68167C4.59967 2.5 5.06634 2.5 5.99967 2.5H13.9997C14.933 2.5 15.3997 2.5 15.7555 2.68167C16.0697 2.84167 16.3247 3.09583 16.4847 3.41C16.6663 3.76583 16.6663 4.2325 16.6663 5.16417V8.47083Z" stroke="#070C2B" stroke-width="2" stroke-linecap="round" stroke-linejoin="round"/>
</svg>
