<svg width="32" height="32" viewBox="0 0 32 32" fill="none" xmlns="http://www.w3.org/2000/svg">
<path d="M5 7.19916C5.00019 6.8 5.10896 6.40841 5.31465 6.06633C5.52034 5.72426 5.8152 5.44459 6.16765 5.25728C6.52011 5.06997 6.91687 4.98209 7.31544 5.00303C7.71402 5.02398 8.09939 5.15297 8.43027 5.37618C8.76116 5.5994 9.02509 5.90844 9.1938 6.27019C9.36251 6.63194 9.42964 7.03277 9.388 7.42976C9.34636 7.82674 9.19751 8.20492 8.95741 8.52378C8.71731 8.84264 8.395 9.09017 8.025 9.23986V15.1749H15.175V9.23986C14.7017 9.04838 14.3097 8.69824 14.0663 8.24944C13.8228 7.80064 13.743 7.28113 13.8405 6.77993C13.938 6.27874 14.2068 5.82706 14.6008 5.50233C14.9948 5.17759 15.4895 5 16 5C16.5106 5 17.0052 5.17759 17.3992 5.50233C17.7932 5.82706 18.062 6.27874 18.1595 6.77993C18.257 7.28113 18.1772 7.80064 17.9337 8.24944C17.6903 8.69824 17.2983 9.04838 16.825 9.23986V15.1749H20.4C21.4604 15.1749 22.1732 15.1727 22.7045 15.1023C23.2116 15.033 23.4294 14.9153 23.5724 14.7723C23.7154 14.6293 23.8331 14.4114 23.9024 13.9032C23.9728 13.3729 23.975 12.6601 23.975 11.5996V9.23986C23.5017 9.04838 23.1097 8.69824 22.8663 8.24944C22.6228 7.80064 22.543 7.28113 22.6405 6.77993C22.738 6.27874 23.0068 5.82706 23.4008 5.50233C23.7948 5.17759 24.2894 5 24.8 5C25.3105 5 25.8052 5.17759 26.1992 5.50233C26.5932 5.82706 26.862 6.27874 26.9595 6.77993C27.057 7.28113 26.9772 7.80064 26.7337 8.24944C26.4903 8.69824 26.0983 9.04838 25.625 9.23986V11.6568C25.625 12.6447 25.625 13.4698 25.537 14.1232C25.4446 14.8141 25.24 15.4378 24.7384 15.9384C24.2379 16.44 23.6142 16.6447 22.9234 16.7371C22.27 16.8251 21.4461 16.8251 20.4572 16.8251H16.825V22.7601C17.2983 22.9516 17.6903 23.3018 17.9337 23.7506C18.1772 24.1994 18.257 24.7189 18.1595 25.2201C18.062 25.7213 17.7932 26.1729 17.3992 26.4977C17.0052 26.8224 16.5106 27 16 27C15.4895 27 14.9948 26.8224 14.6008 26.4977C14.2068 26.1729 13.938 25.7213 13.8405 25.2201C13.743 24.7189 13.8228 24.1994 14.0663 23.7506C14.3097 23.3018 14.7017 22.9516 15.175 22.7601V16.8251H8.025V22.7601C8.49829 22.9516 8.89026 23.3018 9.13373 23.7506C9.3772 24.1994 9.45702 24.7189 9.35949 25.2201C9.26197 25.7213 8.99318 26.1729 8.59919 26.4977C8.20521 26.8224 7.71055 27 7.2 27C6.68945 27 6.1948 26.8224 5.80081 26.4977C5.40682 26.1729 5.13804 25.7213 5.04051 25.2201C4.94299 24.7189 5.0228 24.1994 5.26627 23.7506C5.50974 23.3018 5.90171 22.9516 6.375 22.7601V9.23986C5.96859 9.07544 5.62056 8.79333 5.37557 8.42973C5.13058 8.06613 4.9998 7.63761 5 7.19916Z" fill="#070C2B"/>
<path fill-rule="evenodd" clip-rule="evenodd" d="M22 19.7941C22 19.5835 22.0862 19.3815 22.2396 19.2326C22.3931 19.0837 22.6012 19 22.8182 19H25.312C26.812 19 28 20.2007 28 21.647C28.002 22.1913 27.8312 22.7229 27.5109 23.1696C27.1906 23.6163 26.7363 23.9564 26.2098 24.1437L27.8789 26.7907C27.9351 26.8797 27.9726 26.9785 27.9894 27.0815C28.0063 27.1845 28.002 27.2897 27.9769 27.3911C27.9519 27.4925 27.9065 27.5882 27.8433 27.6725C27.7802 27.7569 27.7005 27.8284 27.6089 27.8829C27.5173 27.9374 27.4155 27.9739 27.3094 27.9902C27.2032 28.0065 27.0948 28.0024 26.9903 27.9781C26.8858 27.9537 26.7873 27.9097 26.7004 27.8484C26.6134 27.7871 26.5398 27.7098 26.4836 27.6209L24.3858 24.2941H23.6364V27.2058C23.6364 27.4164 23.5502 27.6184 23.3967 27.7673C23.2433 27.9162 23.0352 27.9999 22.8182 27.9999C22.6012 27.9999 22.3931 27.9162 22.2396 27.7673C22.0862 27.6184 22 27.4164 22 27.2058V19.7941ZM23.6364 22.7058H25.312C25.8771 22.7058 26.3636 22.2474 26.3636 21.647C26.3636 21.0467 25.8771 20.5882 25.312 20.5882H23.6364V22.7058Z" fill="#070C2B"/>
</svg>
