<svg width="32" height="32" viewBox="0 0 32 32" fill="none" xmlns="http://www.w3.org/2000/svg">
<path d="M14.8002 5.66642C12.8768 5.88451 11.0526 6.63537 9.533 7.83442L10.8482 9.15122C11.0602 9.3787 11.1756 9.67957 11.1701 9.99046C11.1646 10.3013 11.0387 10.598 10.8188 10.8178C10.5989 11.0377 10.3023 11.1636 9.99143 11.1691C9.68055 11.1746 9.37967 11.0592 9.15219 10.8472L7.8306 9.52722C6.70736 10.9361 5.97654 12.6169 5.7122 14.3992H8.4002C8.71846 14.3992 9.02368 14.5256 9.24872 14.7507C9.47377 14.9757 9.6002 15.281 9.6002 15.5992C9.6002 15.9175 9.47377 16.2227 9.24872 16.4477C9.02368 16.6728 8.71846 16.7992 8.4002 16.7992H5.6402C5.88931 19.3671 7.06292 21.7569 8.9426 23.524C9.16931 23.743 9.30075 24.0424 9.30854 24.3575C9.31632 24.6726 9.19982 24.9781 8.9842 25.208C8.76858 25.4379 8.47116 25.5738 8.15621 25.5862C7.84125 25.5986 7.53406 25.4866 7.301 25.2744C4.837 22.9656 3.2002 19.5608 3.2002 15.908C3.2002 8.88082 8.9394 3.19922 16.0002 3.19922C23.061 3.19922 28.8002 8.87922 28.8002 15.908C28.797 17.6617 28.4371 19.3965 27.7423 21.0067C27.0475 22.6169 26.0323 24.069 24.7586 25.2744C24.5255 25.4866 24.2183 25.5986 23.9034 25.5862C23.5884 25.5738 23.291 25.4379 23.0754 25.208C22.8598 24.9781 22.7433 24.6726 22.7511 24.3575C22.7588 24.0424 22.8903 23.743 23.117 23.524C24.9836 21.754 26.1378 19.3619 26.3618 16.7992H23.6002C23.2819 16.7992 22.9767 16.6728 22.7517 16.4477C22.5266 16.2227 22.4002 15.9175 22.4002 15.5992C22.4002 15.281 22.5266 14.9757 22.7517 14.7507C22.9767 14.5256 23.2819 14.3992 23.6002 14.3992H26.2882C25.6098 9.81362 21.8834 6.19922 17.2002 5.66642V7.59922C17.2002 7.91748 17.0738 8.2227 16.8487 8.44775C16.6237 8.67279 16.3185 8.79922 16.0002 8.79922C15.6819 8.79922 15.3767 8.67279 15.1517 8.44775C14.9266 8.2227 14.8002 7.91748 14.8002 7.59922V5.66642ZM21.5186 9.29042C21.664 9.17494 21.845 9.11364 22.0307 9.11701C22.2163 9.12038 22.395 9.18822 22.5361 9.3089C22.6772 9.42958 22.7719 9.59558 22.8041 9.77845C22.8362 9.96132 22.8037 10.1497 22.7122 10.3112L22.5362 10.6248C21.8928 11.761 21.2453 12.8949 20.5938 14.0264C20.0729 14.9319 19.5449 15.8333 19.0098 16.7304C18.8093 17.0679 18.6044 17.4029 18.3954 17.7352C18.2354 17.9864 18.0786 18.2248 17.9634 18.3592C17.5501 18.8434 16.9614 19.1436 16.3267 19.1937C15.6921 19.2438 15.0636 19.0397 14.5794 18.6264C14.0952 18.2131 13.7951 17.6244 13.7449 16.9898C13.6948 16.3551 13.8989 15.7266 14.3122 15.2424C14.4274 15.108 14.637 14.9144 14.861 14.7176C15.101 14.5048 15.4098 14.244 15.757 13.9512C16.4546 13.3688 17.3282 12.6552 18.181 11.9672C19.1963 11.1459 20.2149 10.3289 21.237 9.51602L21.5186 9.29042Z" fill="#1169CC"/>
</svg>
