<svg width="20" height="20" viewBox="0 0 20 20" fill="none" xmlns="http://www.w3.org/2000/svg">
<path d="M3.95676 6.37046L3.68092 9.40712C3.63926 9.85712 3.61926 10.083 3.65592 10.2988C3.68958 10.4909 3.75671 10.6757 3.85426 10.8446C3.96342 11.0346 4.12509 11.1963 4.44676 11.518L8.76009 15.8313C9.41592 16.4871 9.74342 16.8146 10.1234 16.938C10.4584 17.0471 10.8193 17.0471 11.1543 16.938C11.5343 16.8146 11.8651 16.4846 12.5251 15.8246L15.8251 12.5246C16.4851 11.8646 16.8143 11.5346 16.9384 11.1546C17.0469 10.8198 17.0466 10.4593 16.9376 10.1246C16.8143 9.74379 16.4851 9.41379 15.8251 8.75379L11.5226 4.45129C11.1976 4.12629 11.0359 3.96462 10.8451 3.85462C10.6759 3.75699 10.4909 3.68985 10.2984 3.65629C10.0818 3.61879 9.85259 3.63962 9.39509 3.68129L6.37009 3.95629C5.58342 4.02796 5.18926 4.06379 4.88092 4.23546C4.60971 4.3864 4.38603 4.61007 4.23509 4.88129C4.06426 5.18796 4.02842 5.57962 3.95759 6.35879L3.95676 6.37046Z" stroke="#070C2B" stroke-width="2" stroke-linecap="round" stroke-linejoin="round"/>
<path d="M8.09398 8.09454C8.17135 8.01712 8.23272 7.92521 8.27457 7.82407C8.31642 7.72293 8.33794 7.61454 8.3379 7.50508C8.33786 7.39563 8.31627 7.28725 8.27434 7.18614C8.23242 7.08503 8.17099 6.99316 8.09357 6.91579C8.01614 6.83842 7.92424 6.77706 7.8231 6.73521C7.72196 6.69336 7.61356 6.67184 7.50411 6.67188C7.39465 6.67191 7.28627 6.69351 7.18516 6.73543C7.08405 6.77736 6.99219 6.83879 6.91482 6.91621C6.75856 7.07258 6.67082 7.28461 6.6709 7.50567C6.67094 7.61513 6.69253 7.72351 6.73446 7.82462C6.77638 7.92573 6.83781 8.01759 6.91523 8.09496C6.99266 8.17233 7.08457 8.23369 7.18571 8.27555C7.28685 8.3174 7.39524 8.33892 7.5047 8.33888C7.72575 8.3388 7.93773 8.25091 8.09398 8.09454Z" stroke="#070C2B" stroke-width="2" stroke-linecap="round" stroke-linejoin="round"/>
</svg>
