<svg width="32" height="32" viewBox="0 0 32 32" fill="none" xmlns="http://www.w3.org/2000/svg">
<path fill-rule="evenodd" clip-rule="evenodd" d="M7.94192 6.89002C7.94192 6.14829 8.54321 5.547 9.28494 5.547H22.7152C23.4569 5.547 24.0582 6.14829 24.0582 6.89002C24.0582 7.63175 23.4569 8.23304 22.7152 8.23304H9.28494C8.54321 8.23304 7.94192 7.63175 7.94192 6.89002ZM7.94189 11.4351C7.94189 10.6933 8.54319 10.092 9.28492 10.092H22.7151C23.4569 10.092 24.0582 10.6933 24.0582 11.4351C24.0582 12.1768 23.4569 12.7781 22.7151 12.7781H17.343L17.343 25.1101C17.343 25.8518 16.7418 26.4531 16 26.4531C15.2583 26.4531 14.657 25.8518 14.657 25.1101L14.657 12.7781H9.28492C8.54319 12.7781 7.94189 12.1768 7.94189 11.4351Z" fill="#070C2B"/>
</svg>
