<svg width="20" height="20" viewBox="0 0 20 20" fill="none" xmlns="http://www.w3.org/2000/svg">
<path d="M14.1667 12.4993H10M5.83333 8.33268L8.33333 10.416L5.83333 12.4993M2.5 13.166V6.83268C2.5 5.89935 2.5 5.43268 2.68167 5.07602C2.84167 4.76185 3.09583 4.50768 3.41 4.34768C3.76667 4.16602 4.23333 4.16602 5.16667 4.16602H14.8333C15.7667 4.16602 16.2333 4.16602 16.5892 4.34768C16.9033 4.50768 17.1583 4.76185 17.3183 5.07602C17.5 5.43185 17.5 5.89852 17.5 6.83018V13.1685C17.5 14.1002 17.5 14.566 17.3183 14.9218C17.1583 15.2358 16.9031 15.491 16.5892 15.651C16.2333 15.8327 15.7675 15.8327 14.8358 15.8327H5.16417C4.2325 15.8327 3.76583 15.8327 3.41 15.651C3.09632 15.491 2.84136 15.2357 2.68167 14.9218C2.5 14.566 2.5 14.0993 2.5 13.166Z" stroke="#070C2B" stroke-width="2" stroke-linecap="round" stroke-linejoin="round"/>
</svg>
