<svg width="16" height="16" viewBox="0 0 16 16" fill="none" xmlns="http://www.w3.org/2000/svg">
<path d="M14.7069 4.569C14.6276 4.26621 14.4732 3.99207 14.2601 3.77574C14.0409 3.55276 13.7724 3.39325 13.4797 3.31228C12.3843 3.0031 7.99592 3.0031 7.99592 3.0031C6.16644 2.98081 4.33741 3.07885 2.51916 3.29667C2.22647 3.38362 1.95839 3.54669 1.73876 3.77137C1.52296 3.99373 1.36664 4.26794 1.28499 4.56838C1.08884 5.70001 0.993531 6.84905 1.00036 8C0.993361 9.14991 1.08843 10.2986 1.28499 11.4316C1.36489 11.7308 1.52062 12.0038 1.73701 12.2243C1.9534 12.4447 2.22286 12.604 2.51916 12.6883C3.62909 12.9969 7.99592 12.9969 7.99592 12.9969C9.82773 13.0192 11.6591 12.9212 13.4797 12.7033C13.7724 12.6224 14.0409 12.4628 14.2601 12.2399C14.4759 12.0194 14.6293 11.7452 14.7063 11.4466C14.9075 10.3154 15.0054 9.16589 14.9985 8.01436C15.0136 6.85796 14.9159 5.70302 14.7069 4.56838V4.569ZM6.60077 10.1387V5.86195L10.2519 8.00062L6.60077 10.1387Z" fill="#8587B4"/>
</svg>
