<svg width="29" height="29" viewBox="0 0 29 29" fill="none" xmlns="http://www.w3.org/2000/svg">
<path d="M18.9498 23.17H10.0798C8.65981 23.17 7.87981 23.17 7.16981 22.81C6.53981 22.49 6.03981 21.98 5.70981 21.35C5.34981 20.64 5.34981 19.86 5.34981 18.44V12.37C5.34981 12.03 5.34981 11.74 5.36981 11.49C4.77981 11.47 4.38981 11.4 4.02981 11.18C3.68981 10.97 3.40981 10.67 3.22981 10.31C3.04981 9.95 2.96981 9.55 2.99981 9.15C3.04981 8.54 3.39981 8.07 4.08981 7.13C4.30981 6.84 4.42981 6.67 4.61981 6.51C4.87981 6.29 5.18981 6.14 5.51981 6.06C5.76981 6 5.97981 6 6.30981 6H22.6998C23.0298 6 23.2498 6 23.4898 6.06C23.8098 6.14 24.1198 6.29 24.3798 6.51C24.5798 6.68 24.7098 6.85 24.8998 7.12C25.5998 8.07 25.9498 8.54 26.0098 9.15C26.0398 9.55 25.9698 9.95 25.7898 10.31C25.6098 10.67 25.3298 10.97 24.9898 11.18C24.6298 11.4 24.2398 11.47 23.6498 11.49C23.6698 11.74 23.6698 12.02 23.6698 12.35V18.43C23.6698 19.85 23.6698 20.63 23.3098 21.34C22.9898 21.96 22.4798 22.48 21.8498 22.8C21.1398 23.16 20.3598 23.16 18.9398 23.16L18.9498 23.17ZM8.21981 11.5C7.86981 11.5 7.51981 11.5 7.41981 11.53C7.41981 11.53 7.38981 11.56 7.36981 11.59C7.34981 11.66 7.34981 12.02 7.34981 12.37V18.44C7.34981 19.51 7.34981 20.16 7.49981 20.44C7.62981 20.69 7.82981 20.9 8.07981 21.02C8.36981 21.17 9.00981 21.17 10.0798 21.17H18.9498C20.0198 21.17 20.6598 21.17 20.9498 21.02C21.1998 20.89 21.4098 20.69 21.5398 20.44C21.6798 20.16 21.6798 19.51 21.6798 18.44V12.36C21.6798 12.02 21.6798 11.67 21.6498 11.57C21.6498 11.57 21.6198 11.54 21.5898 11.52C21.5198 11.5 21.1598 11.5 20.8098 11.5H8.21981ZM20.8198 9.5H22.7098C23.2698 9.5 23.8498 9.5 23.9998 9.45L24.0298 9.32C23.9898 9.22 23.6398 8.76 23.3098 8.3C23.2098 8.17 23.1598 8.09 23.0998 8.03C22.9598 7.99 22.8698 7.99 22.6998 7.99H6.31981C6.15981 7.99 6.05981 7.99 5.97981 7.99C5.86981 8.07 5.81981 8.15 5.72981 8.27C5.36981 8.75 5.02981 9.21 4.97981 9.36L5.06981 9.46C5.16981 9.48 5.74981 9.48 6.30981 9.48H20.8098L20.8198 9.5ZM16.8498 17.33H12.1798C11.6298 17.33 11.1798 16.88 11.1798 16.33C11.1798 15.78 11.6298 15.33 12.1798 15.33H16.8498C17.3998 15.33 17.8498 15.78 17.8498 16.33C17.8498 16.88 17.3998 17.33 16.8498 17.33Z" fill="#070C2B"/>
</svg>
