<svg width="32" height="32" viewBox="0 0 32 32" fill="none" xmlns="http://www.w3.org/2000/svg">
<path d="M21.5068 4.28951C17.861 3.67954 14.1393 3.67954 10.4935 4.28951C9.843 4.398 9.24073 4.70129 8.76627 5.15933C8.29181 5.61736 7.96749 6.20858 7.83616 6.85484C6.61433 12.919 6.54739 19.1592 7.63882 25.2482L8.08416 27.7282C8.11565 27.9013 8.19333 28.0626 8.30899 28.1952C8.42466 28.3277 8.574 28.4265 8.74122 28.4812C8.90844 28.5358 9.08732 28.5443 9.25894 28.5056C9.43056 28.4669 9.58853 28.3826 9.71616 28.2615L15.0802 23.1655C15.328 22.9299 15.6569 22.7985 15.9988 22.7985C16.3408 22.7985 16.6697 22.9299 16.9175 23.1655L22.2815 28.2615C22.4091 28.3826 22.5671 28.4669 22.7387 28.5056C22.9103 28.5443 23.0892 28.5358 23.2564 28.4812C23.4236 28.4265 23.573 28.3277 23.6887 28.1952C23.8043 28.0626 23.882 27.9013 23.9135 27.7282L24.3588 25.2482C25.4503 19.1592 25.3833 12.919 24.1615 6.85484C24.0306 6.2087 23.7068 5.61746 23.2328 5.15921C22.7588 4.70096 22.157 4.39724 21.5068 4.28818" fill="#316BE6"/>
</svg>
