<svg width="32" height="32" viewBox="0 0 32 32" fill="none" xmlns="http://www.w3.org/2000/svg">
<path d="M9.94839 15.2937L9.94588 18.0531C9.94324 18.4224 9.83343 18.783 9.62979 19.0912C9.42615 19.3993 9.13743 19.6417 8.79868 19.7889L6.44494 20.7969C6.09947 20.9425 5.71862 20.9826 5.3504 20.9121C4.98218 20.8416 4.64306 20.6637 4.37579 20.4008L1.29897 17.3184C1.12024 17.1365 0.980168 16.9203 0.887194 16.6828C0.79422 16.4453 0.750266 16.1915 0.757979 15.9366C0.765692 15.6816 0.824911 15.4309 0.93207 15.1995C1.03923 14.9681 1.19212 14.7607 1.38152 14.5899C13.9071 3.55164 26.2557 11.1634 30.5209 14.5364C30.7292 14.7032 30.8998 14.9122 31.0214 15.1497C31.1431 15.3872 31.2131 15.6478 31.2268 15.9143C31.2405 16.1808 31.1976 16.4471 31.101 16.6959C31.0044 16.9446 30.8562 17.1701 30.6662 17.3574L27.6886 20.3296C27.4221 20.5941 27.0826 20.7727 26.7137 20.8427C26.3448 20.9126 25.9635 20.8705 25.6187 20.7219L23.2668 19.7097C22.9261 19.566 22.6354 19.3251 22.4308 19.0171C22.2262 18.7091 22.117 18.3476 22.1166 17.9779L22.1191 15.2186C22.1191 15.2186 15.9517 10.6305 9.94839 15.2937Z" fill="#070C2B"/>
</svg>
