<svg width="32" height="32" viewBox="0 0 32 32" fill="none" xmlns="http://www.w3.org/2000/svg">
<path d="M16 29C14.289 29 12.6116 28.6647 11.0181 28.011C9.44129 27.3572 8.01548 26.4017 6.80774 25.1947C5.6 23.9877 4.64387 22.5629 3.98968 20.9703C3.33548 19.3778 3 17.7182 3 15.9916C3 14.265 3.33548 12.6054 3.98968 11.0129C4.64387 9.42037 5.6 8.01225 6.80774 6.80529C8.01548 5.59832 9.44129 4.64281 11.0181 3.98904C12.6116 3.33527 14.2723 3 16 3C19.4723 3 22.7432 4.35783 25.1923 6.80529C27.6413 9.25274 29 12.5216 29 15.9916C29 19.4616 27.6413 22.7305 25.1923 25.1779C22.7432 27.6254 19.4723 28.9832 16 28.9832V29ZM16 6.36944C14.7252 6.36944 13.4839 6.62089 12.3097 7.10703C11.1355 7.59317 10.0787 8.29723 9.1729 9.20245C8.2671 10.1077 7.56258 11.147 7.07613 12.3372C6.58968 13.5106 6.33806 14.7511 6.33806 16.0251C6.33806 17.2992 6.58968 18.5397 7.07613 19.7131C7.56258 20.8865 8.2671 21.9426 9.1729 22.8478C10.0787 23.7531 11.1355 24.4571 12.3097 24.9433C15.8658 26.4184 20.0929 25.5803 22.8271 22.8478C24.6555 21.0206 25.6452 18.6067 25.6452 16.0251C25.6452 13.4436 24.6387 11.0297 22.8271 9.20245C20.9987 7.37524 18.5832 6.3862 16 6.3862V6.36944ZM14.7419 20.1992C14.3058 20.1992 13.8865 20.0316 13.551 19.7131L11.0348 17.1986C10.3806 16.5448 10.3806 15.4887 11.0348 14.8349C11.689 14.1812 12.7458 14.1812 13.4 14.8349L14.7252 16.1593L18.5665 12.3204C19.2206 11.6667 20.2774 11.6667 20.9316 12.3204C21.5858 12.9742 21.5858 14.0303 20.9316 14.6841L15.8994 19.7131C15.5639 20.0484 15.1445 20.1992 14.7084 20.1992H14.7419Z" fill="#070C2B"/>
</svg>
