<svg width="32" height="32" viewBox="0 0 32 32" fill="none" xmlns="http://www.w3.org/2000/svg">
<path d="M23.54 27H8.46C6.9 27 5.99 27 5.08 26.6063C4.3 26.2125 3.78 25.6875 3.39 24.9C3 23.9812 3 23.0625 3 21.4875V11.5125C3 9.9375 3 9.01875 3.39 8.1C3.78 7.3125 4.3 6.7875 5.08 6.39375C5.99 6 6.9 6 8.46 6H23.54C25.1 6 26.01 6 26.92 6.39375C27.7 6.7875 28.22 7.3125 28.61 8.1C29 9.01875 29 9.9375 29 11.5125V21.4875C29 23.0625 29 23.9812 28.61 24.9C28.22 25.6875 27.7 26.2125 26.92 26.6063C26.01 27 25.1 27 23.54 27ZM5.6 10.3313C5.6 10.725 5.6 11.1187 5.6 11.5125V21.4875C5.6 22.6688 5.6 23.325 5.73 23.7188C5.86 23.9813 5.99 24.1125 6.25 24.2437C6.64 24.375 7.29 24.375 8.46 24.375H23.54C24.71 24.375 25.36 24.375 25.75 24.2437C26.01 24.1125 26.14 23.9813 26.27 23.7188C26.4 23.4562 26.4 22.6687 26.4 21.6187V11.5125C26.4 10.9875 26.4 10.5938 26.4 10.3313C23.54 12.4313 19.25 15.7125 19.25 15.8438C18.21 16.6313 17.69 17.025 17.04 17.1562C16.39 17.2875 15.74 17.2875 15.09 17.1562C14.31 17.025 13.79 16.6313 12.88 15.8438L5.6 10.3313ZM14.31 13.6125C14.96 14.1375 15.35 14.4 15.61 14.5312C15.87 14.5312 16 14.5312 16.26 14.5312C16.52 14.5312 16.91 14.1375 17.69 13.6125C17.69 13.6125 21.33 10.725 24.19 8.625C23.93 8.625 23.8 8.625 23.54 8.625H8.46C8.2 8.625 7.94 8.625 7.81 8.625L14.31 13.6125Z" fill="#070C2B"/>
</svg>
