<svg width="32" height="32" viewBox="0 0 32 32" fill="none" xmlns="http://www.w3.org/2000/svg">
<path fill-rule="evenodd" clip-rule="evenodd" d="M24.3905 1.7239C24.9112 1.2032 25.7554 1.2032 26.2761 1.7239L30.2761 5.7239C30.7968 6.2446 30.7968 7.08882 30.2761 7.60952L18.2761 19.6095C18.0261 19.8596 17.687 20 17.3333 20H13.3333C12.597 20 12 19.4031 12 18.6667V14.6667C12 14.3131 12.1405 13.9739 12.3905 13.7239L24.3905 1.7239ZM23.219 6.66671L25.3333 8.78109L27.4477 6.66671L25.3333 4.55233L23.219 6.66671ZM23.4477 10.6667L21.3333 8.55233L14.6667 15.219V17.3334H16.7811L23.4477 10.6667ZM9.54861 4.00004L13.3333 4.00004C14.0697 4.00004 14.6667 4.59699 14.6667 5.33337C14.6667 6.06975 14.0697 6.66671 13.3333 6.66671H9.6C8.83134 6.66671 8.33503 6.66774 7.95725 6.69861C7.59508 6.7282 7.46064 6.77844 7.39449 6.81214C7.14371 6.93986 6.93983 7.14374 6.8121 7.39452C6.77841 7.46067 6.72817 7.59512 6.69857 7.95729C6.66771 8.33506 6.66667 8.83137 6.66667 9.60004V22.4C6.66667 23.1687 6.66771 23.665 6.69857 24.0428C6.72817 24.405 6.7784 24.5394 6.8121 24.6056C6.93993 24.8563 7.14386 25.0602 7.39467 25.188C7.45962 25.2212 7.5941 25.2719 7.95587 25.3015C8.33308 25.3323 8.82866 25.3334 9.596 25.3334H22.404C23.1714 25.3334 23.6666 25.3323 24.0434 25.3015C24.4046 25.2719 24.5379 25.2218 24.6031 25.1885C24.8546 25.0604 25.0599 24.8558 25.1881 24.6052C25.2219 24.5387 25.2719 24.4042 25.3014 24.0436C25.3323 23.6666 25.3333 23.1714 25.3333 22.404V18.6667C25.3333 17.9303 25.9303 17.3334 26.6667 17.3334C27.403 17.3334 28 17.9303 28 18.6667V22.4555C28 23.1569 28 23.7623 27.9592 24.2611C27.9161 24.7879 27.8209 25.3116 27.5641 25.8159L27.5635 25.8171C27.1797 26.5687 26.5679 27.1804 25.8144 27.5642C25.814 27.5644 25.8148 27.564 25.8144 27.5642C25.3106 27.8211 24.787 27.9162 24.261 27.9593C23.7622 28.0001 23.1568 28.0001 22.4554 28H9.54458C8.84312 28.0001 8.23744 28.0001 7.73846 27.9593C7.21223 27.9162 6.6881 27.8212 6.184 27.564C5.43182 27.1805 4.81933 26.5683 4.436 25.816C4.17903 25.3115 4.08384 24.7871 4.04076 24.26C3.99996 23.7605 3.99998 23.1542 4 22.4514V9.54865C3.99998 8.84585 3.99996 8.23955 4.04076 7.74012C4.08384 7.21296 4.17894 6.68874 4.43591 6.18422C4.81935 5.4314 5.43137 4.81938 6.18419 4.43594C6.68871 4.17897 7.21292 4.08388 7.74009 4.0408C8.23951 4 8.84582 4.00002 9.54861 4.00004Z" fill="black"/>
</svg>
