<svg width="32" height="32" viewBox="0 0 32 32" fill="none" xmlns="http://www.w3.org/2000/svg">
<path fill-rule="evenodd" clip-rule="evenodd" d="M7.12455 16C7.12455 15.2636 7.7215 14.6667 8.45788 14.6667L14.667 14.6667L14.667 8.45753C14.667 7.72115 15.264 7.12419 16.0004 7.1242C16.7367 7.12419 17.3337 7.72115 17.3337 8.45753L17.3337 14.6667H23.5428C24.2792 14.6667 24.8762 15.2636 24.8762 16C24.8762 16.7364 24.2792 17.3333 23.5428 17.3333H17.3337L17.3337 23.5425C17.3337 24.2789 16.7367 24.8758 16.0004 24.8758C15.264 24.8758 14.667 24.2789 14.667 23.5425L14.667 17.3333L8.45788 17.3333C7.7215 17.3333 7.12455 16.7364 7.12455 16Z" fill="#070C2B"/>
</svg>
