<svg width="32" height="32" viewBox="0 0 32 32" fill="none" xmlns="http://www.w3.org/2000/svg">
<path d="M21.3333 28H10.6667C9.33333 28 8.55556 28 7.77778 27.655C7.11111 27.31 6.66667 26.85 6.33333 26.16C6 25.355 6 24.55 6 23.17V17.65C6 16.5 6 15.81 6.22222 15.235C6.44444 14.775 6.66667 14.43 7 14.085C7.33333 13.74 7.66667 13.51 8.11111 13.395C8.66667 13.05 9.33333 13.05 10.4444 13.05C11.1111 13.05 11.5556 13.51 11.5556 14.2C11.5556 14.89 11.1111 15.35 10.4444 15.35C9.66667 15.35 9.11111 15.35 8.88889 15.465C8.77778 15.58 8.66667 15.58 8.55556 15.695C8.44444 15.81 8.33333 15.925 8.33333 16.04C8.22222 16.27 8.22222 16.845 8.22222 17.65V23.17C8.22222 24.205 8.22222 24.78 8.33333 25.125C8.44444 25.355 8.55556 25.47 8.77778 25.585C9.11111 25.7 9.66667 25.7 10.6667 25.7H21.3333C22.3333 25.7 22.8889 25.7 23.2222 25.585C23.4444 25.47 23.5556 25.355 23.6667 25.125C23.7778 24.895 23.7778 24.205 23.7778 23.17V17.65C23.7778 16.845 23.7778 16.27 23.6667 16.04C23.5556 15.925 23.5556 15.81 23.4444 15.695C23.3333 15.58 23.2222 15.465 23.1111 15.465C22.8889 15.35 22.3333 15.35 21.5556 15.35C20.8889 15.35 20.4444 14.89 20.4444 14.2C20.4444 13.51 20.8889 13.05 21.5556 13.05C22.6667 13.05 23.3333 13.05 23.8889 13.28C24.3333 13.51 24.6667 13.74 25 14.085C25.3333 14.43 25.5556 14.775 25.6667 15.235C26 15.81 26 16.5 26 17.65V23.17C26 24.55 26 25.355 25.6667 26.16C25.3333 26.85 24.8889 27.31 24.2222 27.655C23.4444 28 22.6667 28 21.3333 28ZM16 18.8C15.3333 18.8 14.8889 18.34 14.8889 17.65V8.91L13.4444 10.405C13 10.865 12.3333 10.865 11.8889 10.405C11.4444 9.945 11.4444 9.255 11.8889 8.795L15.2222 5.345C15.3333 5.23 15.4444 5.115 15.5556 5.115C15.6667 5 15.8889 5 16 5C16.1111 5 16.3333 5 16.4444 5.115C16.5556 5.115 16.6667 5.23 16.7778 5.345L20.1111 8.795C20.5556 9.255 20.5556 9.945 20.1111 10.405C19.6667 10.865 19 10.865 18.5556 10.405L17.1111 8.91V17.65C17.1111 18.34 16.6667 18.8 16 18.8Z" fill="black"/>
</svg>
