<svg width="24" height="24" viewBox="0 0 24 24" fill="none" xmlns="http://www.w3.org/2000/svg">
<path d="M3 11V15.8C3 16.92 3 17.48 3.218 17.908C3.40974 18.2843 3.71569 18.5903 4.092 18.782C4.519 19 5.079 19 6.197 19H17.803C18.921 19 19.48 19 19.907 18.782C20.284 18.59 20.59 18.284 20.782 17.908C21 17.48 21 16.922 21 15.804V11M3 11V9M3 11H21M21 11V9M3 9V8.2C3 7.08 3 6.52 3.218 6.092C3.41 5.715 3.715 5.41 4.092 5.218C4.52 5 5.08 5 6.2 5H17.8C18.92 5 19.48 5 19.907 5.218C20.284 5.41 20.59 5.715 20.782 6.092C21 6.519 21 7.079 21 8.197V9M3 9H21M7 15H11" stroke="#070C2B" stroke-width="2" stroke-linecap="round" stroke-linejoin="round"/>
</svg>
