<svg width="32" height="32" viewBox="0 0 32 32" fill="none" xmlns="http://www.w3.org/2000/svg">
<path d="M14.8002 5.66715C12.8768 5.88524 11.0526 6.63611 9.533 7.83515L10.8482 9.15195C11.0602 9.37943 11.1756 9.68031 11.1701 9.99119C11.1646 10.3021 11.0387 10.5987 10.8188 10.8185C10.5989 11.0384 10.3023 11.1643 9.99143 11.1698C9.68055 11.1753 9.37967 11.0599 9.15219 10.848L7.8306 9.52795C6.70736 10.9368 5.97654 12.6176 5.7122 14.4H8.4002C8.71846 14.4 9.02368 14.5264 9.24872 14.7514C9.47377 14.9765 9.6002 15.2817 9.6002 15.6C9.6002 15.9182 9.47377 16.2234 9.24872 16.4485C9.02368 16.6735 8.71846 16.8 8.4002 16.8H5.6402C5.88931 19.3678 7.06292 21.7577 8.9426 23.5248C9.16931 23.7437 9.30075 24.0431 9.30854 24.3582C9.31632 24.6733 9.19982 24.9788 8.9842 25.2088C8.76858 25.4387 8.47116 25.5745 8.15621 25.5869C7.84125 25.5994 7.53406 25.4874 7.301 25.2752C4.837 22.9664 3.2002 19.5616 3.2002 15.9088C3.2002 8.88155 8.9394 3.19995 16.0002 3.19995C23.061 3.19995 28.8002 8.87995 28.8002 15.9088C28.797 17.6625 28.4371 19.3972 27.7423 21.0074C27.0475 22.6177 26.0323 24.0697 24.7586 25.2752C24.5255 25.4874 24.2183 25.5994 23.9034 25.5869C23.5884 25.5745 23.291 25.4387 23.0754 25.2088C22.8598 24.9788 22.7433 24.6733 22.7511 24.3582C22.7588 24.0431 22.8903 23.7437 23.117 23.5248C24.9836 21.7547 26.1378 19.3626 26.3618 16.8H23.6002C23.2819 16.8 22.9767 16.6735 22.7517 16.4485C22.5266 16.2234 22.4002 15.9182 22.4002 15.6C22.4002 15.2817 22.5266 14.9765 22.7517 14.7514C22.9767 14.5264 23.2819 14.4 23.6002 14.4H26.2882C25.6098 9.81435 21.8834 6.19995 17.2002 5.66715V7.59995C17.2002 7.91821 17.0738 8.22344 16.8487 8.44848C16.6237 8.67352 16.3185 8.79995 16.0002 8.79995C15.6819 8.79995 15.3767 8.67352 15.1517 8.44848C14.9266 8.22344 14.8002 7.91821 14.8002 7.59995V5.66715ZM21.5186 9.29115C21.664 9.17568 21.845 9.11437 22.0307 9.11774C22.2163 9.12111 22.395 9.18895 22.5361 9.30963C22.6772 9.43031 22.7719 9.59631 22.8041 9.77918C22.8362 9.96205 22.8037 10.1504 22.7122 10.312L22.5362 10.6256C21.8928 11.7617 21.2453 12.8956 20.5938 14.0272C20.0729 14.9327 19.5449 15.834 19.0098 16.7312C18.8093 17.0687 18.6044 17.4036 18.3954 17.736C18.2354 17.9872 18.0786 18.2256 17.9634 18.36C17.5501 18.8441 16.9614 19.1443 16.3267 19.1944C15.6921 19.2445 15.0636 19.0405 14.5794 18.6272C14.0952 18.2138 13.7951 17.6251 13.7449 16.9905C13.6948 16.3559 13.8989 15.7273 14.3122 15.2432C14.4274 15.1088 14.637 14.9152 14.861 14.7184C15.101 14.5056 15.4098 14.2448 15.757 13.952C16.4546 13.3696 17.3282 12.656 18.181 11.968C19.1963 11.1467 20.2149 10.3296 21.237 9.51675L21.5186 9.29115Z" fill="#070C2B"/>
</svg>
