<svg width="32" height="32" viewBox="0 0 32 32" fill="none" xmlns="http://www.w3.org/2000/svg">
<path fill-rule="evenodd" clip-rule="evenodd" d="M12.3237 8.83205H23.5662C24.1998 8.83205 24.8076 9.08378 25.2557 9.53186C25.7037 9.97994 25.9555 10.5877 25.9555 11.2214V20.7786C25.9555 21.4122 25.7037 22.02 25.2557 22.4681C24.8076 22.9161 24.1998 23.1679 23.5662 23.1679H12.3237C11.9654 23.1678 11.6118 23.0871 11.2889 22.9319C10.9661 22.7767 10.6822 22.5508 10.4584 22.2711L6.5161 17.3443C6.21054 16.9629 6.04404 16.4887 6.04404 16C6.04404 15.5112 6.21054 15.037 6.5161 14.6556L10.4584 9.72884C10.6819 9.4495 10.9652 9.22391 11.2875 9.06869C11.6098 8.91348 11.9628 8.83261 12.3205 8.83205H12.3237ZM8.5916 8.23632C9.03934 7.6766 9.60726 7.22478 10.2533 6.91431C10.8993 6.60384 11.6069 6.44267 12.3237 6.44275H23.5662C24.8335 6.44275 26.049 6.94621 26.9451 7.84237C27.8413 8.73853 28.3448 9.95399 28.3448 11.2214V20.7786C28.3448 22.0459 27.8413 23.2614 26.9451 24.1576C26.049 25.0537 24.8335 25.5572 23.5662 25.5572H12.3237C11.6069 25.5572 10.8993 25.3961 10.2533 25.0856C9.60726 24.7751 9.03934 24.3233 8.5916 23.7636L4.65085 18.8369C4.0064 18.0318 3.65527 17.0312 3.65527 16C3.65527 14.9687 4.0064 13.9682 4.65085 13.1631L8.5916 8.23632ZM15.2514 11.97C15.0249 11.759 14.7254 11.6441 14.4159 11.6496C14.1064 11.655 13.8111 11.7804 13.5922 11.9993C13.3733 12.2182 13.248 12.5135 13.2425 12.8229C13.237 13.1324 13.3519 13.432 13.5629 13.6584L15.9045 16L13.5629 18.3415C13.4456 18.4508 13.3514 18.5827 13.2861 18.7293C13.2208 18.8758 13.1857 19.034 13.1829 19.1944C13.1801 19.3548 13.2096 19.5142 13.2697 19.6629C13.3297 19.8117 13.4192 19.9468 13.5326 20.0602C13.6461 20.1737 13.7812 20.2631 13.9299 20.3232C14.0787 20.3833 14.238 20.4128 14.3984 20.41C14.5588 20.4071 14.717 20.372 14.8636 20.3067C15.0101 20.2414 15.142 20.1473 15.2514 20.0299L17.5929 17.6884L19.9344 20.0299C20.0438 20.1473 20.1757 20.2414 20.3222 20.3067C20.4688 20.372 20.627 20.4071 20.7874 20.41C20.9478 20.4128 21.1071 20.3833 21.2559 20.3232C21.4046 20.2631 21.5397 20.1737 21.6532 20.0602C21.7666 19.9468 21.8561 19.8117 21.9161 19.6629C21.9762 19.5142 22.0057 19.3548 22.0029 19.1944C22.0001 19.034 21.965 18.8758 21.8997 18.7293C21.8344 18.5827 21.7402 18.4508 21.6229 18.3415L19.2813 16L21.6229 13.6584C21.8339 13.432 21.9488 13.1324 21.9433 12.8229C21.9378 12.5135 21.8125 12.2182 21.5936 11.9993C21.3747 11.7804 21.0794 11.655 20.7699 11.6496C20.4604 11.6441 20.1609 11.759 19.9344 11.97L17.5929 14.3115L15.2514 11.97Z" fill="#070C2B"/>
</svg>
