<svg width="12" height="12" viewBox="0 0 12 12" fill="none" xmlns="http://www.w3.org/2000/svg">
<g clip-path="url(#clip0_1993_11385)">
<path fill-rule="evenodd" clip-rule="evenodd" d="M5.649 1.09661C5.84631 1.02279 6.0619 1.01316 6.265 1.06911L6.351 1.09661L9.851 2.40911C10.0285 2.47566 10.1834 2.59127 10.2976 2.74246C10.4119 2.89366 10.4809 3.07423 10.4965 3.26311L10.5 3.34561V6.02711C10.5 6.83732 10.2812 7.6325 9.8668 8.32871C9.45239 9.02491 8.8577 9.59632 8.1455 9.98261L8.0125 10.0521L6.3355 10.8906C6.24316 10.9367 6.1423 10.9633 6.03923 10.9686C5.93616 10.9739 5.8331 10.9579 5.7365 10.9216L5.6645 10.8906L3.9875 10.0521C3.26281 9.68976 2.64939 9.13846 2.212 8.45642C1.77462 7.77438 1.52949 6.9869 1.5025 6.17711L1.5 6.02711V3.34561C1.5 3.15618 1.55381 2.97064 1.65517 2.8106C1.75652 2.65056 1.90125 2.5226 2.0725 2.44161L2.149 2.40911L5.649 1.09661ZM6 2.03311L2.5 3.34561V6.02711C2.50001 6.65462 2.66873 7.27058 2.98848 7.8105C3.30823 8.35043 3.76726 8.79446 4.3175 9.09611L4.435 9.15761L6 9.94011L7.565 9.15761C8.12636 8.87698 8.60194 8.45058 8.94193 7.92304C9.28192 7.39551 9.47381 6.78627 9.4975 6.15911L9.5 6.02711V3.34561L6 2.03311ZM5.754 3.75711C5.8894 3.70644 6.03716 3.69893 6.177 3.73561L6.246 3.75711L7.646 4.28211C7.76881 4.32818 7.8762 4.40782 7.95594 4.51196C8.03568 4.6161 8.08456 4.74054 8.097 4.87111L8.1 4.93761V6.01011C8.1 6.38176 8.00136 6.74676 7.81417 7.06783C7.62698 7.38889 7.35793 7.65453 7.0345 7.83761L6.9395 7.88861L6.2685 8.22361C6.19582 8.26001 6.11651 8.28125 6.03537 8.28607C5.95424 8.29088 5.87297 8.27916 5.7965 8.25161L5.7315 8.22411L5.061 7.88861C4.72864 7.72242 4.44633 7.47101 4.24289 7.16005C4.03944 6.84909 3.92216 6.48972 3.903 6.11861L3.9 6.01011V4.93761C3.90002 4.80648 3.93687 4.67799 4.00635 4.56679C4.07583 4.45558 4.17515 4.36612 4.293 4.30861L4.354 4.28211L5.754 3.75711ZM6 4.73311L4.9 5.14561V6.01061C4.90005 6.2007 4.94937 6.38753 5.04313 6.55289C5.13689 6.71824 5.2719 6.85648 5.435 6.95411L5.508 6.99411L6 7.24011L6.492 6.99411C6.66214 6.90906 6.80731 6.78134 6.91335 6.62342C7.01939 6.4655 7.08266 6.28279 7.097 6.09311L7.1 6.01011V5.14561L6 4.73311Z" fill="white"/>
</g>
<defs>
<clipPath id="clip0_1993_11385">
<rect width="12" height="12" fill="white"/>
</clipPath>
</defs>
</svg>
