<svg width="32" height="32" viewBox="0 0 32 32" fill="none" xmlns="http://www.w3.org/2000/svg">
<path d="M15.9998 9.33337C8.63984 9.33337 2.6665 12.32 2.6665 16C2.6665 18.9867 6.5865 21.5067 11.9998 22.36V25.0534C11.9998 25.6534 12.7198 25.9467 13.1332 25.52L16.8532 21.8C17.1198 21.5334 17.1198 21.12 16.8532 20.8534L13.1332 17.1334C13.0392 17.0412 12.92 16.979 12.7907 16.9545C12.6614 16.9299 12.5277 16.9442 12.4065 16.9956C12.2853 17.0469 12.182 17.133 12.1096 17.2429C12.0373 17.3529 11.9991 17.4818 11.9998 17.6134V19.64C7.79984 18.8934 5.33317 17.1067 5.33317 16C5.33317 14.5867 9.3865 12 15.9998 12C22.6132 12 26.6665 14.5867 26.6665 16C26.6665 16.88 25.0665 18.24 22.2398 19.12C21.6932 19.2934 21.3332 19.8 21.3332 20.3734C21.3332 21.2667 22.1998 21.92 23.0398 21.6534C26.8132 20.48 29.3332 18.3867 29.3332 16C29.3332 12.32 23.3598 9.33337 15.9998 9.33337Z" fill="black"/>
</svg>
