<svg width="16" height="16" viewBox="0 0 16 16" fill="none" xmlns="http://www.w3.org/2000/svg">
<path d="M8 2C6.36892 2 6.16565 2.00788 5.52732 2.03488C4.88636 2.06638 4.45281 2.16577 4.07026 2.31429C3.66988 2.46544 3.30729 2.70209 3.00775 3.00775C2.70124 3.30659 2.46446 3.66938 2.31429 4.07026C2.16577 4.45281 2.06638 4.88636 2.03488 5.52732C2.006 6.16602 2 6.36892 2 8C2 9.63108 2.00788 9.83435 2.03488 10.4727C2.06638 11.1118 2.16577 11.5472 2.31429 11.9297C2.46544 12.3301 2.70209 12.6927 3.00775 12.9922C3.30659 13.2988 3.66938 13.5355 4.07026 13.6857C4.45281 13.8324 4.88824 13.9336 5.52732 13.9651C6.16602 13.994 6.36892 14 8 14C9.63108 14 9.83435 13.9921 10.4727 13.9651C11.1118 13.9336 11.5472 13.832 11.9297 13.6857C12.3301 13.5346 12.6927 13.2979 12.9922 12.9922C13.2992 12.6937 13.536 12.3308 13.6857 11.9297C13.8324 11.5472 13.9336 11.1118 13.9651 10.4727C13.994 9.83398 14 9.63108 14 8C14 6.36892 13.9921 6.16565 13.9651 5.52732C13.9336 4.88824 13.832 4.45056 13.6857 4.07026C13.5346 3.66988 13.2979 3.30729 12.9922 3.00775C12.6937 2.70085 12.3308 2.464 11.9297 2.31429C11.5472 2.16577 11.1118 2.06638 10.4727 2.03488C9.83398 2.006 9.63108 2 8 2ZM8 3.06288C9.60183 3.06288 9.7931 3.08801 10.4262 3.11501C11.0101 3.14239 11.3282 3.2399 11.5393 3.32242C11.8004 3.41877 12.0366 3.57214 12.2309 3.77135C12.4298 3.96481 12.5826 4.20053 12.678 4.46106C12.7605 4.67221 12.858 4.99025 12.8854 5.5742C12.9124 6.20728 12.9202 6.39892 12.9202 8.00037C12.9202 9.60183 12.9124 9.79347 12.8831 10.4266C12.8516 11.0105 12.7541 11.3285 12.672 11.5397C12.5583 11.8214 12.4316 12.0183 12.2223 12.2313C12.0273 12.4292 11.7912 12.5819 11.5307 12.6783C11.3222 12.7608 10.9996 12.8584 10.4134 12.8857C9.77697 12.9127 9.58945 12.9206 7.9835 12.9206C6.37755 12.9206 6.1904 12.9127 5.55319 12.8835C4.96925 12.852 4.64708 12.7545 4.43593 12.6723C4.15089 12.5587 3.95549 12.4319 3.74622 12.2227C3.53507 12.0115 3.4008 11.8105 3.29729 11.5311C3.21328 11.3225 3.11726 11 3.08614 10.4138C3.06476 9.78485 3.05463 9.58982 3.05463 7.99137C3.05463 6.39367 3.06476 6.19828 3.08614 5.56145C3.11726 4.97525 3.21328 4.65346 3.29729 4.44418C3.4008 4.15877 3.53544 3.96375 3.74622 3.75259C3.95512 3.54369 4.15089 3.40868 4.43593 3.30291C4.64708 3.22078 4.96137 3.12327 5.54757 3.09401C6.18402 3.07113 6.3963 3.06288 8 3.06288ZM8 4.92049C7.59545 4.92034 7.19484 4.99991 6.82106 5.15466C6.44728 5.3094 6.10766 5.53629 5.8216 5.82235C5.53554 6.10841 5.30866 6.44803 5.15391 6.82181C4.99916 7.19559 4.91959 7.5962 4.91974 8.00075C4.91959 8.4053 4.99916 8.80591 5.15391 9.17969C5.30866 9.55347 5.53554 9.89309 5.8216 10.1792C6.10766 10.4652 6.44728 10.6921 6.82106 10.8468C7.19484 11.0016 7.59545 11.0812 8 11.081C8.40455 11.0812 8.80516 11.0016 9.17894 10.8468C9.55272 10.6921 9.89234 10.4652 10.1784 10.1792C10.4645 9.89309 10.6913 9.55347 10.8461 9.17969C11.0008 8.80591 11.0804 8.4053 11.0803 8.00075C11.0804 7.5962 11.0008 7.19559 10.8461 6.82181C10.6913 6.44803 10.4645 6.10841 10.1784 5.82235C9.89234 5.53629 9.55272 5.3094 9.17894 5.15466C8.80516 4.99991 8.40455 4.92034 8 4.92049ZM8 10.0009C6.89436 10.0009 5.99988 9.10639 5.99988 8.00075C5.99988 6.89511 6.89436 6.00063 8 6.00063C9.10564 6.00063 10.0001 6.89511 10.0001 8.00075C10.0001 9.10639 9.10564 10.0009 8 10.0009ZM11.9245 4.79747C11.9243 4.98862 11.8482 5.17187 11.713 5.30697C11.5778 5.44206 11.3944 5.51794 11.2033 5.51794C11.1088 5.51794 11.0152 5.49932 10.9279 5.46315C10.8405 5.42699 10.7612 5.37397 10.6944 5.30714C10.6275 5.24031 10.5745 5.16097 10.5383 5.07365C10.5022 4.98633 10.4836 4.89274 10.4836 4.79822C10.4836 4.70371 10.5022 4.61012 10.5383 4.5228C10.5745 4.43548 10.6275 4.35614 10.6944 4.28931C10.7612 4.22248 10.8405 4.16946 10.9279 4.13329C11.0152 4.09713 11.1088 4.07851 11.2033 4.07851C11.5997 4.07851 11.9245 4.40105 11.9245 4.79747Z" fill="#8587B4"/>
</svg>
