<svg width="32" height="32" viewBox="0 0 32 32" fill="none" xmlns="http://www.w3.org/2000/svg">
<path d="M6.27273 27C5.64773 27 5.11288 26.7848 4.66818 26.3543C4.22348 25.9238 4.00076 25.4057 4 24.8V11.6C4 10.995 4.22273 10.4773 4.66818 10.0468C5.11364 9.61633 5.64848 9.40073 6.27273 9.4H9.85227L11.9545 7.2H18.7727V9.4H12.9489L10.875 11.6H6.27273V24.8H24.4545V14.9H26.7273V24.8C26.7273 25.405 26.5049 25.9231 26.0602 26.3543C25.6155 26.7855 25.0803 27.0007 24.4545 27H6.27273ZM24.4545 11.6V9.4H22.1818V7.2H24.4545V5H26.7273V7.2H29V9.4H26.7273V11.6H24.4545ZM15.3636 23.15C16.7841 23.15 17.9917 22.6689 18.9864 21.7068C19.9811 20.7447 20.478 19.5757 20.4773 18.2C20.4773 16.825 19.9803 15.6564 18.9864 14.6943C17.9924 13.7322 16.7848 13.2507 15.3636 13.25C13.9432 13.25 12.736 13.7314 11.742 14.6943C10.7481 15.6572 10.2508 16.8257 10.25 18.2C10.25 19.575 10.7473 20.7439 11.742 21.7068C12.7367 22.6697 13.9439 23.1507 15.3636 23.15ZM15.3636 20.95C14.5682 20.95 13.8958 20.6842 13.3466 20.1525C12.7973 19.6208 12.5227 18.97 12.5227 18.2C12.5227 17.43 12.7973 16.7792 13.3466 16.2475C13.8958 15.7158 14.5682 15.45 15.3636 15.45C16.1591 15.45 16.8314 15.7158 17.3807 16.2475C17.9299 16.7792 18.2045 17.43 18.2045 18.2C18.2045 18.97 17.9299 19.6208 17.3807 20.1525C16.8314 20.6842 16.1591 20.95 15.3636 20.95Z" fill="#070C2B"/>
</svg>
