<svg width="32" height="32" viewBox="0 0 32 32" fill="none" xmlns="http://www.w3.org/2000/svg">
<path d="M23.0706 21.6694L17.6323 27.2999C17.418 27.5218 17.1635 27.6979 16.8834 27.818C16.6033 27.9382 16.3031 28 16 28C15.6968 28 15.3966 27.9382 15.1165 27.818C14.8365 27.6979 14.582 27.5218 14.3677 27.2999L8.92931 21.6694C8.00068 20.7083 7.26402 19.5674 6.76141 18.3117C6.2588 17.0559 6.00007 15.71 6 14.3508C5.99993 12.9916 6.25851 11.6457 6.76099 10.3899C7.26347 9.13413 8.00001 7.99308 8.92854 7.03192C9.85707 6.07076 10.9594 5.3083 12.1726 4.78808C13.3859 4.26786 14.6862 4.00007 15.9994 4C17.3126 3.99993 18.613 4.26757 19.8263 4.78765C21.0396 5.30773 22.142 6.07007 23.0706 7.03113C23.9994 7.99224 24.7361 9.1333 25.2387 10.3891C25.7413 11.6449 26 12.991 26 14.3503C26 15.7096 25.7413 17.0556 25.2387 18.3114C24.7361 19.5672 23.9994 20.7083 23.0706 21.6694ZM21.4399 8.72059C20.7255 7.98118 19.8774 7.39465 18.944 6.99449C18.0107 6.59433 17.0103 6.38837 16 6.38837C14.9897 6.38837 13.9893 6.59433 13.0559 6.99449C12.1225 7.39465 11.2744 7.98118 10.5601 8.72059C9.84567 9.45999 9.279 10.3378 8.89238 11.3039C8.50576 12.2699 8.30677 13.3054 8.30677 14.3511C8.30677 15.3967 8.50576 16.4322 8.89238 17.3983C9.279 18.3643 9.84567 19.2421 10.5601 19.9815L16 25.6088L21.4399 19.9815C22.1544 19.2422 22.7212 18.3644 23.1079 17.3983C23.4946 16.4323 23.6936 15.3968 23.6936 14.3511C23.6936 13.3053 23.4946 12.2699 23.1079 11.3038C22.7212 10.3377 22.1544 9.45992 21.4399 8.72059ZM16 17.5357C15.5902 17.5453 15.1828 17.4701 14.8015 17.3144C14.4202 17.1588 14.0728 16.9259 13.7797 16.6294C13.4866 16.3329 13.2537 15.9787 13.0947 15.5878C12.9356 15.1968 12.8536 14.7769 12.8535 14.3527C12.8534 13.9285 12.9352 13.5085 13.0941 13.1175C13.2529 12.7264 13.4857 12.3722 13.7786 12.0755C14.0716 11.7788 14.4189 11.5457 14.8001 11.3899C15.1813 11.2341 15.5887 11.1586 15.9984 11.168C16.8024 11.1864 17.5674 11.5298 18.1297 12.1247C18.6921 12.7196 19.0071 13.5188 19.0073 14.3511C19.0075 15.1834 18.6929 15.9827 18.1308 16.5779C17.5688 17.1731 16.8039 17.5169 16 17.5357Z" fill="#070C2B"/>
</svg>
