<svg width="24" height="24" viewBox="0 0 24 24" fill="none" xmlns="http://www.w3.org/2000/svg">
<path d="M4.53516 11.4654L11.4292 4.57043C11.9157 4.07838 12.4947 3.68737 13.1328 3.41987C13.771 3.15237 14.4558 3.01367 15.1477 3.01174C15.8397 3.00981 16.5252 3.14469 17.1649 3.40862C17.8045 3.67255 18.3857 4.06033 18.8749 4.54966C19.3642 5.03898 19.7519 5.6202 20.0157 6.25989C20.2796 6.89957 20.4144 7.58511 20.4123 8.27707C20.4103 8.96903 20.2715 9.65377 20.0039 10.2919C19.7364 10.93 19.3453 11.509 18.8532 11.9954L10.8992 19.9504C10.2427 20.6068 9.35246 20.9756 8.42416 20.9756C7.49585 20.9756 6.60557 20.6068 5.94916 19.9504C5.29275 19.294 4.92398 18.4037 4.92398 17.4754C4.92398 16.5471 5.29275 15.6568 5.94916 15.0004L13.9052 7.04643C14.2361 6.73262 14.6765 6.5604 15.1325 6.56646C15.5886 6.57252 16.0242 6.75637 16.3467 7.07887C16.6692 7.40136 16.8531 7.83702 16.8591 8.29306C16.8652 8.74909 16.693 9.18948 16.3792 9.52043L9.48416 16.4144" stroke="#9CA0AF" stroke-width="2" stroke-linecap="round" stroke-linejoin="round"/>
</svg>
